{
designer = "Bartłomiej Rózga @rozgatype";
designerURL = "https://www.behance.net/rozga";
familyName = Exile;
customParameters = (
{
name = glyphOrder;
value = (
.notdef,
NULL,
CR,
space,
I,
L,
N,
K,
T,
H,
O,
E,
S,
M,
R,
C,
J,
U,
F,
V,
D,
P,
Y,
B,
Z,
G,
uni000D,
X,
question,
ampersand,
A,
period,
acute,
W,
Q,
bracketleft,
at,
five,
three,
one,
two,
four,
six,
nine,
eight,
seven,
ogonek,
Aogonek,
Lslash,
zero,
Eogonek,
quotesingle,
z,
bracketright,
parenleft,
parenright,
dollar,
colon,
exclam,
semicolon,
hyphen,
plus,
asterisk,
asciicircum,
tilde,
slash,
less,
equal,
greater,
quotedbl,
numbersign,
percent,
braceleft,
bar,
braceright,
backslash,
quoteleft,
quoteright,
quotedblleft,
quotedblright,
quotesinglbase,
quotedblbase,
bullet,
underscore,
endash,
emdash,
minus,
plusminus,
multiply,
divide,
brokenbar,
ellipsis,
periodcentered,
comma,
asciitilde,
ampersand.ss01,
questiondown,
exclamdown,
Zacute,
Oacute,
Cacute,
Uacute,
Yacute,
Lacute,
Racute,
Wacute,
Aacute,
Eacute,
Iacute,
approxequal,
Iogonek,
Nacute,
grave,
Agrave,
Egrave,
Igrave,
Ograve,
Ugrave,
Wgrave,
trademark,
dotaccent,
Zdotaccent,
Edotaccent,
Gdotaccent,
Idotaccent,
Atilde,
Ntilde,
Itilde,
Utilde,
dieresis,
Adieresis,
Edieresis,
Idieresis,
Odieresis,
Udieresis,
Cdotaccent,
Wdieresis,
Sacute,
Ldot,
Ydieresis,
Uogonek,
Otilde,
copyright,
registered,
Oslash,
ring,
Aring,
Uring,
Eth,
degree,
Dcroat,
hungarumlaut,
Uhungarumlaut,
Ohungarumlaut,
Hbar,
uni0122,
uni0136,
uni013B,
uni0145,
uni0156,
uni0218,
uni021A,
a,
b,
c,
d,
e,
f,
g,
h,
i,
j,
k,
l,
m,
n,
o,
p,
q,
r,
s,
u,
v,
w,
x,
y,
t,
agrave,
aacute,
atilde,
adieresis,
aring,
egrave,
eacute,
edieresis,
igrave,
iacute,
idieresis,
oacute,
otilde,
odieresis,
oslash,
ugrave,
uacute,
udieresis,
yacute,
ydieresis,
aogonek,
cacute,
cdotaccent,
edotaccent,
eogonek,
gdotaccent,
uni0123,
itilde,
iogonek,
dotlessi,
ij,
uni0137,
uni013C,
ldot,
lslash,
nacute,
uni0146,
ohungarumlaut,
racute,
uni0157,
sacute,
utilde,
uring,
uhungarumlaut,
uogonek,
zacute,
zdotaccent,

glyphs = (
{
glyphname = I;
leftMetricsKey = "=30";
rightMetricsKey = "=30";
layers = (
{
layerId = "4fe7eba9-be7b-4b88-b040-678285d1e8df";
paths = (
{
closed = 1;
nodes = (
"36 530 LINE SMOOTH",
"66 530 OFFCURVE",
"86 510 OFFCURVE",
"86 480 CURVE SMOOTH",
"86 220 LINE SMOOTH",
"86 190 OFFCURVE",
"66 170 OFFCURVE",
"36 170 CURVE SMOOTH",
"30 170 LINE",
"30 0 LINE",
"342 0 LINE",
"342 170 LINE",
"336 170 LINE SMOOTH",
"306 170 OFFCURVE",
"286 190 OFFCURVE",
"286 220 CURVE SMOOTH",
"286 480 LINE SMOOTH",
"286 510 OFFCURVE",
"306 530 OFFCURVE",
"336 530 CURVE SMOOTH",
"342 530 LINE",
"342 700 LINE",
"30 700 LINE",
"30 530 LINE"
);
}
);
width = 372;
}
);
leftKerningGroup = F_2nd;
rightKerningGroup = I_1st;
unicode = 0049;
},
{
glyphname = L;
leftMetricsKey = "=I";
layers = (
{
layerId = "4fe7eba9-be7b-4b88-b040-678285d1e8df";
paths = (
{
closed = 1;
nodes = (
"30 160 OFFCURVE",
"53 203 OFFCURVE",
"94 227 CURVE",
"98 214 OFFCURVE",
"106 207 OFFCURVE",
"116 207 CURVE SMOOTH",
"129 207 OFFCURVE",
"137 217 OFFCURVE",
"137 236 CURVE SMOOTH",
"137 480 LINE SMOOTH",
"137 510 OFFCURVE",
"117 530 OFFCURVE",
"87 530 CURVE SMOOTH",
"81 530 LINE",
"81 700 LINE",
"393 700 LINE",
"393 530 LINE",
"387 530 LINE SMOOTH",
"357 530 OFFCURVE",
"337 510 OFFCURVE",
"337 480 CURVE SMOOTH",
"337 172 LINE SMOOTH",
"337 47 OFFCURVE",
"280 -18 OFFCURVE",
"180 -18 CURVE SMOOTH",
"89 -18 OFFCURVE",
"30 36 OFFCURVE",
"30 112 CURVE SMOOTH"
);
},
{
closed = 1;
nodes = (
"382 170 LINE",
"448 170 LINE SMOOTH",
"478 170 OFFCURVE",
"498 190 OFFCURVE",
"498 220 CURVE SMOOTH",
"498 285 LINE",
"638 285 LINE",
"638 0 LINE",
"382 0 LINE"
);
}
);
width = 653;
}
);
leftKerningGroup = 2nd;
rightKerningGroup = L1_1st;
unicode = 004C;
},
{
glyphname = N;
leftMetricsKey = "=I";
rightMetricsKey = "=I-10";
layers = (
{
guideLines = (
{
angle = 123.18;
position = "{658, 79}";
showMeasurement = 1;
}
);
layerId = "e9c19913-fa12-4cfd-b58e-ceb1e9808a19";
name = alt1;
paths = (
{
closed = 1;
nodes = (
"220 220 LINE SMOOTH",
"220 190 OFFCURVE",
"240 170 OFFCURVE",
"270 170 CURVE SMOOTH",
"276 170 LINE",
"276 0 LINE",
"24 0 LINE",
"24 170 LINE",
"30 170 LINE SMOOTH",
"60 170 OFFCURVE",
"80 190 OFFCURVE",
"80 220 CURVE SMOOTH",
"80 346 LINE",
"220 346 LINE"
);
},
{
closed = 1;
nodes = (
"733 530 LINE SMOOTH",
"703 530 OFFCURVE",
"683 510 OFFCURVE",
"683 480 CURVE SMOOTH",
"683 344 LINE",
"543 344 LINE",
"543 480 LINE SMOOTH",
"543 510 OFFCURVE",
"523 530 OFFCURVE",
"493 530 CURVE SMOOTH",
"487 530 LINE",
"487 700 LINE",
"739 700 LINE",
"739 530 LINE"
);
},
{
closed = 1;
nodes = (
"206 462 LINE",
"330 616 LINE",
"450 407 LINE",
"336 229 LINE"
);
},
{
closed = 1;
nodes = (
"152 435 OFFCURVE",
"137 433 OFFCURVE",
"123 433 CURVE SMOOTH",
"48 433 OFFCURVE",
"2 494 OFFCURVE",
"2 564 CURVE SMOOTH",
"2 653 OFFCURVE",
"75 718 OFFCURVE",
"166 718 CURVE SMOOTH",
"234 718 OFFCURVE",
"293 682 OFFCURVE",
"330 616 CURVE",
"206 462 LINE",
"201 471 OFFCURVE",
"195 475 OFFCURVE",
"186 475 CURVE SMOOTH",
"171 475 OFFCURVE",
"164 464 OFFCURVE",
"164 452 CURVE SMOOTH",
"164 448 OFFCURVE",
"165 444 OFFCURVE",
"166 440 CURVE"
);
},
{
closed = 1;
nodes = (
"544 238 LINE",
"420 84 LINE",
"300 293 LINE",
"414 471 LINE"
);
},
{
closed = 1;
nodes = (
"598 265 OFFCURVE",
"613 267 OFFCURVE",
"627 267 CURVE SMOOTH",
"702 267 OFFCURVE",
"751 208 OFFCURVE",
"751 134 CURVE SMOOTH",
"751 49 OFFCURVE",
"685 -18 OFFCURVE",
"593 -18 CURVE SMOOTH",
"525 -18 OFFCURVE",
"456 18 OFFCURVE",
"420 84 CURVE",
"544 238 LINE",
"549 229 OFFCURVE",
"555 225 OFFCURVE",
"564 225 CURVE SMOOTH",
"579 225 OFFCURVE",
"586 236 OFFCURVE",
"586 248 CURVE SMOOTH",
"586 252 OFFCURVE",
"585 256 OFFCURVE",
"584 260 CURVE"
);
}
);
width = 735;
},
{
guideLines = (
{
angle = 123.18;
position = "{663, 79}";
showMeasurement = 1;
}
);
layerId = "4fe7eba9-be7b-4b88-b040-678285d1e8df";
paths = (
{
closed = 1;
nodes = (
"30 700 LINE",
"270 700 LINE",
"500 240 LINE SMOOTH",
"507 226 OFFCURVE",
"515 220 OFFCURVE",
"526 220 CURVE SMOOTH",
"538 220 OFFCURVE",
"545 227 OFFCURVE",
"545 237 CURVE SMOOTH",
"545 240 OFFCURVE",
"544 243 OFFCURVE",
"543 245 CURVE",
"558 254 OFFCURVE",
"577 260 OFFCURVE",
"598 260 CURVE SMOOTH",
"664 260 OFFCURVE",
"715 201 OFFCURVE",
"715 127 CURVE SMOOTH",
"715 42 OFFCURVE",
"649 -18 OFFCURVE",
"554 -18 CURVE SMOOTH",
"467 -18 OFFCURVE",
"404 30 OFFCURVE",
"354 133 CURVE SMOOTH",
"226 397 LINE",
"226 220 LINE SMOOTH",
"226 190 OFFCURVE",
"246 170 OFFCURVE",
"276 170 CURVE SMOOTH",
"282 170 LINE",
"282 0 LINE",
"30 0 LINE",
"30 170 LINE",
"36 170 LINE SMOOTH",
"66 170 OFFCURVE",
"86 190 OFFCURVE",
"86 220 CURVE SMOOTH",
"86 480 LINE SMOOTH",
"86 510 OFFCURVE",
"66 530 OFFCURVE",
"36 530 CURVE SMOOTH",
"30 530 LINE"
);
},
{
closed = 1;
nodes = (
"452 700 LINE",
"704 700 LINE",
"704 530 LINE",
"698 530 LINE SMOOTH",
"668 530 OFFCURVE",
"648 510 OFFCURVE",
"648 480 CURVE SMOOTH",
"648 351 LINE",
"508 351 LINE",
"508 480 LINE SMOOTH",
"508 510 OFFCURVE",
"488 530 OFFCURVE",
"458 530 CURVE SMOOTH",
"452 530 LINE"
);
}
);
width = 735;
}
);
leftKerningGroup = N_2nd;
rightKerningGroup = N1_1st;
unicode = 004E;
},
{
glyphname = K;
leftMetricsKey = "=I";
rightMetricsKey = "=V";
layers = (
{
layerId = "4fe7eba9-be7b-4b88-b040-678285d1e8df";
paths = (
{
closed = 1;
nodes = (
"328 324 LINE",
"460 86 LINE SMOOTH",
"499 17 OFFCURVE",
"563 -18 OFFCURVE",
"627 -18 CURVE SMOOTH",
"705 -18 OFFCURVE",
"771 34 OFFCURVE",
"771 126 CURVE SMOOTH",
"771 211 OFFCURVE",
"715 255 OFFCURVE",
"633 255 CURVE",
"633 240 OFFCURVE",
"623 232 OFFCURVE",
"614 232 CURVE SMOOTH",
"603 232 OFFCURVE",
"594 242 OFFCURVE",
"583 262 CURVE SMOOTH",
"521 374 LINE",
"569 469 LINE SMOOTH",
"586 503 OFFCURVE",
"595 514 OFFCURVE",
"606 514 CURVE SMOOTH",
"613 514 OFFCURVE",
"621 509 OFFCURVE",
"621 497 CURVE",
"672 497 OFFCURVE",
"721 543 OFFCURVE",
"721 607 CURVE SMOOTH",
"721 674 OFFCURVE",
"668 718 OFFCURVE",
"601 718 CURVE SMOOTH",
"535 718 OFFCURVE",
"486 676 OFFCURVE",
"455 606 CURVE SMOOTH"
);
},
{
closed = 1;
nodes = (
"36 530 LINE SMOOTH",
"66 530 OFFCURVE",
"86 510 OFFCURVE",
"86 480 CURVE SMOOTH",
"86 220 LINE SMOOTH",
"86 190 OFFCURVE",
"66 170 OFFCURVE",
"36 170 CURVE SMOOTH",
"30 170 LINE",
"30 0 LINE",
"342 0 LINE",
"342 170 LINE",
"336 170 LINE SMOOTH",
"306 170 OFFCURVE",
"286 190 OFFCURVE",
"286 220 CURVE SMOOTH",
"286 480 LINE SMOOTH",
"286 510 OFFCURVE",
"306 530 OFFCURVE",
"336 530 CURVE SMOOTH",
"342 530 LINE",
"342 700 LINE",
"30 700 LINE",
"30 530 LINE"
);
}
);
width = 781;
}
);
leftKerningGroup = K_2nd;
rightKerningGroup = K1_1st;
unicode = 004B;
},
{
glyphname = T;
layers = (
{
layerId = "4fe7eba9-be7b-4b88-b040-678285d1e8df";
paths = (
{
closed = 1;
nodes = (
"10 700 LINE",
"370 700 LINE SMOOTH",
"385 700 OFFCURVE",
"391 704 OFFCURVE",
"391 714 CURVE SMOOTH",
"391 721 OFFCURVE",
"386 727 OFFCURVE",
"381 732 CURVE",
"414 765 OFFCURVE",
"445 781 OFFCURVE",
"480 781 CURVE SMOOTH",
"546 781 OFFCURVE",
"590 722 OFFCURVE",
"590 657 CURVE SMOOTH",
"590 583 OFFCURVE",
"534 530 OFFCURVE",
"456 530 CURVE SMOOTH",
"180 530 LINE SMOOTH",
"150 530 OFFCURVE",
"130 510 OFFCURVE",
"130 480 CURVE SMOOTH",
"130 439 LINE",
"10 439 LINE"
);
},
{
closed = 1;
nodes = (
"142 0 LINE",
"142 170 LINE",
"148 170 LINE SMOOTH",
"178 170 OFFCURVE",
"198 190 OFFCURVE",
"198 220 CURVE SMOOTH",
"198 470 LINE",
"398 470 LINE",
"398 220 LINE SMOOTH",
"398 190 OFFCURVE",
"418 170 OFFCURVE",
"448 170 CURVE SMOOTH",
"454 170 LINE",
"454 0 LINE"
);
}
);
width = 600;
}
);
leftKerningGroup = T_2nd;
rightKerningGroup = T1_1st;
unicode = 0054;
},
{
glyphname = H;
leftMetricsKey = "=I-8";
rightMetricsKey = "=I";
layers = (
{
layerId = "4fe7eba9-be7b-4b88-b040-678285d1e8df";
paths = (
{
closed = 1;
nodes = (
"451 700 LINE",
"763 700 LINE",
"763 530 LINE",
"757 530 LINE SMOOTH",
"727 530 OFFCURVE",
"707 510 OFFCURVE",
"707 480 CURVE SMOOTH",
"707 220 LINE SMOOTH",
"707 190 OFFCURVE",
"727 170 OFFCURVE",
"757 170 CURVE SMOOTH",
"763 170 LINE",
"763 0 LINE",
"451 0 LINE",
"451 170 LINE",
"457 170 LINE SMOOTH",
"487 170 OFFCURVE",
"507 190 OFFCURVE",
"507 220 CURVE SMOOTH",
"507 480 LINE SMOOTH",
"507 510 OFFCURVE",
"487 530 OFFCURVE",
"457 530 CURVE SMOOTH",
"451 530 LINE"
);
},
{
closed = 1;
nodes = (
"22 358 OFFCURVE",
"331 381 OFFCURVE",
"451 381 CURVE",
"451 297 LINE",
"287 297 OFFCURVE",
"230 256 OFFCURVE",
"230 216 CURVE SMOOTH",
"230 193 OFFCURVE",
"242 187 OFFCURVE",
"253 187 CURVE SMOOTH",
"265 187 OFFCURVE",
"276 193 OFFCURVE",
"276 213 CURVE",
"337 213 OFFCURVE",
"381 177 OFFCURVE",
"381 114 CURVE SMOOTH",
"381 19 OFFCURVE",
"298 -18 OFFCURVE",
"217 -18 CURVE SMOOTH",
"116 -18 OFFCURVE",
"22 40 OFFCURVE",
"22 149 CURVE SMOOTH"
);
},
{
closed = 1;
nodes = (
"363 700 LINE",
"363 530 LINE",
"357 530 LINE SMOOTH",
"327 530 OFFCURVE",
"307 510 OFFCURVE",
"307 480 CURVE SMOOTH",
"307 411 LINE",
"107 411 LINE",
"107 480 LINE SMOOTH",
"107 510 OFFCURVE",
"87 530 OFFCURVE",
"57 530 CURVE SMOOTH",
"51 530 LINE",
"51 700 LINE"
);
}
);
width = 793;
}
);
leftKerningGroup = H_2nd;
rightKerningGroup = H1_1st;
unicode = 0048;
},
{
glyphname = O;
leftMetricsKey = "=20";
rightMetricsKey = "=20";
layers = (
{
anchors = (
{
name = top;
position = "{335, 750}";
}
);
layerId = "4fe7eba9-be7b-4b88-b040-678285d1e8df";
paths = (
{
closed = 1;
nodes = (
"264 466 LINE",
"274 520 OFFCURVE",
"305 555 OFFCURVE",
"356 555 CURVE SMOOTH",
"398 555 OFFCURVE",
"441 532 OFFCURVE",
"441 484 CURVE SMOOTH",
"441 462 OFFCURVE",
"432 444 OFFCURVE",
"417 444 CURVE SMOOTH",
"411 444 OFFCURVE",
"406 446 OFFCURVE",
"403 449 CURVE",
"387 429 OFFCURVE",
"380 405 OFFCURVE",
"380 380 CURVE SMOOTH",
"380 315 OFFCURVE",
"430 272 OFFCURVE",
"504 272 CURVE SMOOTH",
"596 272 OFFCURVE",
"656 339 OFFCURVE",
"656 441 CURVE SMOOTH",
"656 581 OFFCURVE",
"542 718 OFFCURVE",
"341 718 CURVE SMOOTH",
"165 718 OFFCURVE",
"49 629 OFFCURVE",
"31 466 CURVE"
);
},
{
closed = 1;
nodes = (
"412 234 LINE",
"402 180 OFFCURVE",
"371 145 OFFCURVE",
"320 145 CURVE SMOOTH",
"278 145 OFFCURVE",
"235 168 OFFCURVE",
"235 216 CURVE SMOOTH",
"235 238 OFFCURVE",
"244 256 OFFCURVE",
"259 256 CURVE SMOOTH",
"265 256 OFFCURVE",
"270 254 OFFCURVE",
"273 251 CURVE",
"289 271 OFFCURVE",
"296 295 OFFCURVE",
"296 320 CURVE SMOOTH",
"296 385 OFFCURVE",
"246 428 OFFCURVE",
"172 428 CURVE SMOOTH",
"80 428 OFFCURVE",
"20 361 OFFCURVE",
"20 259 CURVE SMOOTH",
"20 119 OFFCURVE",
"134 -18 OFFCURVE",
"335 -18 CURVE SMOOTH",
"511 -18 OFFCURVE",
"627 71 OFFCURVE",
"645 234 CURVE"
);
}
);
width = 676;
}
);
leftKerningGroup = O_2nd;
rightKerningGroup = O1_1st;
unicode = 004F;
},
{
glyphname = E;
leftMetricsKey = "=I-5";
rightMetricsKey = "=I-10";
layers = (
{
layerId = "bd1fa89d-c2a3-46d7-8d0b-9f44015f7bb5";
name = public.background;
width = 644;
},
{
layerId = "4fe7eba9-be7b-4b88-b040-678285d1e8df";
paths = (
{
closed = 1;
nodes = (
"25 62 OFFCURVE",
"121 -18 OFFCURVE",
"313 -18 CURVE SMOOTH",
"506 -18 OFFCURVE",
"628 63 OFFCURVE",
"628 253 CURVE",
"436 253 LINE",
"431 184 OFFCURVE",
"372 164 OFFCURVE",
"330 164 CURVE SMOOTH",
"289 164 OFFCURVE",
"262 183 OFFCURVE",
"262 209 CURVE SMOOTH",
"262 260 OFFCURVE",
"338 306 OFFCURVE",
"551 306 CURVE",
"551 390 LINE",
"210 390 OFFCURVE",
"25 302 OFFCURVE",
"25 162 CURVE SMOOTH"
);
},
{
closed = 1;
nodes = (
"26 440 OFFCURVE",
"84 378 OFFCURVE",
"171 378 CURVE SMOOTH",
"236 378 OFFCURVE",
"292 412 OFFCURVE",
"292 474 CURVE",
"280 474 OFFCURVE",
"268 490 OFFCURVE",
"268 508 CURVE SMOOTH",
"268 535 OFFCURVE",
"295 554 OFFCURVE",
"331 554 CURVE SMOOTH",
"394 554 OFFCURVE",
"436 494 OFFCURVE",
"436 451 CURVE",
"596 451 LINE",
"596 700 LINE",
"436 700 LINE",
"436 583 LINE",
"400 691 OFFCURVE",
"299 718 OFFCURVE",
"233 718 CURVE SMOOTH",
"115 718 OFFCURVE",
"24 631 OFFCURVE",
"25 524 CURVE SMOOTH"
);
}
);
width = 648;
}
);
leftKerningGroup = E_2nd;
rightKerningGroup = E1_1st;
unicode = 0045;
},
{
glyphname = S;
leftMetricsKey = "=I";
rightMetricsKey = "=I-10";
layers = (
{
anchors = (
{
name = top;
position = "{316, 750}";
}
);
guideLines = (
{
angle = 107.85;
position = "{355, 260}";
}
);
layerId = "4fe7eba9-be7b-4b88-b040-678285d1e8df";
paths = (
{
closed = 1;
nodes = (
"190 0 LINE",
"190 137 LINE",
"227 16 OFFCURVE",
"324 -18 OFFCURVE",
"400 -18 CURVE SMOOTH",
"531 -18 OFFCURVE",
"622 85 OFFCURVE",
"622 213 CURVE SMOOTH",
"622 322 OFFCURVE",
"557 398 OFFCURVE",
"454 398 CURVE SMOOTH",
"345 398 OFFCURVE",
"300 319 OFFCURVE",
"319 260 CURVE",
"341 266 OFFCURVE",
"357 248 OFFCURVE",
"357 223 CURVE SMOOTH",
"357 190 OFFCURVE",
"331 167 OFFCURVE",
"291 167 CURVE SMOOTH",
"219 167 OFFCURVE",
"190 240 OFFCURVE",
"190 302 CURVE",
"190 303 LINE",
"30 303 LINE",
"30 0 LINE"
);
},
{
closed = 1;
nodes = (
"31 426 OFFCURVE",
"99 356 OFFCURVE",
"189 356 CURVE SMOOTH",
"271 356 OFFCURVE",
"309 414 OFFCURVE",
"297 472 CURVE",
"277 464 OFFCURVE",
"257 476 OFFCURVE",
"257 503 CURVE SMOOTH",
"257 537 OFFCURVE",
"287 556 OFFCURVE",
"322 556 CURVE SMOOTH",
"398 556 OFFCURVE",
"411 467 OFFCURVE",
"411 439 CURVE",
"571 439 LINE",
"571 700 LINE",
"411 700 LINE",
"411 583 LINE",
"379 686 OFFCURVE",
"297 718 OFFCURVE",
"225 718 CURVE SMOOTH",
"111 718 OFFCURVE",
"29 636 OFFCURVE",
"30 526 CURVE SMOOTH"
);
}
);
width = 642;
}
);
leftKerningGroup = S_2nd;
rightKerningGroup = S1_1st;
unicode = 0053;
},
{
glyphname = M;
leftMetricsKey = "=I-10";
rightMetricsKey = "=I";
layers = (
{
layerId = "4fe7eba9-be7b-4b88-b040-678285d1e8df";
paths = (
{
closed = 1;
nodes = (
"393 191 OFFCURVE",
"403 214 OFFCURVE",
"419 240 CURVE SMOOTH",
"574 488 LINE SMOOTH",
"590 513 OFFCURVE",
"580 530 OFFCURVE",
"550 530 CURVE SMOOTH",
"544 530 LINE",
"544 700 LINE",
"706 700 LINE",
"988 700 LINE",
"988 530 LINE",
"982 530 LINE SMOOTH",
"952 530 OFFCURVE",
"932 510 OFFCURVE",
"932 480 CURVE SMOOTH",
"932 220 LINE SMOOTH",
"932 190 OFFCURVE",
"952 170 OFFCURVE",
"982 170 CURVE SMOOTH",
"988 170 LINE",
"988 0 LINE",
"676 0 LINE",
"676 170 LINE",
"682 170 LINE SMOOTH",
"712 170 OFFCURVE",
"732 190 OFFCURVE",
"732 220 CURVE SMOOTH",
"732 477 LINE",
"568 196 LINE SMOOTH",
"566 192 OFFCURVE",
"565 189 OFFCURVE",
"565 186 CURVE SMOOTH",
"565 179 OFFCURVE",
"569 173 OFFCURVE",
"574 170 CURVE SMOOTH",
"577 169 OFFCURVE",
"579 168 OFFCURVE",
"582 168 CURVE SMOOTH",
"585 168 OFFCURVE",
"589 168 OFFCURVE",
"592 170 CURVE",
"599 156 OFFCURVE",
"603 142 OFFCURVE",
"603 123 CURVE SMOOTH",
"603 60 OFFCURVE",
"561 17 OFFCURVE",
"498 17 CURVE SMOOTH",
"431 17 OFFCURVE",
"383 65 OFFCURVE",
"383 133 CURVE SMOOTH",
"383 145 OFFCURVE",
"385 157 OFFCURVE",
"388 170 CURVE SMOOTH"
);
},
{
closed = 1;
nodes = (
"20 651 OFFCURVE",
"85 718 OFFCURVE",
"180 718 CURVE SMOOTH",
"250 718 OFFCURVE",
"311 682 OFFCURVE",
"348 616 CURVE SMOOTH",
"468 407 LINE",
"364 229 LINE",
"234 462 LINE SMOOTH",
"229 471 OFFCURVE",
"223 475 OFFCURVE",
"214 475 CURVE SMOOTH",
"199 475 OFFCURVE",
"192 464 OFFCURVE",
"192 452 CURVE SMOOTH",
"192 448 OFFCURVE",
"193 444 OFFCURVE",
"194 440 CURVE",
"180 435 OFFCURVE",
"165 433 OFFCURVE",
"151 433 CURVE SMOOTH",
"76 433 OFFCURVE",
"20 492 OFFCURVE",
"20 569 CURVE SMOOTH"
);
},
{
closed = 1;
nodes = (
"36 170 LINE",
"42 170 LINE SMOOTH",
"72 170 OFFCURVE",
"92 190 OFFCURVE",
"92 220 CURVE SMOOTH",
"92 362 LINE",
"232 362 LINE",
"232 220 LINE SMOOTH",
"232 190 OFFCURVE",
"252 170 OFFCURVE",
"282 170 CURVE SMOOTH",
"288 170 LINE",
"288 0 LINE",
"36 0 LINE"
);
}
);
width = 1018;
}
);
rightKerningGroup = I_1st;
unicode = 004D;
},
{
glyphname = R;
leftMetricsKey = "=I";
rightMetricsKey = "=V";
layers = (
{
layerId = "4fe7eba9-be7b-4b88-b040-678285d1e8df";
paths = (
{
closed = 1;
nodes = (
"30 392 OFFCURVE",
"100 330 OFFCURVE",
"181 330 CURVE SMOOTH",
"251 330 OFFCURVE",
"293 376 OFFCURVE",
"293 428 CURVE SMOOTH",
"293 448 OFFCURVE",
"285 466 OFFCURVE",
"274 480 CURVE",
"261 470 OFFCURVE",
"242 484 OFFCURVE",
"242 504 CURVE SMOOTH",
"242 533 OFFCURVE",
"279 556 OFFCURVE",
"325 556 CURVE SMOOTH",
"383 556 OFFCURVE",
"426 518 OFFCURVE",
"426 469 CURVE SMOOTH",
"426 419 OFFCURVE",
"383 374 OFFCURVE",
"323 374 CURVE",
"323 325 LINE SMOOTH",
"323 320 OFFCURVE",
"323 316 OFFCURVE",
"323 311 CURVE",
"328 118 OFFCURVE",
"426 -18 OFFCURVE",
"564 -18 CURVE SMOOTH",
"663 -18 OFFCURVE",
"741 53 OFFCURVE",
"741 147 CURVE SMOOTH",
"741 226 OFFCURVE",
"686 291 OFFCURVE",
"608 291 CURVE SMOOTH",
"572 291 OFFCURVE",
"539 277 OFFCURVE",
"509 249 CURVE",
"518 238 OFFCURVE",
"521 230 OFFCURVE",
"521 223 CURVE SMOOTH",
"521 211 OFFCURVE",
"510 203 OFFCURVE",
"493 203 CURVE SMOOTH",
"452 203 OFFCURVE",
"421 250 OFFCURVE",
"419 318 CURVE",
"557 337 OFFCURVE",
"644 402 OFFCURVE",
"644 499 CURVE SMOOTH",
"644 621 OFFCURVE",
"508 718 OFFCURVE",
"334 718 CURVE SMOOTH",
"160 718 OFFCURVE",
"30 617 OFFCURVE",
"30 487 CURVE SMOOTH"
);
},
{
closed = 1;
nodes = (
"91 220 LINE SMOOTH",
"91 190 OFFCURVE",
"71 170 OFFCURVE",
"41 170 CURVE SMOOTH",
"35 170 LINE",
"35 0 LINE",
"281 0 LINE",
"281 301 LINE",
"91 301 LINE"
);
}
);
width = 751;
}
);
leftKerningGroup = 2nd;
rightKerningGroup = R1_1st;
unicode = 0052;
},
{
glyphname = C;
leftMetricsKey = "=O";
rightMetricsKey = "=O-5";
layers = (
{
anchors = (
{
name = top;
position = "{332, 750}";
}
);
layerId = "4fe7eba9-be7b-4b88-b040-678285d1e8df";
paths = (
{
closed = 1;
nodes = (
"253 389 LINE",
"260 498 OFFCURVE",
"297 556 OFFCURVE",
"363 556 CURVE SMOOTH",
"409 556 OFFCURVE",
"449 528 OFFCURVE",
"449 491 CURVE SMOOTH",
"449 475 OFFCURVE",
"442 464 OFFCURVE",
"434 464 CURVE SMOOTH",
"431 464 OFFCURVE",
"427 465 OFFCURVE",
"424 468 CURVE",
"416 459 OFFCURVE",
"411 445 OFFCURVE",
"411 428 CURVE SMOOTH",
"411 381 OFFCURVE",
"448 336 OFFCURVE",
"512 336 CURVE SMOOTH",
"588 336 OFFCURVE",
"635 398 OFFCURVE",
"635 479 CURVE SMOOTH",
"635 619 OFFCURVE",
"510 718 OFFCURVE",
"335 718 CURVE SMOOTH",
"144 718 OFFCURVE",
"33 600 OFFCURVE",
"21 389 CURVE"
);
},
{
closed = 1;
nodes = (
"20 329 LINE",
"26 92 OFFCURVE",
"127 -18 OFFCURVE",
"340 -18 CURVE SMOOTH",
"522 -18 OFFCURVE",
"628 81 OFFCURVE",
"642 263 CURVE",
"482 263 LINE",
"472 188 OFFCURVE",
"432 145 OFFCURVE",
"370 145 CURVE SMOOTH",
"291 145 OFFCURVE",
"256 199 OFFCURVE",
"252 329 CURVE"
);
}
);
width = 657;
}
);
leftKerningGroup = C_2nd;
rightKerningGroup = C1_1st;
unicode = 0043;
},
{
glyphname = J;
leftMetricsKey = "=V";
rightMetricsKey = "=I-10";
layers = (
{
layerId = "4fe7eba9-be7b-4b88-b040-678285d1e8df";
paths = (
{
closed = 1;
nodes = (
"10 77 OFFCURVE",
"113 -18 OFFCURVE",
"285 -18 CURVE SMOOTH",
"449 -18 OFFCURVE",
"547 67 OFFCURVE",
"547 210 CURVE SMOOTH",
"547 329 LINE",
"347 329 LINE",
"347 244 LINE SMOOTH",
"347 178 OFFCURVE",
"326 145 OFFCURVE",
"285 145 CURVE SMOOTH",
"250 145 OFFCURVE",
"223 168 OFFCURVE",
"223 195 CURVE SMOOTH",
"223 212 OFFCURVE",
"234 226 OFFCURVE",
"246 226 CURVE SMOOTH",
"249 226 OFFCURVE",
"251 225 OFFCURVE",
"254 224 CURVE",
"259 238 OFFCURVE",
"262 251 OFFCURVE",
"262 265 CURVE SMOOTH",
"262 322 OFFCURVE",
"216 374 OFFCURVE",
"149 374 CURVE SMOOTH",
"73 374 OFFCURVE",
"10 307 OFFCURVE",
"10 206 CURVE SMOOTH"
);
},
{
closed = 1;
nodes = (
"191 700 LINE",
"191 530 LINE",
"297 530 LINE SMOOTH",
"327 530 OFFCURVE",
"347 510 OFFCURVE",
"347 480 CURVE SMOOTH",
"347 389 LINE",
"547 389 LINE",
"547 480 LINE SMOOTH",
"547 510 OFFCURVE",
"567 530 OFFCURVE",
"597 530 CURVE SMOOTH",
"603 530 LINE",
"603 700 LINE"
);
}
);
width = 623;
}
);
leftKerningGroup = J_2nd;
rightKerningGroup = J1_1st;
unicode = 004A;
},
{
glyphname = U;
leftMetricsKey = "=I-8";
rightMetricsKey = "=l()";
layers = (
{
components = (
{
name = H;
alignment = -1;
}
);
layerId = "aac8cf01-4416-4e6e-9e8e-b9f0960065ae";
name = "New Layer";
width = 787;
},
{
layerId = "4fe7eba9-be7b-4b88-b040-678285d1e8df";
paths = (
{
closed = 1;
nodes = (
"22 530 LINE",
"28 530 LINE SMOOTH",
"58 530 OFFCURVE",
"78 510 OFFCURVE",
"78 480 CURVE SMOOTH",
"78 259 LINE SMOOTH",
"78 84 OFFCURVE",
"189 -18 OFFCURVE",
"362 -18 CURVE SMOOTH",
"537 -18 OFFCURVE",
"646 87 OFFCURVE",
"646 237 CURVE SMOOTH",
"646 333 OFFCURVE",
"602 392 OFFCURVE",
"532 392 CURVE SMOOTH",
"481 392 OFFCURVE",
"445 360 OFFCURVE",
"445 317 CURVE SMOOTH",
"445 301 OFFCURVE",
"450 286 OFFCURVE",
"461 268 CURVE",
"465 271 OFFCURVE",
"469 273 OFFCURVE",
"474 273 CURVE SMOOTH",
"485 273 OFFCURVE",
"489 262 OFFCURVE",
"489 244 CURVE SMOOTH",
"489 186 OFFCURVE",
"447 145 OFFCURVE",
"385 145 CURVE SMOOTH",
"318 145 OFFCURVE",
"278 194 OFFCURVE",
"278 279 CURVE SMOOTH",
"278 480 LINE SMOOTH",
"278 510 OFFCURVE",
"298 530 OFFCURVE",
"328 530 CURVE SMOOTH",
"334 530 LINE",
"334 700 LINE",
"22 700 LINE"
);
},
{
closed = 1;
nodes = (
"435 530 LINE",
"441 530 LINE SMOOTH",
"471 530 OFFCURVE",
"491 510 OFFCURVE",
"491 480 CURVE SMOOTH",
"491 431 LINE",
"631 431 LINE",
"631 480 LINE SMOOTH",
"631 510 OFFCURVE",
"651 530 OFFCURVE",
"681 530 CURVE SMOOTH",
"687 530 LINE",
"687 700 LINE",
"435 700 LINE"
);
}
);
width = 709;
}
);
leftKerningGroup = U_2nd;
rightKerningGroup = U1_1st;
unicode = 0055;
},
{
glyphname = F;
leftMetricsKey = "=I";
layers = (
{
layerId = "d9c212f0-ef0d-429e-be54-b1b302aac056";
name = aaa;
paths = (
{
closed = 1;
nodes = (
"346 530 LINE SMOOTH",
"316 530 OFFCURVE",
"296 510 OFFCURVE",
"296 480 CURVE SMOOTH",
"296 406 LINE",
"96 406 LINE",
"96 480 LINE SMOOTH",
"96 510 OFFCURVE",
"76 530 OFFCURVE",
"46 530 CURVE SMOOTH",
"40 530 LINE",
"40 700 LINE",
"352 700 LINE",
"352 530 LINE"
);
},
{
closed = 1;
nodes = (
"539 480 LINE SMOOTH",
"539 510 OFFCURVE",
"519 530 OFFCURVE",
"489 530 CURVE SMOOTH",
"331 530 LINE",
"331 700 LINE",
"659 700 LINE",
"659 455 LINE",
"539 455 LINE"
);
},
{
closed = 1;
nodes = (
"267 193 OFFCURVE",
"279 187 OFFCURVE",
"290 187 CURVE SMOOTH",
"302 187 OFFCURVE",
"313 193 OFFCURVE",
"313 213 CURVE",
"374 213 OFFCURVE",
"418 177 OFFCURVE",
"418 114 CURVE SMOOTH",
"418 19 OFFCURVE",
"335 -18 OFFCURVE",
"254 -18 CURVE SMOOTH",
"153 -18 OFFCURVE",
"59 40 OFFCURVE",
"59 149 CURVE SMOOTH",
"59 358 OFFCURVE",
"322 397 OFFCURVE",
"539 397 CURVE",
"539 249 LINE",
"416 249 OFFCURVE",
"345 247 OFFCURVE",
"307 240 CURVE SMOOTH",
"278 235 OFFCURVE",
"267 227 OFFCURVE",
"267 216 CURVE SMOOTH"
);
}
);
width = 699;
},
{
guideLines = (
{
angle = 107.85;
position = "{394, 260}";
showMeasurement = 1;
}
);
layerId = "4fe7eba9-be7b-4b88-b040-678285d1e8df";
paths = (
{
closed = 1;
nodes = (
"342 700 LINE",
"342 530 LINE",
"336 530 LINE SMOOTH",
"306 530 OFFCURVE",
"286 510 OFFCURVE",
"286 480 CURVE SMOOTH",
"286 324 LINE",
"310 396 OFFCURVE",
"374 433 OFFCURVE",
"448 433 CURVE SMOOTH",
"541 433 OFFCURVE",
"614 364 OFFCURVE",
"613 278 CURVE",
"613 212 OFFCURVE",
"569 154 OFFCURVE",
"499 154 CURVE SMOOTH",
"451 154 OFFCURVE",
"419 182 OFFCURVE",
"401 239 CURVE",
"413 242 OFFCURVE",
"421 253 OFFCURVE",
"421 266 CURVE SMOOTH",
"421 287 OFFCURVE",
"399 303 OFFCURVE",
"370 303 CURVE SMOOTH",
"360 303 OFFCURVE",
"351 301 OFFCURVE",
"342 298 CURVE SMOOTH",
"308 284 OFFCURVE",
"286 248 OFFCURVE",
"286 221 CURVE",
"286 220 LINE",
"286 190 OFFCURVE",
"306 170 OFFCURVE",
"336 170 CURVE SMOOTH",
"342 170 LINE",
"342 0 LINE",
"30 0 LINE",
"30 170 LINE",
"36 170 LINE SMOOTH",
"66 170 OFFCURVE",
"86 190 OFFCURVE",
"86 220 CURVE SMOOTH",
"86 480 LINE SMOOTH",
"86 510 OFFCURVE",
"66 530 OFFCURVE",
"36 530 CURVE SMOOTH",
"30 530 LINE",
"30 700 LINE"
);
},
{
closed = 1;
nodes = (
"423 530 LINE",
"423 700 LINE",
"649 700 LINE",
"649 465 LINE",
"529 465 LINE",
"529 480 LINE SMOOTH",
"529 510 OFFCURVE",
"509 530 OFFCURVE",
"479 530 CURVE SMOOTH"
);
}
);
width = 674;
}
);
leftKerningGroup = F_2nd;
unicode = 0046;
},
{
glyphname = V;
layers = (
{
layerId = "4fe7eba9-be7b-4b88-b040-678285d1e8df";
paths = (
{
closed = 1;
nodes = (
"10 700 LINE",
"10 530 LINE",
"36 530 LINE SMOOTH",
"66 530 OFFCURVE",
"91 511 OFFCURVE",
"98 482 CURVE SMOOTH",
"165 218 LINE SMOOTH",
"172 189 OFFCURVE",
"157 170 OFFCURVE",
"127 170 CURVE SMOOTH",
"121 170 LINE",
"121 0 LINE",
"604 0 LINE",
"604 170 LINE",
"598 170 LINE SMOOTH",
"568 170 OFFCURVE",
"553 189 OFFCURVE",
"561 218 CURVE SMOOTH",
"588 322 LINE",
"408 322 LINE",
"378 209 LINE",
"310 481 LINE SMOOTH",
"303 510 OFFCURVE",
"318 530 OFFCURVE",
"348 530 CURVE SMOOTH",
"354 530 LINE",
"354 700 LINE"
);
},
{
closed = 1;
nodes = (
"397 544 OFFCURVE",
"437 510 OFFCURVE",
"492 510 CURVE",
"492 526 OFFCURVE",
"501 536 OFFCURVE",
"515 536 CURVE SMOOTH",
"529 536 OFFCURVE",
"538 526 OFFCURVE",
"538 510 CURVE SMOOTH",
"538 478 OFFCURVE",
"502 448 OFFCURVE",
"441 448 CURVE",
"419 364 LINE",
"630 364 OFFCURVE",
"726 448 OFFCURVE",
"726 563 CURVE SMOOTH",
"726 667 OFFCURVE",
"647 718 OFFCURVE",
"554 718 CURVE SMOOTH",
"471 718 OFFCURVE",
"397 678 OFFCURVE",
"397 601 CURVE SMOOTH"
);
}
);
width = 736;
}
);
unicode = 0056;
},
{
glyphname = D;
leftMetricsKey = "=I";
rightMetricsKey = "=O";
layers = (
{
components = (
{
name = C;
alignment = -1;
}
);
layerId = "e352a55f-41ce-4ecf-bcc2-3e6399d2b45f";
name = versja2;
width = 751;
},
{
guideLines = (
{
position = "{0, 350}";
},
{
position = "{0, 350}";
}
);
layerId = "4fe7eba9-be7b-4b88-b040-678285d1e8df";
paths = (
{
closed = 1;
nodes = (
"356 -18 OFFCURVE",
"286 59 OFFCURVE",
"274 141 CURVE",
"274 146 OFFCURVE",
"274 211 OFFCURVE",
"274 216 CURVE",
"278 222 OFFCURVE",
"277 264 OFFCURVE",
"286 271 CURVE",
"286 205 OFFCURVE",
"339 145 OFFCURVE",
"398 145 CURVE SMOOTH",
"466 145 OFFCURVE",
"504 221 OFFCURVE",
"504 379 CURVE SMOOTH",
"504 493 OFFCURVE",
"484 556 OFFCURVE",
"444 556 CURVE SMOOTH",
"433 556 OFFCURVE",
"427 551 OFFCURVE",
"427 542 CURVE SMOOTH",
"427 538 OFFCURVE",
"428 534 OFFCURVE",
"431 530 CURVE",
"419 522 OFFCURVE",
"405 518 OFFCURVE",
"391 518 CURVE SMOOTH",
"355 518 OFFCURVE",
"319 542 OFFCURVE",
"319 596 CURVE SMOOTH",
"319 670 OFFCURVE",
"388 718 OFFCURVE",
"483 718 CURVE SMOOTH",
"631 718 OFFCURVE",
"731 600 OFFCURVE",
"731 368 CURVE SMOOTH",
"731 126 OFFCURVE",
"623 -18 OFFCURVE",
"469 -18 CURVE SMOOTH"
);
},
{
closed = 1;
nodes = (
"30 0 LINE",
"30 170 LINE",
"36 170 LINE SMOOTH",
"66 170 OFFCURVE",
"86 190 OFFCURVE",
"86 220 CURVE SMOOTH",
"86 480 LINE SMOOTH",
"86 510 OFFCURVE",
"66 530 OFFCURVE",
"36 530 CURVE SMOOTH",
"30 530 LINE",
"30 700 LINE",
"286 700 LINE",
"286 0 LINE"
);
}
);
width = 751;
}
);
leftKerningGroup = D_2nd;
rightKerningGroup = D1_1st;
unicode = 0044;
},
{
glyphname = P;
leftMetricsKey = "=I";
rightMetricsKey = "=V";
layers = (
{
guideLines = (
{
position = "{0, 350}";
}
);
layerId = "4fe7eba9-be7b-4b88-b040-678285d1e8df";
paths = (
{
closed = 1;
nodes = (
"371 222 OFFCURVE",
"306 254 OFFCURVE",
"274 321 CURVE",
"274 326 OFFCURVE",
"274 391 OFFCURVE",
"274 396 CURVE",
"278 402 OFFCURVE",
"281 424 OFFCURVE",
"286 431 CURVE",
"286 388 OFFCURVE",
"323 360 OFFCURVE",
"368 360 CURVE SMOOTH",
"430 360 OFFCURVE",
"467 415 OFFCURVE",
"467 474 CURVE SMOOTH",
"467 516 OFFCURVE",
"449 534 OFFCURVE",
"425 534 CURVE SMOOTH",
"408 534 OFFCURVE",
"395 525 OFFCURVE",
"389 503 CURVE",
"345 516 OFFCURVE",
"322 554 OFFCURVE",
"322 595 CURVE SMOOTH",
"322 668 OFFCURVE",
"395 718 OFFCURVE",
"482 718 CURVE SMOOTH",
"593 718 OFFCURVE",
"694 636 OFFCURVE",
"694 487 CURVE SMOOTH",
"694 333 OFFCURVE",
"585 222 OFFCURVE",
"446 222 CURVE SMOOTH"
);
},
{
closed = 1;
nodes = (
"30 0 LINE",
"30 170 LINE",
"36 170 LINE SMOOTH",
"66 170 OFFCURVE",
"86 190 OFFCURVE",
"86 220 CURVE SMOOTH",
"86 480 LINE SMOOTH",
"86 510 OFFCURVE",
"66 530 OFFCURVE",
"36 530 CURVE SMOOTH",
"30 530 LINE",
"30 700 LINE",
"286 700 LINE",
"286 220 LINE SMOOTH",
"286 190 OFFCURVE",
"306 170 OFFCURVE",
"336 170 CURVE SMOOTH",
"342 170 LINE",
"342 0 LINE"
);
}
);
width = 704;
}
);
leftKerningGroup = F_2nd;
unicode = 0050;
},
{
glyphname = Y;
leftMetricsKey = "=V";
rightMetricsKey = "=V";
layers = (
{
layerId = "4fe7eba9-be7b-4b88-b040-678285d1e8df";
paths = (
{
closed = 1;
nodes = (
"239 350 OFFCURVE",
"275 285 OFFCURVE",
"275 233 CURVE SMOOTH",
"275 223 OFFCURVE",
"274 216 OFFCURVE",
"270 208 CURVE",
"268 209 OFFCURVE",
"265 210 OFFCURVE",
"262 210 CURVE SMOOTH",
"249 210 OFFCURVE",
"238 196 OFFCURVE",
"238 179 CURVE SMOOTH",
"238 158 OFFCURVE",
"255 145 OFFCURVE",
"273 145 CURVE SMOOTH",
"293 145 OFFCURVE",
"311 160 OFFCURVE",
"326 187 CURVE SMOOTH",
"481 474 LINE SMOOTH",
"502 513 OFFCURVE",
"509 527 OFFCURVE",
"509 538 CURVE SMOOTH",
"509 548 OFFCURVE",
"502 554 OFFCURVE",
"497 554 CURVE SMOOTH",
"490 554 OFFCURVE",
"486 551 OFFCURVE",
"481 546 CURVE",
"468 559 OFFCURVE",
"455 580 OFFCURVE",
"455 612 CURVE SMOOTH",
"455 674 OFFCURVE",
"506 718 OFFCURVE",
"576 718 CURVE SMOOTH",
"649 718 OFFCURVE",
"704 670 OFFCURVE",
"704 593 CURVE SMOOTH",
"704 557 OFFCURVE",
"692 515 OFFCURVE",
"663 462 CURVE SMOOTH",
"481 133 LINE SMOOTH",
"424 29 OFFCURVE",
"353 -18 OFFCURVE",
"253 -18 CURVE SMOOTH",
"84 -18 OFFCURVE",
"10 73 OFFCURVE",
"10 182 CURVE SMOOTH",
"10 285 OFFCURVE",
"77 350 OFFCURVE",
"158 350 CURVE SMOOTH"
);
},
{
closed = 1;
nodes = (
"413 700 LINE",
"413 530 LINE",
"397 530 LINE SMOOTH",
"367 530 OFFCURVE",
"359 514 OFFCURVE",
"378 491 CURVE SMOOTH",
"410 451 LINE",
"317 282 LINE",
"145 506 LINE SMOOTH",
"134 520 OFFCURVE",
"115 530 OFFCURVE",
"97 530 CURVE SMOOTH",
"81 530 LINE",
"81 700 LINE"
);
}
);
width = 714;
}
);
leftKerningGroup = Y_2nd;
rightKerningGroup = Y1_1st;
unicode = 0059;
},
{
glyphname = B;
leftMetricsKey = "=I";
rightMetricsKey = "=O";
layers = (
{
layerId = "4fe7eba9-be7b-4b88-b040-678285d1e8df";
paths = (
{
closed = 1;
nodes = (
"30 392 OFFCURVE",
"100 330 OFFCURVE",
"181 330 CURVE SMOOTH",
"251 330 OFFCURVE",
"293 376 OFFCURVE",
"293 426 CURVE SMOOTH",
"293 448 OFFCURVE",
"285 466 OFFCURVE",
"274 480 CURVE",
"271 478 OFFCURVE",
"268 477 OFFCURVE",
"264 477 CURVE SMOOTH",
"253 477 OFFCURVE",
"242 489 OFFCURVE",
"242 504 CURVE SMOOTH",
"242 533 OFFCURVE",
"281 556 OFFCURVE",
"331 556 CURVE SMOOTH",
"391 556 OFFCURVE",
"436 524 OFFCURVE",
"436 479 CURVE SMOOTH",
"436 435 OFFCURVE",
"394 394 OFFCURVE",
"334 394 CURVE",
"334 351 LINE",
"334 327 LINE",
"426 327 OFFCURVE",
"471 301 OFFCURVE",
"471 250 CURVE SMOOTH",
"471 202 OFFCURVE",
"431 175 OFFCURVE",
"344 171 CURVE",
"344 0 LINE",
"572 3 OFFCURVE",
"699 63 OFFCURVE",
"699 190 CURVE SMOOTH",
"699 287 OFFCURVE",
"633 348 OFFCURVE",
"514 376 CURVE",
"592 403 OFFCURVE",
"634 451 OFFCURVE",
"634 514 CURVE SMOOTH",
"634 628 OFFCURVE",
"500 718 OFFCURVE",
"329 718 CURVE SMOOTH",
"158 718 OFFCURVE",
"30 617 OFFCURVE",
"30 488 CURVE SMOOTH"
);
},
{
closed = 1;
nodes = (
"88 220 LINE SMOOTH",
"88 190 OFFCURVE",
"68 170 OFFCURVE",
"38 170 CURVE SMOOTH",
"32 170 LINE",
"32 0 LINE",
"288 0 LINE",
"288 295 LINE",
"88 295 LINE"
);
}
);
width = 719;
}
);
unicode = 0042;
},
{
glyphname = Z;
leftMetricsKey = "=I-5";
rightMetricsKey = "=I-5";
layers = (
{
guideLines = (
{
angle = 41.38;
position = "{113, 294}";
showMeasurement = 1;
},
{
angle = 41.38;
position = "{113, 37}";
showMeasurement = 1;
}
);
layerId = "4fe7eba9-be7b-4b88-b040-678285d1e8df";
paths = (
{
closed = 1;
nodes = (
"25 191 OFFCURVE",
"53 241 OFFCURVE",
"99 282 CURVE SMOOTH",
"361 512 LINE SMOOTH",
"368 518 OFFCURVE",
"374 529 OFFCURVE",
"374 536 CURVE SMOOTH",
"374 549 OFFCURVE",
"365 558 OFFCURVE",
"353 558 CURVE SMOOTH",
"350 558 OFFCURVE",
"347 557 OFFCURVE",
"343 556 CURVE",
"338 572 OFFCURVE",
"336 586 OFFCURVE",
"336 601 CURVE SMOOTH",
"336 670 OFFCURVE",
"393 718 OFFCURVE",
"476 718 CURVE SMOOTH",
"562 718 OFFCURVE",
"620 659 OFFCURVE",
"620 574 CURVE SMOOTH",
"620 515 OFFCURVE",
"592 459 OFFCURVE",
"550 422 CURVE SMOOTH",
"282 186 LINE SMOOTH",
"275 180 OFFCURVE",
"271 172 OFFCURVE",
"271 164 CURVE SMOOTH",
"271 150 OFFCURVE",
"281 144 OFFCURVE",
"293 144 CURVE SMOOTH",
"296 144 OFFCURVE",
"299 144 OFFCURVE",
"302 145 CURVE",
"307 129 OFFCURVE",
"309 114 OFFCURVE",
"309 100 CURVE SMOOTH",
"309 30 OFFCURVE",
"254 -18 OFFCURVE",
"179 -18 CURVE SMOOTH",
"93 -18 OFFCURVE",
"25 51 OFFCURVE",
"25 136 CURVE SMOOTH"
);
},
{
closed = 1;
nodes = (
"223 530 LINE SMOOTH",
"193 530 OFFCURVE",
"173 510 OFFCURVE",
"173 480 CURVE SMOOTH",
"173 465 LINE",
"53 465 LINE",
"53 700 LINE",
"279 700 LINE",
"279 530 LINE"
);
},
{
closed = 1;
nodes = (
"447 170 LINE SMOOTH",
"477 170 OFFCURVE",
"497 190 OFFCURVE",
"497 220 CURVE SMOOTH",
"497 235 LINE",
"617 235 LINE",
"617 0 LINE",
"380 0 LINE",
"380 170 LINE"
);
}
);
width = 645;
}
);
leftKerningGroup = Z_2nd;
rightKerningGroup = Z1_1st;
unicode = 005A;
},
{
glyphname = G;
leftMetricsKey = "=O";
rightMetricsKey = "=O+10";
layers = (
{
layerId = "4fe7eba9-be7b-4b88-b040-678285d1e8df";
paths = (
{
closed = 1;
nodes = (
"449 161 OFFCURVE",
"411 145 OFFCURVE",
"366 145 CURVE SMOOTH",
"311 145 OFFCURVE",
"266 170 OFFCURVE",
"266 213 CURVE SMOOTH",
"266 234 OFFCURVE",
"277 248 OFFCURVE",
"292 248 CURVE SMOOTH",
"296 248 OFFCURVE",
"299 247 OFFCURVE",
"304 244 CURVE",
"313 254 OFFCURVE",
"320 271 OFFCURVE",
"320 293 CURVE SMOOTH",
"320 342 OFFCURVE",
"286 406 OFFCURVE",
"194 406 CURVE SMOOTH",
"85 406 OFFCURVE",
"20 316 OFFCURVE",
"20 218 CURVE SMOOTH",
"20 86 OFFCURVE",
"138 -18 OFFCURVE",
"276 -18 CURVE SMOOTH",
"369 -18 OFFCURVE",
"468 22 OFFCURVE",
"505 122 CURVE",
"505 0 LINE",
"665 0 LINE",
"665 313 LINE",
"386 313 LINE",
"386 229 LINE",
"449 229 LINE SMOOTH",
"480 229 OFFCURVE",
"493 207 OFFCURVE",
"473 186 CURVE SMOOTH"
);
},
{
closed = 1;
nodes = (
"265 444 LINE",
"270 500 OFFCURVE",
"310 555 OFFCURVE",
"378 555 CURVE SMOOTH",
"427 555 OFFCURVE",
"463 526 OFFCURVE",
"463 493 CURVE SMOOTH",
"463 478 OFFCURVE",
"455 469 OFFCURVE",
"441 469 CURVE",
"441 394 OFFCURVE",
"479 351 OFFCURVE",
"545 351 CURVE SMOOTH",
"614 351 OFFCURVE",
"654 398 OFFCURVE",
"654 477 CURVE SMOOTH",
"654 619 OFFCURVE",
"511 718 OFFCURVE",
"352 718 CURVE SMOOTH",
"145 718 OFFCURVE",
"44 583 OFFCURVE",
"43 444 CURVE"
);
}
);
width = 695;
}
);
leftKerningGroup = G_2nd;
rightKerningGroup = G1_1st;
unicode = 0047;
},
{
glyphname = X;
leftMetricsKey = "=V";
rightMetricsKey = "=V";
layers = (
{
guideLines = (
{
angle = 119.92;
position = "{592, 170}";
},
{
angle = 90;
position = "{352, 0}";
},
{
angle = 119.92;
position = "{337, 170}";
}
);
layerId = "4fe7eba9-be7b-4b88-b040-678285d1e8df";
paths = (
{
closed = 1;
nodes = (
"238 156 OFFCURVE",
"260 140 OFFCURVE",
"278 156 CURVE",
"317 96 OFFCURVE",
"286 -18 OFFCURVE",
"162 -18 CURVE SMOOTH",
"72 -18 OFFCURVE",
"10 42 OFFCURVE",
"10 120 CURVE SMOOTH",
"10 190 OFFCURVE",
"59 252 OFFCURVE",
"197 333 CURVE",
"264 217 LINE",
"246 203 OFFCURVE",
"238 190 OFFCURVE",
"238 177 CURVE SMOOTH"
);
},
{
closed = 1;
nodes = (
"474 556 OFFCURVE",
"453 570 OFFCURVE",
"436 556 CURVE",
"400 612 OFFCURVE",
"439 718 OFFCURVE",
"549 718 CURVE SMOOTH",
"629 718 OFFCURVE",
"687 662 OFFCURVE",
"687 589 CURVE SMOOTH",
"687 524 OFFCURVE",
"641 466 OFFCURVE",
"512 390 CURVE",
"449 499 LINE",
"466 512 OFFCURVE",
"474 524 OFFCURVE",
"474 536 CURVE SMOOTH"
);
},
{
closed = 1;
nodes = (
"155 487 LINE SMOOTH",
"140 513 OFFCURVE",
"110 530 OFFCURVE",
"80 530 CURVE SMOOTH",
"45 530 LINE",
"45 700 LINE",
"287 700 LINE",
"567 213 LINE SMOOTH",
"582 187 OFFCURVE",
"612 170 OFFCURVE",
"642 170 CURVE SMOOTH",
"668 170 LINE",
"669 0 LINE",
"435 0 LINE"
);
}
);
width = 697;
}
);
unicode = 0058;
},
{
glyphname = question;
leftMetricsKey = "=V";
rightMetricsKey = "=V";
layers = (
{
layerId = "4fe7eba9-be7b-4b88-b040-678285d1e8df";
paths = (
{
closed = 1;
nodes = (
"128 718 OFFCURVE",
"8 613 OFFCURVE",
"10 489 CURVE SMOOTH",
"11 407 OFFCURVE",
"66 348 OFFCURVE",
"140 348 CURVE SMOOTH",
"206 348 OFFCURVE",
"247 396 OFFCURVE",
"247 474 CURVE",
"228 474 OFFCURVE",
"218 491 OFFCURVE",
"218 505 CURVE SMOOTH",
"218 533 OFFCURVE",
"252 555 OFFCURVE",
"296 555 CURVE SMOOTH",
"351 555 OFFCURVE",
"384 522 OFFCURVE",
"384 465 CURVE SMOOTH",
"384 403 OFFCURVE",
"346 352 OFFCURVE",
"280 352 CURVE",
"280 278 LINE",
"492 278 OFFCURVE",
"611 351 OFFCURVE",
"611 483 CURVE SMOOTH",
"611 617 OFFCURVE",
"487 718 OFFCURVE",
"309 718 CURVE SMOOTH"
);
},
{
closed = 1;
nodes = (
"179.049 30 OFFCURVE",
"231.049 -18 OFFCURVE",
"309.049 -18 CURVE SMOOTH",
"386.049 -18 OFFCURVE",
"438.049 30 OFFCURVE",
"438.049 102 CURVE SMOOTH",
"438.049 173 OFFCURVE",
"386.049 221 OFFCURVE",
"309.049 221 CURVE SMOOTH",
"231.049 221 OFFCURVE",
"179.049 173 OFFCURVE",
"179.049 102 CURVE SMOOTH"
);
}
);
width = 621;
}
);
unicode = 003F;
},
{
glyphname = ampersand;
layers = (
{
layerId = "4fe7eba9-be7b-4b88-b040-678285d1e8df";
paths = (
{
closed = 1;
nodes = (
"171 625 OFFCURVE",
"271 718 OFFCURVE",
"413 717 CURVE SMOOTH",
"543 717 OFFCURVE",
"635 639 OFFCURVE",
"636 531 CURVE SMOOTH",
"637 452 OFFCURVE",
"589 392 OFFCURVE",
"523 392 CURVE SMOOTH",
"472 392 OFFCURVE",
"429 429 OFFCURVE",
"429 469 CURVE SMOOTH",
"429 483 OFFCURVE",
"434 494 OFFCURVE",
"439 505 CURVE",
"442 502 OFFCURVE",
"445 501 OFFCURVE",
"448 501 CURVE SMOOTH",
"457 501 OFFCURVE",
"466 514 OFFCURVE",
"466 525 CURVE SMOOTH",
"466 542 OFFCURVE",
"443 562 OFFCURVE",
"415 562 CURVE SMOOTH",
"387 562 OFFCURVE",
"358 541 OFFCURVE",
"358 498 CURVE SMOOTH",
"358 473 OFFCURVE",
"368 447 OFFCURVE",
"423 386 CURVE SMOOTH",
"590 202 LINE SMOOTH",
"627 161 OFFCURVE",
"650 145 OFFCURVE",
"675 145 CURVE SMOOTH",
"695 145 OFFCURVE",
"708 155 OFFCURVE",
"708 169 CURVE SMOOTH",
"708 183 OFFCURVE",
"698 193 OFFCURVE",
"690 196 CURVE",
"699 223 OFFCURVE",
"730 257 OFFCURVE",
"779 257 CURVE SMOOTH",
"837 256 OFFCURVE",
"877 208 OFFCURVE",
"877 142 CURVE SMOOTH",
"878 49 OFFCURVE",
"798 -18 OFFCURVE",
"685 -18 CURVE SMOOTH",
"588 -18 OFFCURVE",
"528 7 OFFCURVE",
"464 78 CURVE SMOOTH",
"260 302 LINE SMOOTH",
"196 372 OFFCURVE",
"173 423 OFFCURVE",
"172 488 CURVE SMOOTH"
);
},
{
closed = 1;
nodes = (
"784 321 LINE SMOOTH",
"754 321 OFFCURVE",
"719 307 OFFCURVE",
"697 287 CURVE SMOOTH",
"636 231 LINE",
"555 320 LINE",
"673 431 LINE",
"814 431 LINE",
"814 321 LINE"
);
},
{
closed = 1;
nodes = (
"244 241 LINE",
"212 212 OFFCURVE",
"195 187 OFFCURVE",
"195 164 CURVE SMOOTH",
"195 139 OFFCURVE",
"216 122 OFFCURVE",
"248 122 CURVE SMOOTH",
"274 122 OFFCURVE",
"299 133 OFFCURVE",
"322 155 CURVE",
"402 67 LINE",
"362 30 OFFCURVE",
"291 -18 OFFCURVE",
"202 -18 CURVE SMOOTH",
"91 -18 OFFCURVE",
"10 57 OFFCURVE",
"10 158 CURVE SMOOTH",
"10 223 OFFCURVE",
"44 290 OFFCURVE",
"128 368 CURVE"
);
}
);
width = 909;
}
);
unicode = 0026;
},
{
glyphname = A;
leftMetricsKey = "=V";
rightMetricsKey = "=V";
layers = (
{
layerId = "4fe7eba9-be7b-4b88-b040-678285d1e8df";
paths = (
{
closed = 1;
nodes = (
"153 530 LINE SMOOTH",
"183 530 OFFCURVE",
"198 511 OFFCURVE",
"190 482 CURVE SMOOTH",
"163 378 LINE",
"343 378 LINE",
"373 491 LINE",
"441 219 LINE SMOOTH",
"448 190 OFFCURVE",
"433 170 OFFCURVE",
"403 170 CURVE SMOOTH",
"397 170 LINE",
"397 0 LINE",
"741 0 LINE",
"741 170 LINE",
"715 170 LINE SMOOTH",
"685 170 OFFCURVE",
"660 189 OFFCURVE",
"653 218 CURVE SMOOTH",
"586 482 LINE SMOOTH",
"579 511 OFFCURVE",
"594 530 OFFCURVE",
"624 530 CURVE SMOOTH",
"630 530 LINE",
"630 700 LINE",
"137 700 LINE",
"137 530 LINE"
);
},
{
closed = 1;
nodes = (
"10 44 OFFCURVE",
"91 -18 OFFCURVE",
"191 -18 CURVE SMOOTH",
"273 -18 OFFCURVE",
"349 24 OFFCURVE",
"349 101 CURVE SMOOTH",
"349 164 OFFCURVE",
"305 200 OFFCURVE",
"244 200 CURVE",
"244 180 OFFCURVE",
"233 174 OFFCURVE",
"223 174 CURVE SMOOTH",
"210 174 OFFCURVE",
"198 183 OFFCURVE",
"198 201 CURVE SMOOTH",
"198 215 OFFCURVE",
"205 252 OFFCURVE",
"369 252 CURVE",
"369 336 LINE",
"138 336 OFFCURVE",
"10 267 OFFCURVE",
"10 143 CURVE SMOOTH"
);
}
);
width = 751;
}
);
leftKerningGroup = A_2nd;
rightKerningGroup = A1_1st;
unicode = 0041;
},
{
glyphname = period;
layers = (
{
layerId = "4fe7eba9-be7b-4b88-b040-678285d1e8df";
paths = (
{
closed = 1;
nodes = (
"25 173 OFFCURVE",
"77 221 OFFCURVE",
"155 221 CURVE SMOOTH",
"232 221 OFFCURVE",
"284 173 OFFCURVE",
"284 102 CURVE SMOOTH",
"284 30 OFFCURVE",
"232 -18 OFFCURVE",
"155 -18 CURVE SMOOTH",
"77 -18 OFFCURVE",
"25 30 OFFCURVE",
"25 102 CURVE SMOOTH"
);
}
);
width = 309;
}
);
leftKerningGroup = period_2nd;
rightKerningGroup = period1_1st;
unicode = 002E;
},
{
glyphname = acute;
layers = (
{
components = (
{
name = K;
alignment = -1;
}
);
guideLines = (
{
angle = 58.22;
position = "{390, 170}";
},
{
angle = 58.22;
position = "{202, 170}";
}
);
layerId = "a0955ac9-5dee-44f4-ae17-c42ddc013fec";
name = altern;
width = 797;
},
{
guideLines = (
{
angle = 58.22;
position = "{1954, 265}";
}
);
layerId = "4fe7eba9-be7b-4b88-b040-678285d1e8df";
paths = (
{
closed = 1;
nodes = (
"61 750 LINE",
"267 750 OFFCURVE",
"381 820 OFFCURVE",
"379 946 CURVE SMOOTH",
"378 1030 OFFCURVE",
"327 1085 OFFCURVE",
"253 1085 CURVE SMOOTH",
"187 1085 OFFCURVE",
"134 1041 OFFCURVE",
"134 988 CURVE SMOOTH",
"134 969 OFFCURVE",
"142 951 OFFCURVE",
"156 938 CURVE",
"161 943 OFFCURVE",
"166 945 OFFCURVE",
"172 945 CURVE SMOOTH",
"189 945 OFFCURVE",
"202 928 OFFCURVE",
"202 905 CURVE SMOOTH",
"202 858 OFFCURVE",
"145 825 OFFCURVE",
"61 825 CURVE"
);
}
);
width = 417;
}
);
unicode = 00B4;
},
{
glyphname = W;
leftMetricsKey = "=I-8";
rightMetricsKey = "=I-8";
layers = (
{
layerId = "4fe7eba9-be7b-4b88-b040-678285d1e8df";
paths = (
{
closed = 1;
nodes = (
"22 700 LINE",
"22 530 LINE",
"28 530 LINE SMOOTH",
"58 530 OFFCURVE",
"81 510 OFFCURVE",
"84 480 CURVE SMOOTH",
"112 220 LINE SMOOTH",
"115 190 OFFCURVE",
"98 170 OFFCURVE",
"68 170 CURVE SMOOTH",
"62 170 LINE",
"62 0 LINE",
"366 0 LINE",
"527 0 LINE",
"527 170 LINE",
"522 170 LINE SMOOTH",
"492 170 OFFCURVE",
"482 187 OFFCURVE",
"498 213 CURVE SMOOTH",
"641 443 LINE SMOOTH",
"657 470 OFFCURVE",
"667 500 OFFCURVE",
"669 530 CURVE",
"669 540 LINE SMOOTH",
"669 613 OFFCURVE",
"618 664 OFFCURVE",
"549 664 CURVE SMOOTH",
"481 664 OFFCURVE",
"431 615 OFFCURVE",
"431 559 CURVE SMOOTH",
"431 549 OFFCURVE",
"432 540 OFFCURVE",
"435 530 CURVE SMOOTH",
"438 520 OFFCURVE",
"443 510 OFFCURVE",
"449 501 CURVE",
"454 505 OFFCURVE",
"457 506 OFFCURVE",
"461 506 CURVE SMOOTH",
"470 506 OFFCURVE",
"477 500 OFFCURVE",
"477 490 CURVE SMOOTH",
"477 484 OFFCURVE",
"475 478 OFFCURVE",
"472 472 CURVE SMOOTH",
"320 207 LINE",
"290 480 LINE SMOOTH",
"287 510 OFFCURVE",
"304 530 OFFCURVE",
"334 530 CURVE SMOOTH",
"340 530 LINE",
"340 700 LINE"
);
},
{
closed = 1;
nodes = (
"589 266 LINE",
"643 133 LINE SMOOTH",
"686 26 OFFCURVE",
"750 -18 OFFCURVE",
"839 -18 CURVE SMOOTH",
"937 -18 OFFCURVE",
"1004 42 OFFCURVE",
"1004 127 CURVE SMOOTH",
"1004 201 OFFCURVE",
"953 260 OFFCURVE",
"887 260 CURVE SMOOTH",
"866 260 OFFCURVE",
"847 254 OFFCURVE",
"832 245 CURVE",
"833 243 OFFCURVE",
"834 240 OFFCURVE",
"834 237 CURVE SMOOTH",
"834 227 OFFCURVE",
"827 220 OFFCURVE",
"815 220 CURVE SMOOTH",
"803 220 OFFCURVE",
"795 226 OFFCURVE",
"789 240 CURVE SMOOTH",
"699 450 LINE"
);
},
{
closed = 1;
nodes = (
"770 530 LINE",
"776 530 LINE SMOOTH",
"806 530 OFFCURVE",
"824 510 OFFCURVE",
"820 480 CURVE SMOOTH",
"801 323 LINE",
"961 323 LINE",
"980 480 LINE SMOOTH",
"984 510 OFFCURVE",
"1006 530 OFFCURVE",
"1036 530 CURVE SMOOTH",
"1042 530 LINE",
"1042 700 LINE",
"770 700 LINE"
);
}
);
width = 1064;
}
);
leftKerningGroup = W_2nd;
rightKerningGroup = W1_1st;
unicode = 0057;
},
{
glyphname = Q;
leftMetricsKey = "=O";
rightMetricsKey = "=O-86";
layers = (
{
components = (
{
name = C;
alignment = -1;
}
);
layerId = "e352a55f-41ce-4ecf-bcc2-3e6399d2b45f";
name = versja2;
width = 661;
},
{
anchors = (
{
name = top;
position = "{368, 750}";
}
);
guideLines = (
{
position = "{0, 149}";
}
);
layerId = "4fe7eba9-be7b-4b88-b040-678285d1e8df";
paths = (
{
closed = 1;
nodes = (
"264 466 LINE",
"274 520 OFFCURVE",
"305 555 OFFCURVE",
"356 555 CURVE SMOOTH",
"398 555 OFFCURVE",
"441 532 OFFCURVE",
"441 484 CURVE SMOOTH",
"441 462 OFFCURVE",
"432 444 OFFCURVE",
"417 444 CURVE SMOOTH",
"411 444 OFFCURVE",
"406 446 OFFCURVE",
"403 449 CURVE",
"387 429 OFFCURVE",
"380 405 OFFCURVE",
"380 380 CURVE SMOOTH",
"380 315 OFFCURVE",
"430 272 OFFCURVE",
"504 272 CURVE SMOOTH",
"596 272 OFFCURVE",
"656 339 OFFCURVE",
"656 441 CURVE SMOOTH",
"656 581 OFFCURVE",
"542 718 OFFCURVE",
"341 718 CURVE SMOOTH",
"165 718 OFFCURVE",
"49 629 OFFCURVE",
"31 466 CURVE"
);
},
{
closed = 1;
nodes = (
"412 234 LINE",
"402 180 OFFCURVE",
"371 145 OFFCURVE",
"320 145 CURVE SMOOTH",
"278 145 OFFCURVE",
"235 168 OFFCURVE",
"235 216 CURVE SMOOTH",
"235 238 OFFCURVE",
"244 256 OFFCURVE",
"259 256 CURVE SMOOTH",
"265 256 OFFCURVE",
"270 254 OFFCURVE",
"273 251 CURVE",
"289 271 OFFCURVE",
"296 295 OFFCURVE",
"296 320 CURVE SMOOTH",
"296 385 OFFCURVE",
"246 428 OFFCURVE",
"172 428 CURVE SMOOTH",
"80 428 OFFCURVE",
"20 361 OFFCURVE",
"20 259 CURVE SMOOTH",
"20 119 OFFCURVE",
"134 -18 OFFCURVE",
"335 -18 CURVE SMOOTH",
"511 -18 OFFCURVE",
"627 71 OFFCURVE",
"645 234 CURVE"
);
},
{
closed = 1;
nodes = (
"295 -54 LINE",
"295 -196 OFFCURVE",
"391 -290 OFFCURVE",
"531 -290 CURVE SMOOTH",
"642 -290 OFFCURVE",
"727 -230 OFFCURVE",
"727 -126 CURVE SMOOTH",
"727 -52 OFFCURVE",
"685 6 OFFCURVE",
"611 6 CURVE SMOOTH",
"551 6 OFFCURVE",
"512 -32 OFFCURVE",
"512 -77 CURVE SMOOTH",
"512 -91 OFFCURVE",
"516 -105 OFFCURVE",
"524 -119 CURVE",
"527 -116 OFFCURVE",
"531 -115 OFFCURVE",
"535 -115 CURVE SMOOTH",
"545 -115 OFFCURVE",
"551 -123 OFFCURVE",
"551 -134 CURVE SMOOTH",
"551 -154 OFFCURVE",
"533 -174 OFFCURVE",
"494 -174 CURVE SMOOTH",
"436 -174 OFFCURVE",
"395 -130 OFFCURVE",
"395 -54 CURVE"
);
}
);
width = 661;
}
);
leftKerningGroup = O_2nd;
unicode = 0051;
},
{
glyphname = bracketleft;
leftMetricsKey = "=I-8";
rightMetricsKey = "=I";
layers = (
{
components = (
{
name = N;
alignment = -1;
}
);
layerId = "aac8cf01-4416-4e6e-9e8e-b9f0960065ae";
name = "New Layer";
width = 744;
},
{
guideLines = (
{
angle = 123.18;
position = "{653, 79}";
showMeasurement = 1;
}
);
layerId = "4fe7eba9-be7b-4b88-b040-678285d1e8df";
paths = (
{
closed = 1;
nodes = (
"272 577 LINE SMOOTH",
"242 577 OFFCURVE",
"222 557 OFFCURVE",
"222 527 CURVE SMOOTH",
"222 311 LINE",
"22 311 LINE",
"22 747 LINE",
"278 747 LINE",
"278 577 LINE"
);
},
{
closed = 1;
nodes = (
"278 140 LINE",
"278 -31 LINE",
"22 -31 LINE",
"22 397 LINE",
"222 397 LINE",
"222 190 LINE SMOOTH",
"222 160 OFFCURVE",
"242 140 OFFCURVE",
"272 140 CURVE SMOOTH"
);
}
);
width = 308;
}
);
unicode = 005B;
},
{
glyphname = at;
leftMetricsKey = "=O";
rightMetricsKey = "=O";
layers = (
{
components = (
{
name = D;
alignment = -1;
}
);
layerId = "e352a55f-41ce-4ecf-bcc2-3e6399d2b45f";
name = versja2;
width = 892;
},
{
guideLines = (
{
position = "{0, 350}";
},
{
position = "{0, 350}";
}
);
layerId = "4fe7eba9-be7b-4b88-b040-678285d1e8df";
paths = (
{
closed = 1;
nodes = (
"523 -63 OFFCURVE",
"596 -25 OFFCURVE",
"596 45 CURVE SMOOTH",
"596 94 OFFCURVE",
"561 130 OFFCURVE",
"515 130 CURVE SMOOTH",
"488 130 OFFCURVE",
"452 117 OFFCURVE",
"441 89 CURVE",
"448 86 OFFCURVE",
"452 81 OFFCURVE",
"452 74 CURVE SMOOTH",
"452 61 OFFCURVE",
"430 53 OFFCURVE",
"397 53 CURVE SMOOTH",
"264 53 OFFCURVE",
"170 184 OFFCURVE",
"170 350 CURVE SMOOTH",
"170 534 OFFCURVE",
"280 649 OFFCURVE",
"456 649 CURVE SMOOTH",
"629 649 OFFCURVE",
"724 538 OFFCURVE",
"724 350 CURVE SMOOTH",
"724 274 OFFCURVE",
"708 227 OFFCURVE",
"669 227 CURVE SMOOTH",
"643 227 OFFCURVE",
"627 247 OFFCURVE",
"627 282 CURVE SMOOTH",
"627 563 LINE",
"505 563 LINE",
"505 503 LINE",
"489 542 OFFCURVE",
"450 574 OFFCURVE",
"394 574 CURVE SMOOTH",
"300 574 OFFCURVE",
"235 486 OFFCURVE",
"235 339 CURVE SMOOTH",
"235 198 OFFCURVE",
"295 126 OFFCURVE",
"386 126 CURVE SMOOTH",
"443 126 OFFCURVE",
"485 155 OFFCURVE",
"485 200 CURVE SMOOTH",
"485 233 OFFCURVE",
"463 248 OFFCURVE",
"441 248 CURVE SMOOTH",
"432 248 OFFCURVE",
"424 245 OFFCURVE",
"417 241 CURVE",
"419 238 OFFCURVE",
"420 236 OFFCURVE",
"420 233 CURVE SMOOTH",
"420 228 OFFCURVE",
"416 225 OFFCURVE",
"409 225 CURVE SMOOTH",
"385 225 OFFCURVE",
"373 263 OFFCURVE",
"373 332 CURVE SMOOTH",
"373 426 OFFCURVE",
"395 474 OFFCURVE",
"437 474 CURVE SMOOTH",
"473 474 OFFCURVE",
"505 438 OFFCURVE",
"505 398 CURVE SMOOTH",
"505 256 LINE SMOOTH",
"505 166 OFFCURVE",
"572 126 OFFCURVE",
"661 126 CURVE SMOOTH",
"795 126 OFFCURVE",
"872 220 OFFCURVE",
"872 367 CURVE SMOOTH",
"872 606 OFFCURVE",
"707 771 OFFCURVE",
"456 771 CURVE SMOOTH",
"197 771 OFFCURVE",
"20 601 OFFCURVE",
"20 351 CURVE SMOOTH",
"20 103 OFFCURVE",
"177 -63 OFFCURVE",
"411 -63 CURVE SMOOTH"
);
}
);
width = 892;
}
);
unicode = 0040;
},
{
glyphname = five;
leftMetricsKey = "=O";
rightMetricsKey = "=O";
layers = (
{
layerId = "4fe7eba9-be7b-4b88-b040-678285d1e8df";
paths = (
{
closed = 1;
nodes = (
"498 -18 OFFCURVE",
"621 74 OFFCURVE",
"621 197 CURVE SMOOTH",
"621 317 OFFCURVE",
"502 383 OFFCURVE",
"290 383 CURVE",
"290 309 LINE",
"351 309 OFFCURVE",
"394 267 OFFCURVE",
"394 215 CURVE SMOOTH",
"394 170 OFFCURVE",
"361 145 OFFCURVE",
"310 145 CURVE SMOOTH",
"262 145 OFFCURVE",
"228 167 OFFCURVE",
"228 195 CURVE SMOOTH",
"228 209 OFFCURVE",
"238 226 OFFCURVE",
"257 226 CURVE",
"257 304 OFFCURVE",
"216 352 OFFCURVE",
"150 352 CURVE SMOOTH",
"76 352 OFFCURVE",
"21 293 OFFCURVE",
"20 211 CURVE SMOOTH",
"18 87 OFFCURVE",
"139 -18 OFFCURVE",
"324 -18 CURVE SMOOTH"
);
},
{
closed = 1;
nodes = (
"244 403 LINE",
"244 551 LINE",
"279 451 OFFCURVE",
"374 413 OFFCURVE",
"439 413 CURVE SMOOTH",
"532 413 OFFCURVE",
"607 491 OFFCURVE",
"606 593 CURVE SMOOTH",
"605 663 OFFCURVE",
"563 718 OFFCURVE",
"485 718 CURVE SMOOTH",
"428 718 OFFCURVE",
"380 683 OFFCURVE",
"380 624 CURVE",
"392 624 OFFCURVE",
"403 607 OFFCURVE",
"403 590 CURVE SMOOTH",
"403 567 OFFCURVE",
"380 550 OFFCURVE",
"353 550 CURVE SMOOTH",
"290 550 OFFCURVE",
"251 641 OFFCURVE",
"244 688 CURVE",
"244 700 LINE",
"84 700 LINE",
"84 403 LINE"
);
}
);
width = 641;
}
);
unicode = 0035;
},
{
glyphname = three;
leftMetricsKey = "=O";
rightMetricsKey = "=O";
layers = (
{
layerId = "4fe7eba9-be7b-4b88-b040-678285d1e8df";
paths = (
{
closed = 1;
nodes = (
"498 -18 OFFCURVE",
"621 74 OFFCURVE",
"621 197 CURVE SMOOTH",
"621 317 OFFCURVE",
"502 383 OFFCURVE",
"290 383 CURVE",
"290 309 LINE",
"351 309 OFFCURVE",
"394 267 OFFCURVE",
"394 215 CURVE SMOOTH",
"394 170 OFFCURVE",
"361 145 OFFCURVE",
"310 145 CURVE SMOOTH",
"262 145 OFFCURVE",
"228 167 OFFCURVE",
"228 195 CURVE SMOOTH",
"228 209 OFFCURVE",
"238 226 OFFCURVE",
"257 226 CURVE",
"257 304 OFFCURVE",
"216 352 OFFCURVE",
"150 352 CURVE SMOOTH",
"76 352 OFFCURVE",
"21 293 OFFCURVE",
"20 211 CURVE SMOOTH",
"18 87 OFFCURVE",
"139 -18 OFFCURVE",
"324 -18 CURVE SMOOTH"
);
},
{
closed = 1;
nodes = (
"64 700 LINE",
"64 451 LINE",
"224 451 LINE",
"224 520 OFFCURVE",
"262 569 OFFCURVE",
"319 569 CURVE SMOOTH",
"353 569 OFFCURVE",
"376 551 OFFCURVE",
"376 528 CURVE SMOOTH",
"376 512 OFFCURVE",
"365 497 OFFCURVE",
"354 497 CURVE",
"354 439 OFFCURVE",
"398 400 OFFCURVE",
"462 400 CURVE SMOOTH",
"542 400 OFFCURVE",
"585 458 OFFCURVE",
"586 533 CURVE SMOOTH",
"587 636 OFFCURVE",
"509 718 OFFCURVE",
"408 718 CURVE SMOOTH",
"348 718 OFFCURVE",
"257 693 OFFCURVE",
"224 596 CURVE",
"224 700 LINE"
);
}
);
width = 641;
}
);
unicode = 0033;
},
{
glyphname = one;
leftMetricsKey = "=V";
rightMetricsKey = "=I";
layers = (
{
layerId = "4fe7eba9-be7b-4b88-b040-678285d1e8df";
paths = (
{
closed = 1;
nodes = (
"88 0 LINE",
"524 0 LINE",
"524 170 LINE",
"478 170 LINE SMOOTH",
"448 170 OFFCURVE",
"428 190 OFFCURVE",
"428 220 CURVE SMOOTH",
"428 406 LINE",
"228 306 LINE",
"228 220 LINE SMOOTH",
"228 190 OFFCURVE",
"208 170 OFFCURVE",
"178 170 CURVE SMOOTH",
"88 170 LINE"
);
},
{
closed = 1;
nodes = (
"356 375 OFFCURVE",
"429 505 OFFCURVE",
"429 700 CURVE",
"309 700 LINE",
"309 597 OFFCURVE",
"276 523 OFFCURVE",
"232 523 CURVE SMOOTH",
"214 523 OFFCURVE",
"202 535 OFFCURVE",
"202 548 CURVE SMOOTH",
"202 558 OFFCURVE",
"208 569 OFFCURVE",
"228 569 CURVE",
"228 630 OFFCURVE",
"192 674 OFFCURVE",
"129 674 CURVE SMOOTH",
"52 674 OFFCURVE",
"10 608 OFFCURVE",
"10 535 CURVE SMOOTH",
"10 447 OFFCURVE",
"72 375 OFFCURVE",
"193 375 CURVE SMOOTH"
);
}
);
width = 554;
}
);
unicode = 0031;
},
{
glyphname = two;
leftMetricsKey = "=V";
rightMetricsKey = "=I";
layers = (
{
layerId = "4fe7eba9-be7b-4b88-b040-678285d1e8df";
paths = (
{
closed = 1;
nodes = (
"424 220 LINE SMOOTH",
"424 190 OFFCURVE",
"404 170 OFFCURVE",
"374 170 CURVE SMOOTH",
"290 170 LINE SMOOTH",
"260 170 OFFCURVE",
"255 184 OFFCURVE",
"277 204 CURVE SMOOTH",
"448 362 LINE",
"218 362 LINE",
"10 170 LINE",
"10 155 LINE",
"10 0 LINE",
"564 0 LINE",
"564 285 LINE",
"424 285 LINE"
);
},
{
closed = 1;
nodes = (
"38 700 LINE",
"38 451 LINE",
"198 451 LINE",
"198 520 OFFCURVE",
"236 569 OFFCURVE",
"293 569 CURVE SMOOTH",
"327 569 OFFCURVE",
"350 551 OFFCURVE",
"350 528 CURVE SMOOTH",
"350 512 OFFCURVE",
"339 497 OFFCURVE",
"328 497 CURVE",
"328 439 OFFCURVE",
"372 400 OFFCURVE",
"436 400 CURVE SMOOTH",
"516 400 OFFCURVE",
"559 458 OFFCURVE",
"560 533 CURVE SMOOTH",
"561 636 OFFCURVE",
"483 718 OFFCURVE",
"382 718 CURVE SMOOTH",
"322 718 OFFCURVE",
"231 693 OFFCURVE",
"198 596 CURVE",
"198 700 LINE"
);
}
);
width = 594;
}
);
unicode = 0032;
},
{
glyphname = four;
leftMetricsKey = "=V";
rightMetricsKey = "=I";
layers = (
{
layerId = "4fe7eba9-be7b-4b88-b040-678285d1e8df";
paths = (
{
closed = 1;
nodes = (
"329 170 LINE SMOOTH",
"359 170 OFFCURVE",
"379 190 OFFCURVE",
"379 220 CURVE SMOOTH",
"379 700 LINE",
"635 700 LINE",
"635 530 LINE",
"629 530 LINE SMOOTH",
"599 530 OFFCURVE",
"579 510 OFFCURVE",
"579 480 CURVE SMOOTH",
"579 220 LINE SMOOTH",
"579 190 OFFCURVE",
"599 170 OFFCURVE",
"629 170 CURVE SMOOTH",
"635 170 LINE",
"635 0 LINE",
"279 0 LINE",
"279 170 LINE"
);
},
{
closed = 1;
nodes = (
"10 247 LINE",
"11 377 LINE",
"109 377 OFFCURVE",
"189 430 OFFCURVE",
"189 491 CURVE SMOOTH",
"189 522 OFFCURVE",
"168 541 OFFCURVE",
"148 541 CURVE SMOOTH",
"133 541 OFFCURVE",
"120 529 OFFCURVE",
"120 517 CURVE",
"60 517 OFFCURVE",
"20 555 OFFCURVE",
"20 612 CURVE SMOOTH",
"20 676 OFFCURVE",
"71 718 OFFCURVE",
"150 719 CURVE SMOOTH",
"255 720 OFFCURVE",
"338 642 OFFCURVE",
"338 538 CURVE SMOOTH",
"338 487 OFFCURVE",
"318 413 OFFCURVE",
"244 377 CURVE",
"319 377 LINE",
"319 247 LINE"
);
}
);
width = 665;
}
);
unicode = 0034;
},
{
glyphname = six;
leftMetricsKey = "=O";
rightMetricsKey = "=O";
layers = (
{
layerId = "4fe7eba9-be7b-4b88-b040-678285d1e8df";
paths = (
{
closed = 1;
nodes = (
"496 -18 OFFCURVE",
"621 76 OFFCURVE",
"621 206 CURVE SMOOTH",
"621 329 OFFCURVE",
"508 393 OFFCURVE",
"290 393 CURVE",
"290 319 LINE",
"352 319 OFFCURVE",
"394 281 OFFCURVE",
"394 225 CURVE SMOOTH",
"394 175 OFFCURVE",
"361 145 OFFCURVE",
"308 145 CURVE SMOOTH",
"263 145 OFFCURVE",
"228 167 OFFCURVE",
"228 195 CURVE SMOOTH",
"228 212 OFFCURVE",
"241 226 OFFCURVE",
"257 226 CURVE",
"257 302 OFFCURVE",
"212 352 OFFCURVE",
"144 352 CURVE SMOOTH",
"71 352 OFFCURVE",
"21 295 OFFCURVE",
"20 211 CURVE SMOOTH",
"18 80 OFFCURVE",
"148 -18 OFFCURVE",
"324 -18 CURVE SMOOTH"
);
},
{
closed = 1;
nodes = (
"291 579 OFFCURVE",
"239 501 OFFCURVE",
"239 403 CURVE",
"39 403 LINE",
"39 591 OFFCURVE",
"164 718 OFFCURVE",
"351 718 CURVE SMOOTH",
"496 718 OFFCURVE",
"600 638 OFFCURVE",
"600 526 CURVE SMOOTH",
"600 457 OFFCURVE",
"560 410 OFFCURVE",
"496 410 CURVE SMOOTH",
"436 410 OFFCURVE",
"395 452 OFFCURVE",
"395 516 CURVE",
"411 516 OFFCURVE",
"420 523 OFFCURVE",
"420 535 CURVE SMOOTH",
"420 558 OFFCURVE",
"390 579 OFFCURVE",
"356 579 CURVE SMOOTH"
);
}
);
width = 641;
}
);
unicode = 0036;
},
{
glyphname = nine;
leftMetricsKey = "=O";
rightMetricsKey = "=O";
layers = (
{
layerId = "4fe7eba9-be7b-4b88-b040-678285d1e8df";
paths = (
{
closed = 1;
nodes = (
"146 718 OFFCURVE",
"20 632 OFFCURVE",
"20 514 CURVE SMOOTH",
"20 397 OFFCURVE",
"142 328 OFFCURVE",
"330 328 CURVE",
"330 398 LINE",
"268 398 OFFCURVE",
"221 436 OFFCURVE",
"221 485 CURVE SMOOTH",
"221 530 OFFCURVE",
"259 563 OFFCURVE",
"313 563 CURVE SMOOTH",
"356 563 OFFCURVE",
"389 542 OFFCURVE",
"389 513 CURVE SMOOTH",
"389 498 OFFCURVE",
"380 486 OFFCURVE",
"362 486 CURVE",
"362 414 OFFCURVE",
"406 366 OFFCURVE",
"471 366 CURVE SMOOTH",
"539 366 OFFCURVE",
"586 420 OFFCURVE",
"587 500 CURVE SMOOTH",
"589 624 OFFCURVE",
"466 718 OFFCURVE",
"302 718 CURVE SMOOTH"
);
},
{
closed = 1;
nodes = (
"347 145 OFFCURVE",
"371 193 OFFCURVE",
"371 287 CURVE",
"371 317 LINE",
"571 317 LINE",
"571 287 LINE",
"571 116 OFFCURVE",
"478 -18 OFFCURVE",
"298 -18 CURVE SMOOTH",
"153 -18 OFFCURVE",
"37 62 OFFCURVE",
"37 178 CURVE SMOOTH",
"37 254 OFFCURVE",
"86 307 OFFCURVE",
"154 307 CURVE SMOOTH",
"214 307 OFFCURVE",
"255 266 OFFCURVE",
"255 194 CURVE",
"239 194 OFFCURVE",
"228 186 OFFCURVE",
"228 174 CURVE SMOOTH",
"228 158 OFFCURVE",
"247 145 OFFCURVE",
"284 145 CURVE SMOOTH"
);
}
);
width = 607;
}
);
unicode = 0039;
},
{
glyphname = eight;
leftMetricsKey = "=O";
rightMetricsKey = "=O";
layers = (
{
layerId = "4fe7eba9-be7b-4b88-b040-678285d1e8df";
paths = (
{
closed = 1;
nodes = (
"498.024 -18 OFFCURVE",
"621.024 78 OFFCURVE",
"621.024 192 CURVE SMOOTH",
"621.024 318 OFFCURVE",
"471.024 365 OFFCURVE",
"288.024 365 CURVE",
"288.024 291 LINE",
"357.024 291 OFFCURVE",
"394.024 252 OFFCURVE",
"394.024 212 CURVE SMOOTH",
"394.024 175 OFFCURVE",
"361.024 145 OFFCURVE",
"308.024 145 CURVE SMOOTH",
"262.024 145 OFFCURVE",
"228.024 167 OFFCURVE",
"228.024 195 CURVE SMOOTH",
"228.024 209 OFFCURVE",
"238.024 226 OFFCURVE",
"257.024 226 CURVE",
"257.024 304 OFFCURVE",
"218.024 352 OFFCURVE",
"144.024 352 CURVE SMOOTH",
"61.024 352 OFFCURVE",
"21.024 293 OFFCURVE",
"20.024 219 CURVE SMOOTH",
"18.024 87 OFFCURVE",
"139.024 -18 OFFCURVE",
"323.024 -18 CURVE SMOOTH"
);
},
{
closed = 1;
nodes = (
"168.539 717.43 OFFCURVE",
"64.494 636.224 OFFCURVE",
"64.494 539.791 CURVE SMOOTH",
"64.494 433.208 OFFCURVE",
"191.379 393.451 OFFCURVE",
"346.178 393.451 CURVE",
"346.178 456.047 LINE",
"287.811 456.047 OFFCURVE",
"256.513 489.037 OFFCURVE",
"256.513 522.873 CURVE SMOOTH",
"256.513 554.172 OFFCURVE",
"284.428 579.549 OFFCURVE",
"329.26 579.549 CURVE SMOOTH",
"368.172 579.549 OFFCURVE",
"396.932 560.939 OFFCURVE",
"396.932 537.254 CURVE SMOOTH",
"396.932 525.411 OFFCURVE",
"388.473 511.031 OFFCURVE",
"372.401 511.031 CURVE",
"372.401 445.051 OFFCURVE",
"405.391 404.447 OFFCURVE",
"467.988 404.447 CURVE SMOOTH",
"538.198 404.447 OFFCURVE",
"572.034 454.356 OFFCURVE",
"572.879 516.952 CURVE SMOOTH",
"574.571 628.611 OFFCURVE",
"472.217 717.43 OFFCURVE",
"316.572 717.43 CURVE SMOOTH"
);
}
);
width = 641;
}
);
unicode = 0038;
},
{
glyphname = seven;
leftMetricsKey = "=V";
rightMetricsKey = "=V";
layers = (
{
layerId = "4fe7eba9-be7b-4b88-b040-678285d1e8df";
paths = (
{
closed = 1;
nodes = (
"170 700 LINE",
"10 700 LINE",
"10 423 LINE",
"170 423 LINE",
"170 551 LINE",
"205 451 OFFCURVE",
"300 413 OFFCURVE",
"365 413 CURVE SMOOTH",
"458 413 OFFCURVE",
"533 491 OFFCURVE",
"532 593 CURVE SMOOTH",
"531 663 OFFCURVE",
"489 718 OFFCURVE",
"411 718 CURVE SMOOTH",
"354 718 OFFCURVE",
"306 683 OFFCURVE",
"306 624 CURVE",
"318 624 OFFCURVE",
"329 607 OFFCURVE",
"329 590 CURVE SMOOTH",
"329 567 OFFCURVE",
"306 550 OFFCURVE",
"279 550 CURVE SMOOTH",
"216 550 OFFCURVE",
"177 641 OFFCURVE",
"170 688 CURVE"
);
},
{
closed = 1;
nodes = (
"66 170 LINE",
"66 0 LINE",
"422 0 LINE",
"422 170 LINE",
"416 170 LINE SMOOTH",
"386 170 OFFCURVE",
"372 189 OFFCURVE",
"381 218 CURVE SMOOTH",
"426 361 LINE",
"233 361 LINE",
"183 217 LINE SMOOTH",
"173 189 OFFCURVE",
"146 170 OFFCURVE",
"116 170 CURVE SMOOTH"
);
}
);
width = 542;
}
);
unicode = 0037;
},
{
glyphname = ogonek;
layers = (
{
layerId = "4fe7eba9-be7b-4b88-b040-678285d1e8df";
paths = (
{
closed = 1;
nodes = (
"193 -167 OFFCURVE",
"204 -177 OFFCURVE",
"218 -177 CURVE SMOOTH",
"228 -177 OFFCURVE",
"239 -171 OFFCURVE",
"239 -151 CURVE",
"307 -151 OFFCURVE",
"344 -183 OFFCURVE",
"344 -237 CURVE SMOOTH",
"344 -307 OFFCURVE",
"283 -339 OFFCURVE",
"201 -339 CURVE SMOOTH",
"86 -339 OFFCURVE",
"25 -277 OFFCURVE",
"25 -203 CURVE SMOOTH",
"25 -91 OFFCURVE",
"163 -33 OFFCURVE",
"384 -33 CURVE",
"384 -89 LINE",
"220 -89 OFFCURVE",
"193 -136 OFFCURVE",
"193 -155 CURVE SMOOTH"
);
}
);
width = 409;
}
);
unicode = 02DB;
},
{
glyphname = Aogonek;
leftMetricsKey = "=A";
rightMetricsKey = "=A";
layers = (
{
guideLines = (
{
position = "{0, -33}";
}
);
layerId = "4fe7eba9-be7b-4b88-b040-678285d1e8df";
paths = (
{
closed = 1;
nodes = (
"153 530 LINE SMOOTH",
"183 530 OFFCURVE",
"198 511 OFFCURVE",
"190 482 CURVE SMOOTH",
"163 378 LINE",
"343 378 LINE",
"373 491 LINE",
"441 219 LINE SMOOTH",
"448 190 OFFCURVE",
"433 170 OFFCURVE",
"403 170 CURVE SMOOTH",
"397 170 LINE",
"397 0 LINE",
"741 0 LINE",
"741 170 LINE",
"715 170 LINE SMOOTH",
"685 170 OFFCURVE",
"660 189 OFFCURVE",
"653 218 CURVE SMOOTH",
"586 482 LINE SMOOTH",
"579 511 OFFCURVE",
"594 530 OFFCURVE",
"624 530 CURVE SMOOTH",
"630 530 LINE",
"630 700 LINE",
"137 700 LINE",
"137 530 LINE"
);
},
{
closed = 1;
nodes = (
"10 44 OFFCURVE",
"91 -18 OFFCURVE",
"191 -18 CURVE SMOOTH",
"273 -18 OFFCURVE",
"349 24 OFFCURVE",
"349 101 CURVE SMOOTH",
"349 164 OFFCURVE",
"305 200 OFFCURVE",
"244 200 CURVE",
"244 180 OFFCURVE",
"233 174 OFFCURVE",
"223 174 CURVE SMOOTH",
"210 174 OFFCURVE",
"198 183 OFFCURVE",
"198 201 CURVE SMOOTH",
"198 215 OFFCURVE",
"205 252 OFFCURVE",
"369 252 CURVE",
"369 336 LINE",
"138 336 OFFCURVE",
"10 267 OFFCURVE",
"10 143 CURVE SMOOTH"
);
},
{
closed = 1;
nodes = (
"550 -153 OFFCURVE",
"577 -106 OFFCURVE",
"741 -106 CURVE",
"741 -50 LINE",
"520 -50 OFFCURVE",
"382 -108 OFFCURVE",
"382 -220 CURVE SMOOTH",
"382 -294 OFFCURVE",
"443 -356 OFFCURVE",
"558 -356 CURVE SMOOTH",
"640 -356 OFFCURVE",
"701 -324 OFFCURVE",
"701 -254 CURVE SMOOTH",
"701 -200 OFFCURVE",
"664 -168 OFFCURVE",
"596 -168 CURVE",
"596 -188 OFFCURVE",
"585 -194 OFFCURVE",
"575 -194 CURVE SMOOTH",
"561 -194 OFFCURVE",
"550 -184 OFFCURVE",
"550 -172 CURVE SMOOTH"
);
}
);
width = 751;
}
);
leftKerningGroup = A_2nd;
rightKerningGroup = A1_1st;
unicode = 0104;
},
{
glyphname = Lslash;
leftMetricsKey = "=V";
rightMetricsKey = "=L";
layers = (
{
layerId = "4fe7eba9-be7b-4b88-b040-678285d1e8df";
paths = (
{
closed = 1;
nodes = (
"161 700 LINE",
"473 700 LINE",
"473 530 LINE",
"467 530 LINE SMOOTH",
"437 530 OFFCURVE",
"417 510 OFFCURVE",
"417 480 CURVE SMOOTH",
"417 0 LINE",
"161 0 LINE",
"161 170 LINE",
"167 170 LINE SMOOTH",
"197 170 OFFCURVE",
"217 190 OFFCURVE",
"217 220 CURVE SMOOTH",
"217 480 LINE SMOOTH",
"217 510 OFFCURVE",
"197 530 OFFCURVE",
"167 530 CURVE SMOOTH",
"161 530 LINE"
);
},
{
closed = 1;
nodes = (
"538 170 LINE SMOOTH",
"568 170 OFFCURVE",
"588 190 OFFCURVE",
"588 220 CURVE SMOOTH",
"588 285 LINE",
"728 285 LINE",
"728 0 LINE",
"462 0 LINE",
"462 170 LINE"
);
},
{
closed = 1;
nodes = (
"514 434 OFFCURVE",
"504 441 OFFCURVE",
"492 438 CURVE",
"477 500 OFFCURVE",
"522 542 OFFCURVE",
"583 542 CURVE SMOOTH",
"643 542 OFFCURVE",
"683 501 OFFCURVE",
"683 440 CURVE SMOOTH",
"683 353 OFFCURVE",
"603 303 OFFCURVE",
"463 303 CURVE",
"463 386 LINE",
"488 386 OFFCURVE",
"514 404 OFFCURVE",
"514 423 CURVE SMOOTH"
);
},
{
closed = 1;
nodes = (
"138 257 OFFCURVE",
"145 252 OFFCURVE",
"154 254 CURVE",
"165 208 OFFCURVE",
"132 176 OFFCURVE",
"86 176 CURVE SMOOTH",
"40 176 OFFCURVE",
"10 207 OFFCURVE",
"10 253 CURVE SMOOTH",
"10 318 OFFCURVE",
"71 356 OFFCURVE",
"176 356 CURVE",
"176 294 LINE",
"157 294 OFFCURVE",
"138 280 OFFCURVE",
"138 266 CURVE SMOOTH"
);
}
);
width = 743;
}
);
unicode = 0141;
},
{
glyphname = zero;
leftMetricsKey = "=O";
rightMetricsKey = "=O";
layers = (
{
anchors = (
{
name = top;
position = "{315, 750}";
}
);
layerId = "4fe7eba9-be7b-4b88-b040-678285d1e8df";
paths = (
{
closed = 1;
nodes = (
"372 234 LINE",
"363 180 OFFCURVE",
"340 145 OFFCURVE",
"300 145 CURVE SMOOTH",
"268 145 OFFCURVE",
"235 168 OFFCURVE",
"235 216 CURVE SMOOTH",
"235 238 OFFCURVE",
"244 256 OFFCURVE",
"259 256 CURVE SMOOTH",
"265 256 OFFCURVE",
"270 254 OFFCURVE",
"273 251 CURVE",
"289 268 OFFCURVE",
"296 286 OFFCURVE",
"296 310 CURVE SMOOTH",
"296 383 OFFCURVE",
"231 428 OFFCURVE",
"162 428 CURVE SMOOTH",
"83 428 OFFCURVE",
"20 368 OFFCURVE",
"20 260 CURVE SMOOTH",
"20 115 OFFCURVE",
"126 -18 OFFCURVE",
"315 -18 CURVE SMOOTH",
"479 -18 OFFCURVE",
"588 71 OFFCURVE",
"605 234 CURVE"
);
},
{
closed = 1;
nodes = (
"264 466 LINE",
"273 520 OFFCURVE",
"296 555 OFFCURVE",
"336 555 CURVE SMOOTH",
"368 555 OFFCURVE",
"401 532 OFFCURVE",
"401 484 CURVE SMOOTH",
"401 462 OFFCURVE",
"392 444 OFFCURVE",
"377 444 CURVE SMOOTH",
"371 444 OFFCURVE",
"366 446 OFFCURVE",
"363 449 CURVE",
"347 432 OFFCURVE",
"340 414 OFFCURVE",
"340 390 CURVE SMOOTH",
"340 317 OFFCURVE",
"405 272 OFFCURVE",
"474 272 CURVE SMOOTH",
"553 272 OFFCURVE",
"616 332 OFFCURVE",
"616 440 CURVE SMOOTH",
"616 585 OFFCURVE",
"510 718 OFFCURVE",
"321 718 CURVE SMOOTH",
"157 718 OFFCURVE",
"48 629 OFFCURVE",
"31 466 CURVE"
);
}
);
width = 636;
}
);
unicode = 0030;
},
{
glyphname = Eogonek;
leftMetricsKey = "=E";
rightMetricsKey = "=E";
layers = (
{
layerId = "4fe7eba9-be7b-4b88-b040-678285d1e8df";
paths = (
{
closed = 1;
nodes = (
"25.008 62 OFFCURVE",
"121.008 -18 OFFCURVE",
"313.008 -18 CURVE SMOOTH",
"506.008 -18 OFFCURVE",
"628.008 63 OFFCURVE",
"628.008 253 CURVE",
"436.008 253 LINE",
"431.008 184 OFFCURVE",
"372.008 164 OFFCURVE",
"330.008 164 CURVE SMOOTH",
"289.008 164 OFFCURVE",
"262.008 183 OFFCURVE",
"262.008 209 CURVE SMOOTH",
"262.008 260 OFFCURVE",
"338.008 306 OFFCURVE",
"551.008 306 CURVE",
"551.008 390 LINE",
"210.008 390 OFFCURVE",
"25.008 302 OFFCURVE",
"25.008 162 CURVE SMOOTH"
);
},
{
closed = 1;
nodes = (
"26.008 440 OFFCURVE",
"84.008 378 OFFCURVE",
"171.008 378 CURVE SMOOTH",
"236.008 378 OFFCURVE",
"292.008 412 OFFCURVE",
"292.008 474 CURVE",
"280.008 474 OFFCURVE",
"268.008 490 OFFCURVE",
"268.008 508 CURVE SMOOTH",
"268.008 535 OFFCURVE",
"295.008 554 OFFCURVE",
"331.008 554 CURVE SMOOTH",
"394.008 554 OFFCURVE",
"436.008 494 OFFCURVE",
"436.008 451 CURVE",
"596.008 451 LINE",
"596.008 700 LINE",
"436.008 700 LINE",
"436.008 583 LINE",
"400.008 691 OFFCURVE",
"299.008 718 OFFCURVE",
"233.008 718 CURVE SMOOTH",
"115.008 718 OFFCURVE",
"24.008 631 OFFCURVE",
"25.008 524 CURVE SMOOTH"
);
},
{
closed = 1;
nodes = (
"405.008 -153 OFFCURVE",
"432.008 -106 OFFCURVE",
"596.008 -106 CURVE",
"596.008 -50 LINE",
"375.008 -50 OFFCURVE",
"237.008 -108 OFFCURVE",
"237.008 -220 CURVE SMOOTH",
"237.008 -294 OFFCURVE",
"298.008 -356 OFFCURVE",
"413.008 -356 CURVE SMOOTH",
"495.008 -356 OFFCURVE",
"556.008 -324 OFFCURVE",
"556.008 -254 CURVE SMOOTH",
"556.008 -200 OFFCURVE",
"519.008 -168 OFFCURVE",
"451.008 -168 CURVE",
"451.008 -188 OFFCURVE",
"440.008 -194 OFFCURVE",
"430.008 -194 CURVE SMOOTH",
"416.008 -194 OFFCURVE",
"405.008 -184 OFFCURVE",
"405.008 -172 CURVE SMOOTH"
);
}
);
width = 648;
}
);
leftKerningGroup = E_2nd;
rightKerningGroup = E1_1st;
unicode = 0118;
},
{
glyphname = quotesingle;
layers = (
{
components = (
{
name = acute;
transform = "{1, 0, 0, 1, -16, 0}";
alignment = -1;
}
);
guideLines = (
{
angle = 58.22;
position = "{390, 170}";
},
{
angle = 58.22;
position = "{202, 170}";
}
);
layerId = "a0955ac9-5dee-44f4-ae17-c42ddc013fec";
name = altern;
width = 797;
},
{
layerId = "4fe7eba9-be7b-4b88-b040-678285d1e8df";
paths = (
{
closed = 1;
nodes = (
"25 771 LINE",
"225 771 LINE",
"225 411 LINE",
"25 411 LINE"
);
}
);
width = 250;
}
);
leftKerningGroup = quotedbl_2nd;
rightKerningGroup = quotedbl1_1st;
unicode = 0027;
},
{
glyphname = z;
leftMetricsKey = "=Z";
rightMetricsKey = "=Z";
layers = (
{
guideLines = (
{
angle = 41.38;
position = "{-184, 294}";
showMeasurement = 1;
},
{
angle = 41.38;
position = "{-184, 37}";
showMeasurement = 1;
}
);
layerId = "4fe7eba9-be7b-4b88-b040-678285d1e8df";
paths = (
{
closed = 1;
nodes = (
"25 191 OFFCURVE",
"53 241 OFFCURVE",
"99 282 CURVE SMOOTH",
"361 512 LINE SMOOTH",
"368 518 OFFCURVE",
"374 529 OFFCURVE",
"374 536 CURVE SMOOTH",
"374 549 OFFCURVE",
"365 558 OFFCURVE",
"353 558 CURVE SMOOTH",
"350 558 OFFCURVE",
"347 557 OFFCURVE",
"343 556 CURVE",
"338 572 OFFCURVE",
"336 586 OFFCURVE",
"336 601 CURVE SMOOTH",
"336 670 OFFCURVE",
"393 718 OFFCURVE",
"476 718 CURVE SMOOTH",
"562 718 OFFCURVE",
"620 659 OFFCURVE",
"620 574 CURVE SMOOTH",
"620 515 OFFCURVE",
"592 459 OFFCURVE",
"550 422 CURVE SMOOTH",
"282 186 LINE SMOOTH",
"275 180 OFFCURVE",
"271 172 OFFCURVE",
"271 164 CURVE SMOOTH",
"271 150 OFFCURVE",
"281 144 OFFCURVE",
"293 144 CURVE SMOOTH",
"296 144 OFFCURVE",
"299 144 OFFCURVE",
"302 145 CURVE",
"307 129 OFFCURVE",
"309 114 OFFCURVE",
"309 100 CURVE SMOOTH",
"309 30 OFFCURVE",
"254 -18 OFFCURVE",
"179 -18 CURVE SMOOTH",
"93 -18 OFFCURVE",
"25 51 OFFCURVE",
"25 136 CURVE SMOOTH"
);
},
{
closed = 1;
nodes = (
"223 530 LINE SMOOTH",
"193 530 OFFCURVE",
"173 510 OFFCURVE",
"173 480 CURVE SMOOTH",
"173 465 LINE",
"53 465 LINE",
"53 700 LINE",
"279 700 LINE",
"279 530 LINE"
);
},
{
closed = 1;
nodes = (
"447 170 LINE SMOOTH",
"477 170 OFFCURVE",
"497 190 OFFCURVE",
"497 220 CURVE SMOOTH",
"497 235 LINE",
"617 235 LINE",
"617 0 LINE",
"380 0 LINE",
"380 170 LINE"
);
}
);
width = 645;
}
);
unicode = 007A;
},
{
glyphname = bracketright;
leftMetricsKey = "=I";
rightMetricsKey = "=I-8";
layers = (
{
components = (
{
name = bracketleft;
alignment = -1;
}
);
layerId = "aac8cf01-4416-4e6e-9e8e-b9f0960065ae";
name = "New Layer";
width = 744;
},
{
layerId = "4fe7eba9-be7b-4b88-b040-678285d1e8df";
paths = (
{
closed = 1;
nodes = (
"30 577 LINE",
"36 577 LINE SMOOTH",
"66 577 OFFCURVE",
"86 557 OFFCURVE",
"86 527 CURVE SMOOTH",
"86 397 LINE",
"286 397 LINE",
"286 747 LINE",
"30 747 LINE"
);
},
{
closed = 1;
nodes = (
"30 -31 LINE",
"286 -31 LINE",
"286 311 LINE",
"86 311 LINE",
"86 190 LINE SMOOTH",
"86 160 OFFCURVE",
"66 140 OFFCURVE",
"36 140 CURVE SMOOTH",
"30 140 LINE"
);
}
);
width = 308;
}
);
unicode = 005D;
},
{
glyphname = parenleft;
layers = (
{
components = (
{
name = C;
alignment = -1;
},
{
name = D;
alignment = -1;
}
);
layerId = "e352a55f-41ce-4ecf-bcc2-3e6399d2b45f";
name = versja2;
width = 422;
},
{
guideLines = (
{
position = "{0, 350}";
},
{
position = "{0, 350}";
}
);
layerId = "4fe7eba9-be7b-4b88-b040-678285d1e8df";
paths = (
{
closed = 1;
nodes = (
"397 -6 OFFCURVE",
"335 -54 OFFCURVE",
"249 -54 CURVE SMOOTH",
"115 -54 OFFCURVE",
"25 92 OFFCURVE",
"25 359 CURVE SMOOTH",
"25 619 OFFCURVE",
"115 771 OFFCURVE",
"249 771 CURVE SMOOTH",
"335 771 OFFCURVE",
"397 723 OFFCURVE",
"397 649 CURVE SMOOTH",
"397 595 OFFCURVE",
"361 571 OFFCURVE",
"325 571 CURVE SMOOTH",
"311 571 OFFCURVE",
"297 575 OFFCURVE",
"285 583 CURVE",
"288 587 OFFCURVE",
"289 591 OFFCURVE",
"289 595 CURVE SMOOTH",
"289 604 OFFCURVE",
"282 609 OFFCURVE",
"270 609 CURVE SMOOTH",
"224 609 OFFCURVE",
"202 509 OFFCURVE",
"202 359 CURVE SMOOTH",
"202 208 OFFCURVE",
"224 108 OFFCURVE",
"270 108 CURVE SMOOTH",
"282 108 OFFCURVE",
"289 113 OFFCURVE",
"289 122 CURVE SMOOTH",
"289 126 OFFCURVE",
"288 130 OFFCURVE",
"285 134 CURVE",
"297 142 OFFCURVE",
"311 146 OFFCURVE",
"325 146 CURVE SMOOTH",
"361 146 OFFCURVE",
"397 122 OFFCURVE",
"397 68 CURVE SMOOTH"
);
}
);
width = 422;
}
);
unicode = 0028;
},
{
glyphname = parenright;
layers = (
{
components = (
{
name = parenleft;
alignment = -1;
}
);
layerId = "e352a55f-41ce-4ecf-bcc2-3e6399d2b45f";
name = versja2;
width = 422;
},
{
layerId = "4fe7eba9-be7b-4b88-b040-678285d1e8df";
paths = (
{
closed = 1;
nodes = (
"25 -6 OFFCURVE",
"87 -54 OFFCURVE",
"173 -54 CURVE SMOOTH",
"307 -54 OFFCURVE",
"397 92 OFFCURVE",
"397 359 CURVE SMOOTH",
"397 619 OFFCURVE",
"307 771 OFFCURVE",
"173 771 CURVE SMOOTH",
"87 771 OFFCURVE",
"25 723 OFFCURVE",
"25 649 CURVE SMOOTH",
"25 595 OFFCURVE",
"61 571 OFFCURVE",
"97 571 CURVE SMOOTH",
"111 571 OFFCURVE",
"125 575 OFFCURVE",
"137 583 CURVE",
"134 587 OFFCURVE",
"133 591 OFFCURVE",
"133 595 CURVE SMOOTH",
"133 604 OFFCURVE",
"140 609 OFFCURVE",
"152 609 CURVE SMOOTH",
"198 609 OFFCURVE",
"220 509 OFFCURVE",
"220 359 CURVE SMOOTH",
"220 208 OFFCURVE",
"198 108 OFFCURVE",
"152 108 CURVE SMOOTH",
"140 108 OFFCURVE",
"133 113 OFFCURVE",
"133 122 CURVE SMOOTH",
"133 126 OFFCURVE",
"134 130 OFFCURVE",
"137 134 CURVE",
"125 142 OFFCURVE",
"111 146 OFFCURVE",
"97 146 CURVE SMOOTH",
"61 146 OFFCURVE",
"25 122 OFFCURVE",
"25 68 CURVE SMOOTH"
);
}
);
width = 422;
}
);
unicode = 0029;
},
{
glyphname = dollar;
leftMetricsKey = "=S";
rightMetricsKey = "=S";
layers = (
{
layerId = "4fe7eba9-be7b-4b88-b040-678285d1e8df";
paths = (
{
closed = 1;
nodes = (
"190.009 0 LINE",
"190.009 137 LINE",
"227.009 16 OFFCURVE",
"324.009 -18 OFFCURVE",
"400.009 -18 CURVE SMOOTH",
"531.009 -18 OFFCURVE",
"622.009 85 OFFCURVE",
"622.009 213 CURVE SMOOTH",
"622.009 322 OFFCURVE",
"557.009 398 OFFCURVE",
"454.009 398 CURVE SMOOTH",
"345.009 398 OFFCURVE",
"300.009 319 OFFCURVE",
"319.009 260 CURVE",
"341.009 266 OFFCURVE",
"357.009 248 OFFCURVE",
"357.009 223 CURVE SMOOTH",
"357.009 190 OFFCURVE",
"331.009 167 OFFCURVE",
"291.009 167 CURVE SMOOTH",
"219.009 167 OFFCURVE",
"190.009 240 OFFCURVE",
"190.009 302 CURVE",
"190.009 303 LINE",
"30.009 303 LINE",
"30.009 0 LINE"
);
},
{
closed = 1;
nodes = (
"31.009 426 OFFCURVE",
"99.009 356 OFFCURVE",
"189.009 356 CURVE SMOOTH",
"271.009 356 OFFCURVE",
"309.009 414 OFFCURVE",
"297.009 472 CURVE",
"277.009 464 OFFCURVE",
"257.009 476 OFFCURVE",
"257.009 503 CURVE SMOOTH",
"257.009 537 OFFCURVE",
"287.009 556 OFFCURVE",
"322.009 556 CURVE SMOOTH",
"398.009 556 OFFCURVE",
"411.009 467 OFFCURVE",
"411.009 439 CURVE",
"571.009 439 LINE",
"571.009 700 LINE",
"411.009 700 LINE",
"411.009 583 LINE",
"379.009 686 OFFCURVE",
"297.009 718 OFFCURVE",
"225.009 718 CURVE SMOOTH",
"111.009 718 OFFCURVE",
"29.009 636 OFFCURVE",
"30.009 526 CURVE SMOOTH"
);
},
{
closed = 1;
nodes = (
"207 640 LINE",
"367 640 LINE",
"367 857 LINE",
"207 857 LINE"
);
},
{
closed = 1;
nodes = (
"226 -144 LINE",
"386 -144 LINE",
"386 73 LINE",
"226 73 LINE"
);
}
);
width = 642;
}
);
unicode = 0024;
},
{
glyphname = colon;
layers = (
{
layerId = "4fe7eba9-be7b-4b88-b040-678285d1e8df";
paths = (
{
closed = 1;
nodes = (
"25 173 OFFCURVE",
"77 221 OFFCURVE",
"155 221 CURVE SMOOTH",
"232 221 OFFCURVE",
"284 173 OFFCURVE",
"284 102 CURVE SMOOTH",
"284 30 OFFCURVE",
"232 -18 OFFCURVE",
"155 -18 CURVE SMOOTH",
"77 -18 OFFCURVE",
"25 30 OFFCURVE",
"25 102 CURVE SMOOTH"
);
},
{
closed = 1;
nodes = (
"25 516 OFFCURVE",
"77 564 OFFCURVE",
"155 564 CURVE SMOOTH",
"232 564 OFFCURVE",
"284 516 OFFCURVE",
"284 445 CURVE SMOOTH",
"284 373 OFFCURVE",
"232 325 OFFCURVE",
"155 325 CURVE SMOOTH",
"77 325 OFFCURVE",
"25 373 OFFCURVE",
"25 445 CURVE SMOOTH"
);
}
);
width = 309;
}
);
unicode = 003A;
},
{
glyphname = exclam;
layers = (
{
layerId = "4fe7eba9-be7b-4b88-b040-678285d1e8df";
paths = (
{
closed = 1;
nodes = (
"50 30 OFFCURVE",
"102 -18 OFFCURVE",
"180 -18 CURVE SMOOTH",
"257 -18 OFFCURVE",
"309 30 OFFCURVE",
"309 102 CURVE SMOOTH",
"309 173 OFFCURVE",
"257 221 OFFCURVE",
"180 221 CURVE SMOOTH",
"102 221 OFFCURVE",
"50 173 OFFCURVE",
"50 102 CURVE SMOOTH"
);
},
{
closed = 1;
nodes = (
"25 700 LINE",
"25 530 LINE",
"31 530 LINE SMOOTH",
"61 530 OFFCURVE",
"81 510 OFFCURVE",
"81 480 CURVE SMOOTH",
"81 278 LINE",
"281 278 LINE",
"281 480 LINE SMOOTH",
"281 510 OFFCURVE",
"301 530 OFFCURVE",
"331 530 CURVE SMOOTH",
"337 530 LINE",
"337 700 LINE"
);
}
);
width = 362;
}
);
unicode = 0021;
},
{
glyphname = semicolon;
layers = (
{
layerId = "4fe7eba9-be7b-4b88-b040-678285d1e8df";
paths = (
{
closed = 1;
nodes = (
"28 373 OFFCURVE",
"80 325 OFFCURVE",
"158 325 CURVE SMOOTH",
"235 325 OFFCURVE",
"287 373 OFFCURVE",
"287 445 CURVE SMOOTH",
"287 516 OFFCURVE",
"235 564 OFFCURVE",
"158 564 CURVE SMOOTH",
"80 564 OFFCURVE",
"28 516 OFFCURVE",
"28 445 CURVE SMOOTH"
);
},
{
closed = 1;
nodes = (
"218 -128 LINE",
"271 -58 OFFCURVE",
"298 -15 OFFCURVE",
"298 54 CURVE SMOOTH",
"298 143 OFFCURVE",
"253 221 OFFCURVE",
"151 221 CURVE SMOOTH",
"75 221 OFFCURVE",
"25 174 OFFCURVE",
"25 114 CURVE SMOOTH",
"25 78 OFFCURVE",
"43 43 OFFCURVE",
"83 28 CURVE",
"92 45 OFFCURVE",
"104 54 OFFCURVE",
"118 54 CURVE SMOOTH",
"140 54 OFFCURVE",
"152 33 OFFCURVE",
"152 -6 CURVE SMOOTH",
"152 -68 OFFCURVE",
"122 -113 OFFCURVE",
"112 -128 CURVE"
);
}
);
width = 323;
}
);
unicode = 003B;
},
{
glyphname = hyphen;
leftMetricsKey = "=minus";
rightMetricsKey = "=minus";
layers = (
{
layerId = "4fe7eba9-be7b-4b88-b040-678285d1e8df";
paths = (
{
closed = 1;
nodes = (
"25 268 LINE",
"254 268 LINE",
"254 433 LINE",
"25 433 LINE"
);
}
);
width = 279;
}
);
leftKerningGroup = minus_2nd;
rightKerningGroup = minus1_1st;
unicode = 002D;
},
{
glyphname = plus;
layers = (
{
layerId = "4fe7eba9-be7b-4b88-b040-678285d1e8df";
paths = (
{
closed = 1;
nodes = (
"25 433 LINE",
"25 268 LINE",
"165 268 LINE",
"165 128 LINE",
"342 128 LINE",
"342 268 LINE",
"482 268 LINE",
"482 433 LINE",
"342 433 LINE",
"342 573 LINE",
"165 573 LINE",
"165 433 LINE"
);
}
);
width = 507;
}
);
unicode = 002B;
},
{
glyphname = asterisk;
layers = (
{
components = (
{
name = comma;
alignment = -1;
}
);
guideLines = (
{
angle = 58.22;
position = "{390, 170}";
},
{
angle = 58.22;
position = "{202, 170}";
}
);
layerId = "a0955ac9-5dee-44f4-ae17-c42ddc013fec";
name = altern;
width = 797;
},
{
layerId = "4fe7eba9-be7b-4b88-b040-678285d1e8df";
paths = (
{
closed = 1;
nodes = (
"366 503 LINE",
"407 556 OFFCURVE",
"428 605 OFFCURVE",
"428 650 CURVE SMOOTH",
"428 711 OFFCURVE",
"393 774 OFFCURVE",
"315 774 CURVE SMOOTH",
"257 774 OFFCURVE",
"218 734 OFFCURVE",
"218 688 CURVE SMOOTH",
"218 661 OFFCURVE",
"232 634 OFFCURVE",
"263 622 CURVE",
"270 635 OFFCURVE",
"279 642 OFFCURVE",
"290 642 CURVE SMOOTH",
"307 642 OFFCURVE",
"316 626 OFFCURVE",
"316 596 CURVE SMOOTH",
"316 549 OFFCURVE",
"293 514 OFFCURVE",
"285 503 CURVE"
);
},
{
closed = 1;
nodes = (
"305 521 LINE",
"266 576 OFFCURVE",
"226 611 OFFCURVE",
"183 625 CURVE SMOOTH",
"126 643 OFFCURVE",
"55 630 OFFCURVE",
"31 556 CURVE SMOOTH",
"13 500 OFFCURVE",
"38 451 OFFCURVE",
"82 437 CURVE SMOOTH",
"108 429 OFFCURVE",
"138 433 OFFCURVE",
"159 459 CURVE",
"148 470 OFFCURVE",
"145 481 OFFCURVE",
"148 491 CURVE SMOOTH",
"153 507 OFFCURVE",
"171 511 OFFCURVE",
"200 502 CURVE SMOOTH",
"245 487 OFFCURVE",
"271 454 OFFCURVE",
"279 443 CURVE"
);
},
{
closed = 1;
nodes = (
"268 467 LINE",
"204 448 OFFCURVE",
"158 421 OFFCURVE",
"132 384 CURVE SMOOTH",
"96 335 OFFCURVE",
"87 264 OFFCURVE",
"151 218 CURVE SMOOTH",
"198 184 OFFCURVE",
"252 193 OFFCURVE",
"279 230 CURVE SMOOTH",
"295 252 OFFCURVE",
"300 282 OFFCURVE",
"282 310 CURVE",
"268 303 OFFCURVE",
"257 303 OFFCURVE",
"249 309 CURVE SMOOTH",
"235 319 OFFCURVE",
"237 338 OFFCURVE",
"255 362 CURVE SMOOTH",
"282 400 OFFCURVE",
"321 415 OFFCURVE",
"334 420 CURVE"
);
},
{
closed = 1;
nodes = (
"308 416 LINE",
"306 349 OFFCURVE",
"318 298 OFFCURVE",
"345 261 CURVE SMOOTH",
"380 212 OFFCURVE",
"445 181 OFFCURVE",
"509 227 CURVE SMOOTH",
"556 262 OFFCURVE",
"564 316 OFFCURVE",
"537 353 CURVE SMOOTH",
"521 376 OFFCURVE",
"494 389 OFFCURVE",
"462 380 CURVE",
"464 366 OFFCURVE",
"461 355 OFFCURVE",
"452 348 CURVE SMOOTH",
"438 339 OFFCURVE",
"421 346 OFFCURVE",
"403 371 CURVE SMOOTH",
"376 409 OFFCURVE",
"374 450 OFFCURVE",
"374 464 CURVE"
);
},
{
closed = 1;
nodes = (
"368 438 LINE",
"432 416 OFFCURVE",
"484 411 OFFCURVE",
"528 425 CURVE SMOOTH",
"585 444 OFFCURVE",
"634 496 OFFCURVE",
"610 571 CURVE SMOOTH",
"592 626 OFFCURVE",
"543 651 OFFCURVE",
"499 637 CURVE SMOOTH",
"473 628 OFFCURVE",
"452 607 OFFCURVE",
"450 574 CURVE",
"465 571 OFFCURVE",
"474 565 OFFCURVE",
"477 555 CURVE SMOOTH",
"483 538 OFFCURVE",
"470 525 OFFCURVE",
"443 516 CURVE SMOOTH",
"397 501 OFFCURVE",
"357 512 OFFCURVE",
"343 516 CURVE"
);
},
{
closed = 1;
nodes = (
"263 424 LINE",
"369 424 LINE",
"369 520 LINE",
"263 520 LINE"
);
}
);
width = 642;
}
);
unicode = 002A;
},
{
glyphname = asciicircum;
leftMetricsKey = "=25";
rightMetricsKey = "=25";
layers = (
{
layerId = "4fe7eba9-be7b-4b88-b040-678285d1e8df";
paths = (
{
closed = 1;
nodes = (
"303 771 LINE",
"195 687 OFFCURVE",
"25 496 OFFCURVE",
"25 345 CURVE SMOOTH",
"25 259 OFFCURVE",
"81 201 OFFCURVE",
"152 201 CURVE SMOOTH",
"206 201 OFFCURVE",
"252 234 OFFCURVE",
"252 289 CURVE SMOOTH",
"252 314 OFFCURVE",
"242 330 OFFCURVE",
"234 337 CURVE",
"229 332 OFFCURVE",
"223 330 OFFCURVE",
"217 330 CURVE SMOOTH",
"203 330 OFFCURVE",
"190 340 OFFCURVE",
"190 367 CURVE SMOOTH",
"190 416 OFFCURVE",
"235 511 OFFCURVE",
"303 587 CURVE"
);
},
{
closed = 1;
nodes = (
"303 587 LINE",
"371 511 OFFCURVE",
"416 416 OFFCURVE",
"416 367 CURVE SMOOTH",
"416 340 OFFCURVE",
"403 330 OFFCURVE",
"389 330 CURVE SMOOTH",
"383 330 OFFCURVE",
"377 332 OFFCURVE",
"372 337 CURVE",
"364 330 OFFCURVE",
"354 314 OFFCURVE",
"354 289 CURVE SMOOTH",
"354 234 OFFCURVE",
"400 201 OFFCURVE",
"454 201 CURVE SMOOTH",
"525 201 OFFCURVE",
"581 259 OFFCURVE",
"581 345 CURVE SMOOTH",
"581 496 OFFCURVE",
"411 687 OFFCURVE",
"303 771 CURVE"
);
}
);
width = 606;
}
);
unicode = 005E;
},
{
glyphname = tilde;
layers = (
{
components = (
{
name = quotesingle;
alignment = -1;
}
);
guideLines = (
{
angle = 58.22;
position = "{390, 170}";
},
{
angle = 58.22;
position = "{202, 170}";
}
);
layerId = "a0955ac9-5dee-44f4-ae17-c42ddc013fec";
name = altern;
width = 797;
},
{
layerId = "4fe7eba9-be7b-4b88-b040-678285d1e8df";
paths = (
{
closed = 1;
nodes = (
"224 474 OFFCURVE",
"257 459 OFFCURVE",
"321 418 CURVE SMOOTH",
"364 390 OFFCURVE",
"387 378 OFFCURVE",
"411 378 CURVE SMOOTH",
"432 378 OFFCURVE",
"448 387 OFFCURVE",
"448 403 CURVE SMOOTH",
"448 412 OFFCURVE",
"443 421 OFFCURVE",
"426 427 CURVE",
"440 467 OFFCURVE",
"472 485 OFFCURVE",
"506 485 CURVE SMOOTH",
"561 485 OFFCURVE",
"606 438 OFFCURVE",
"606 373 CURVE SMOOTH",
"606 291 OFFCURVE",
"536 227 OFFCURVE",
"446 227 CURVE SMOOTH",
"398 227 OFFCURVE",
"351 245 OFFCURVE",
"300 285 CURVE SMOOTH",
"278 302 OFFCURVE",
"253 318 OFFCURVE",
"224 318 CURVE SMOOTH",
"201 318 OFFCURVE",
"184 308 OFFCURVE",
"184 292 CURVE SMOOTH",
"184 284 OFFCURVE",
"189 275 OFFCURVE",
"206 269 CURVE",
"192 229 OFFCURVE",
"160 211 OFFCURVE",
"126 211 CURVE SMOOTH",
"70 211 OFFCURVE",
"25 259 OFFCURVE",
"25 325 CURVE SMOOTH",
"25 408 OFFCURVE",
"95 474 OFFCURVE",
"182 474 CURVE SMOOTH"
);
}
);
width = 631;
}
);
unicode = 02DC;
},
{
glyphname = slash;
leftMetricsKey = "=V";
rightMetricsKey = "=V";
layers = (
{
layerId = "4fe7eba9-be7b-4b88-b040-678285d1e8df";
paths = (
{
closed = 1;
nodes = (
"10 -54 LINE",
"204 -54 LINE",
"389 747 LINE",
"195 747 LINE"
);
}
);
width = 399;
}
);
unicode = 002F;
},
{
glyphname = less;
layers = (
{
layerId = "4fe7eba9-be7b-4b88-b040-678285d1e8df";
paths = (
{
closed = 1;
nodes = (
"24 248 OFFCURVE",
"69 208 OFFCURVE",
"123 208 CURVE SMOOTH",
"173 208 OFFCURVE",
"214 242 OFFCURVE",
"214 294 CURVE",
"204 294 OFFCURVE",
"197 299 OFFCURVE",
"197 308 CURVE SMOOTH",
"197 316 OFFCURVE",
"203 323 OFFCURVE",
"211 326 CURVE SMOOTH",
"427 425 LINE SMOOTH",
"473 446 OFFCURVE",
"507 485 OFFCURVE",
"507 539 CURVE SMOOTH",
"507 594 OFFCURVE",
"471 643 OFFCURVE",
"412 641 CURVE SMOOTH",
"360 640 OFFCURVE",
"321 601 OFFCURVE",
"321 554 CURVE",
"329 554 OFFCURVE",
"339 549 OFFCURVE",
"339 540 CURVE SMOOTH",
"339 533 OFFCURVE",
"332 526 OFFCURVE",
"325 523 CURVE SMOOTH",
"104 422 LINE",
"60 401 OFFCURVE",
"26 354 OFFCURVE",
"25 305 CURVE SMOOTH"
);
},
{
closed = 1;
nodes = (
"195 153 LINE",
"331 75 LINE SMOOTH",
"351 64 OFFCURVE",
"375 57 OFFCURVE",
"400 57 CURVE SMOOTH",
"461 57 OFFCURVE",
"507 99 OFFCURVE",
"507 157 CURVE SMOOTH",
"507 211 OFFCURVE",
"467 254 OFFCURVE",
"418 254 CURVE SMOOTH",
"401 254 OFFCURVE",
"385 250 OFFCURVE",
"371 239 CURVE",
"374 235 OFFCURVE",
"376 231 OFFCURVE",
"376 227 CURVE SMOOTH",
"376 219 OFFCURVE",
"368 215 OFFCURVE",
"360 215 CURVE",
"360 215 OFFCURVE",
"352 215 OFFCURVE",
"346 218 CURVE SMOOTH",
"260 268 LINE"
);
}
);
width = 532;
}
);
unicode = 003C;
},
{
glyphname = equal;
leftMetricsKey = "=minus";
rightMetricsKey = "=minus";
layers = (
{
layerId = "4fe7eba9-be7b-4b88-b040-678285d1e8df";
paths = (
{
closed = 1;
nodes = (
"25 156 LINE",
"482 156 LINE",
"482 321 LINE",
"25 321 LINE"
);
},
{
closed = 1;
nodes = (
"25 536 LINE",
"25 371 LINE",
"482 371 LINE",
"482 536 LINE"
);
}
);
width = 507;
}
);
unicode = 003D;
},
{
glyphname = greater;
layers = (
{
layerId = "4fe7eba9-be7b-4b88-b040-678285d1e8df";
paths = (
{
closed = 1;
nodes = (
"508 451 OFFCURVE",
"463 491 OFFCURVE",
"409 491 CURVE SMOOTH",
"359 491 OFFCURVE",
"318 457 OFFCURVE",
"318 405 CURVE",
"328 405 OFFCURVE",
"335 400 OFFCURVE",
"335 391 CURVE SMOOTH",
"335 383 OFFCURVE",
"329 376 OFFCURVE",
"321 373 CURVE SMOOTH",
"105 274 LINE SMOOTH",
"59 253 OFFCURVE",
"25 214 OFFCURVE",
"25 160 CURVE SMOOTH",
"25 105 OFFCURVE",
"61 56 OFFCURVE",
"120 58 CURVE SMOOTH",
"172 59 OFFCURVE",
"211 98 OFFCURVE",
"211 145 CURVE",
"203 145 OFFCURVE",
"193 150 OFFCURVE",
"193 159 CURVE SMOOTH",
"193 166 OFFCURVE",
"200 173 OFFCURVE",
"207 176 CURVE SMOOTH",
"428 277 LINE",
"472 298 OFFCURVE",
"506 345 OFFCURVE",
"507 394 CURVE SMOOTH"
);
},
{
closed = 1;
nodes = (
"337 546 LINE",
"201 624 LINE SMOOTH",
"181 635 OFFCURVE",
"157 642 OFFCURVE",
"132 642 CURVE SMOOTH",
"71 642 OFFCURVE",
"25 600 OFFCURVE",
"25 542 CURVE SMOOTH",
"25 488 OFFCURVE",
"65 445 OFFCURVE",
"114 445 CURVE SMOOTH",
"131 445 OFFCURVE",
"147 449 OFFCURVE",
"161 460 CURVE",
"158 464 OFFCURVE",
"156 468 OFFCURVE",
"156 472 CURVE SMOOTH",
"156 480 OFFCURVE",
"164 484 OFFCURVE",
"172 484 CURVE",
"172 484 OFFCURVE",
"180 484 OFFCURVE",
"186 481 CURVE SMOOTH",
"272 431 LINE"
);
}
);
width = 532;
}
);
unicode = 003E;
},
{
glyphname = quotedbl;
leftMetricsKey = "=quotesingle";
rightMetricsKey = quotesingle;
layers = (
{
components = (
{
name = quotesingle;
alignment = -1;
}
);
guideLines = (
{
angle = 58.22;
position = "{390, 170}";
},
{
angle = 58.22;
position = "{202, 170}";
}
);
layerId = "a0955ac9-5dee-44f4-ae17-c42ddc013fec";
name = altern;
width = 797;
},
{
layerId = "4fe7eba9-be7b-4b88-b040-678285d1e8df";
paths = (
{
closed = 1;
nodes = (
"25 771 LINE",
"225 771 LINE",
"225 411 LINE",
"25 411 LINE"
);
},
{
closed = 1;
nodes = (
"275 771 LINE",
"475 771 LINE",
"475 411 LINE",
"275 411 LINE"
);
}
);
width = 500;
}
);
leftKerningGroup = quotedbl_2nd;
rightKerningGroup = quotedbl1_1st;
unicode = 0022;
},
{
glyphname = numbersign;
layers = (
{
guideLines = (
{
angle = 257.08;
position = "{377, 383}";
showMeasurement = 1;
},
{
angle = 257.08;
position = "{430, 383}";
showMeasurement = 1;
},
{
position = "{0, 526}";
},
{
angle = 257.08;
position = "{502, 383}";
showMeasurement = 1;
}
);
layerId = "4fe7eba9-be7b-4b88-b040-678285d1e8df";
paths = (
{
closed = 1;
nodes = (
"25 190 LINE",
"139 190 LINE",
"88 -31 LINE",
"282 -31 LINE",
"378 389 LINE",
"451 389 LINE",
"481 526 LINE",
"372 526 LINE",
"270 526 LINE",
"219 526 LINE",
"104 526 LINE",
"72 389 LINE",
"186 389 LINE",
"171 326 LINE",
"57 326 LINE"
);
},
{
closed = 1;
nodes = (
"409.558 525.997 LINE",
"415.158 547.889 OFFCURVE",
"422.286 585.053 OFFCURVE",
"422.286 615.599 CURVE SMOOTH",
"422.286 698.582 OFFCURVE",
"369.848 770.875 OFFCURVE",
"276.174 770.875 CURVE SMOOTH",
"198.791 770.875 OFFCURVE",
"136.681 721.492 OFFCURVE",
"136.681 636.472 CURVE SMOOTH",
"136.681 591.671 OFFCURVE",
"153.99 566.216 OFFCURVE",
"179.445 552.471 CURVE",
"183.518 560.107 OFFCURVE",
"193.191 568.762 OFFCURVE",
"204.391 568.762 CURVE SMOOTH",
"215.591 568.762 OFFCURVE",
"222.718 560.616 OFFCURVE",
"222.718 548.907 CURVE SMOOTH",
"222.718 543.816 OFFCURVE",
"220.682 534.652 OFFCURVE",
"218.646 525.997 CURVE"
);
},
{
closed = 1;
nodes = (
"842.76 526 LINE",
"728.76 526 LINE",
"779.76 747 LINE",
"585.76 747 LINE",
"489.76 327 LINE",
"416.76 327 LINE",
"386.76 190 LINE",
"495.76 190 LINE",
"597.76 190 LINE",
"648.76 190 LINE",
"763.76 190 LINE",
"795.76 327 LINE",
"681.76 327 LINE",
"696.76 390 LINE",
"810.76 390 LINE"
);
},
{
closed = 1;
nodes = (
"457.637 190.443 LINE",
"452.037 168.551 OFFCURVE",
"444.91 131.387 OFFCURVE",
"444.91 100.841 CURVE SMOOTH",
"444.91 17.858 OFFCURVE",
"497.347 -54.434 OFFCURVE",
"591.021 -54.434 CURVE SMOOTH",
"668.405 -54.434 OFFCURVE",
"730.515 -5.052 OFFCURVE",
"730.515 79.968 CURVE SMOOTH",
"730.515 124.769 OFFCURVE",
"713.205 150.224 OFFCURVE",
"687.75 163.97 CURVE",
"683.678 156.333 OFFCURVE",
"674.005 147.678 OFFCURVE",
"662.804 147.678 CURVE SMOOTH",
"651.604 147.678 OFFCURVE",
"644.477 155.824 OFFCURVE",
"644.477 167.533 CURVE SMOOTH",
"644.477 172.624 OFFCURVE",
"646.513 181.788 OFFCURVE",
"648.55 190.443 CURVE"
);
}
);
width = 868;
}
);
unicode = 0023;
},
{
glyphname = percent;
layers = (
{
layerId = "4fe7eba9-be7b-4b88-b040-678285d1e8df";
paths = (
{
closed = 1;
nodes = (
"168 0 LINE",
"362 0 LINE",
"751 699 LINE",
"557 699 LINE"
);
},
{
closed = 1;
nodes = (
"231.196 455.165 LINE",
"226.196 426.165 OFFCURVE",
"214.196 407.165 OFFCURVE",
"192.196 407.165 CURVE SMOOTH",
"174.196 407.165 OFFCURVE",
"157.196 419.165 OFFCURVE",
"157.196 445.165 CURVE SMOOTH",
"157.196 457.165 OFFCURVE",
"161.196 467.165 OFFCURVE",
"170.196 467.165 CURVE SMOOTH",
"173.196 467.165 OFFCURVE",
"176.196 466.165 OFFCURVE",
"177.196 464.165 CURVE",
"186.196 473.165 OFFCURVE",
"190.196 483.165 OFFCURVE",
"190.196 496.165 CURVE SMOOTH",
"190.196 536.165 OFFCURVE",
"154.196 560.165 OFFCURVE",
"117.196 560.165 CURVE SMOOTH",
"74.196 560.165 OFFCURVE",
"40.196 528.165 OFFCURVE",
"40.196 469.165 CURVE SMOOTH",
"40.196 390.165 OFFCURVE",
"97.196 318.165 OFFCURVE",
"200.196 318.165 CURVE SMOOTH",
"289.196 318.165 OFFCURVE",
"348.196 367.165 OFFCURVE",
"357.196 455.165 CURVE"
);
},
{
closed = 1;
nodes = (
"172.196 581.165 LINE",
"177.196 610.165 OFFCURVE",
"190.196 629.165 OFFCURVE",
"211.196 629.165 CURVE SMOOTH",
"229.196 629.165 OFFCURVE",
"247.196 617.165 OFFCURVE",
"247.196 591.165 CURVE SMOOTH",
"247.196 579.165 OFFCURVE",
"242.196 569.165 OFFCURVE",
"234.196 569.165 CURVE SMOOTH",
"230.196 569.165 OFFCURVE",
"228.196 570.165 OFFCURVE",
"226.196 572.165 CURVE",
"217.196 563.165 OFFCURVE",
"214.196 553.165 OFFCURVE",
"214.196 540.165 CURVE SMOOTH",
"214.196 500.165 OFFCURVE",
"249.196 476.165 OFFCURVE",
"286.196 476.165 CURVE SMOOTH",
"329.196 476.165 OFFCURVE",
"363.196 508.165 OFFCURVE",
"363.196 567.165 CURVE SMOOTH",
"363.196 646.165 OFFCURVE",
"306.196 718.165 OFFCURVE",
"203.196 718.165 CURVE SMOOTH",
"114.196 718.165 OFFCURVE",
"55.196 669.165 OFFCURVE",
"46.196 581.165 CURVE"
);
},
{
closed = 1;
nodes = (
"734.174 118.773 LINE",
"729.174 89.773 OFFCURVE",
"717.174 70.773 OFFCURVE",
"695.174 70.773 CURVE SMOOTH",
"677.174 70.773 OFFCURVE",
"660.174 82.773 OFFCURVE",
"660.174 108.773 CURVE SMOOTH",
"660.174 120.773 OFFCURVE",
"664.174 130.773 OFFCURVE",
"673.174 130.773 CURVE SMOOTH",
"676.174 130.773 OFFCURVE",
"679.174 129.773 OFFCURVE",
"680.174 127.773 CURVE",
"689.174 136.773 OFFCURVE",
"693.174 146.773 OFFCURVE",
"693.174 159.773 CURVE SMOOTH",
"693.174 199.773 OFFCURVE",
"657.174 223.773 OFFCURVE",
"620.174 223.773 CURVE SMOOTH",
"577.174 223.773 OFFCURVE",
"543.174 191.773 OFFCURVE",
"543.174 132.773 CURVE SMOOTH",
"543.174 53.773 OFFCURVE",
"600.174 -18.227 OFFCURVE",
"703.174 -18.227 CURVE SMOOTH",
"792.174 -18.227 OFFCURVE",
"851.174 30.773 OFFCURVE",
"860.174 118.773 CURVE"
);
},
{
closed = 1;
nodes = (
"675.174 244.773 LINE",
"680.174 273.773 OFFCURVE",
"693.174 292.773 OFFCURVE",
"714.174 292.773 CURVE SMOOTH",
"732.174 292.773 OFFCURVE",
"750.174 280.773 OFFCURVE",
"750.174 254.773 CURVE SMOOTH",
"750.174 242.773 OFFCURVE",
"745.174 232.773 OFFCURVE",
"737.174 232.773 CURVE SMOOTH",
"733.174 232.773 OFFCURVE",
"731.174 233.773 OFFCURVE",
"729.174 235.773 CURVE",
"720.174 226.773 OFFCURVE",
"717.174 216.773 OFFCURVE",
"717.174 203.773 CURVE SMOOTH",
"717.174 163.773 OFFCURVE",
"752.174 139.773 OFFCURVE",
"789.174 139.773 CURVE SMOOTH",
"832.174 139.773 OFFCURVE",
"866.174 171.773 OFFCURVE",
"866.174 230.773 CURVE SMOOTH",
"866.174 309.773 OFFCURVE",
"809.174 381.773 OFFCURVE",
"706.174 381.773 CURVE SMOOTH",
"617.174 381.773 OFFCURVE",
"558.174 332.773 OFFCURVE",
"549.174 244.773 CURVE"
);
}
);
width = 931;
}
);
unicode = 0025;
},
{
glyphname = braceleft;
leftMetricsKey = "=V";
rightMetricsKey = "=K";
layers = (
{
components = (
{
name = parenleft;
alignment = -1;
}
);
layerId = "e352a55f-41ce-4ecf-bcc2-3e6399d2b45f";
name = versja2;
width = 481;
},
{
guideLines = (
{
position = "{0, 358}";
}
);
layerId = "4fe7eba9-be7b-4b88-b040-678285d1e8df";
paths = (
{
closed = 1;
nodes = (
"10 418 LINE",
"10 286 LINE",
"100 286 LINE SMOOTH",
"207 286 OFFCURVE",
"277 352 OFFCURVE",
"277 434 CURVE SMOOTH",
"277 576 OFFCURVE",
"292 619 OFFCURVE",
"334 619 CURVE SMOOTH",
"352 619 OFFCURVE",
"364 611 OFFCURVE",
"364 598 CURVE SMOOTH",
"364 594 OFFCURVE",
"362 587 OFFCURVE",
"359 583 CURVE",
"371 575 OFFCURVE",
"385 571 OFFCURVE",
"399 571 CURVE SMOOTH",
"435 571 OFFCURVE",
"471 595 OFFCURVE",
"471 650 CURVE SMOOTH",
"471 723 OFFCURVE",
"409 771 OFFCURVE",
"323 771 CURVE SMOOTH",
"189 771 OFFCURVE",
"103 681 OFFCURVE",
"103 478 CURVE SMOOTH",
"103 440 OFFCURVE",
"84 418 OFFCURVE",
"25 418 CURVE SMOOTH"
);
},
{
closed = 1;
nodes = (
"103 261 LINE",
"94 43 OFFCURVE",
"182 -54 OFFCURVE",
"323 -54 CURVE SMOOTH",
"409 -54 OFFCURVE",
"471 -6 OFFCURVE",
"471 67 CURVE SMOOTH",
"471 122 OFFCURVE",
"435 146 OFFCURVE",
"399 146 CURVE SMOOTH",
"385 146 OFFCURVE",
"371 142 OFFCURVE",
"359 134 CURVE",
"362 130 OFFCURVE",
"364 123 OFFCURVE",
"364 119 CURVE SMOOTH",
"364 106 OFFCURVE",
"352 98 OFFCURVE",
"334 98 CURVE SMOOTH",
"291 98 OFFCURVE",
"277 141 OFFCURVE",
"277 261 CURVE"
);
}
);
width = 481;
}
);
unicode = 007B;
},
{
glyphname = bar;
leftMetricsKey = "=I-8";
rightMetricsKey = "=I-8";
layers = (
{
layerId = "4fe7eba9-be7b-4b88-b040-678285d1e8df";
paths = (
{
closed = 1;
nodes = (
"22 751 LINE",
"22 -34 LINE",
"222 -34 LINE",
"222 751 LINE"
);
}
);
width = 244;
}
);
unicode = 007C;
},
{
glyphname = braceright;
layers = (
{
components = (
{
name = braceleft;
alignment = -1;
}
);
layerId = "e352a55f-41ce-4ecf-bcc2-3e6399d2b45f";
name = versja2;
width = 481;
},
{
layerId = "4fe7eba9-be7b-4b88-b040-678285d1e8df";
paths = (
{
closed = 1;
nodes = (
"471 299 LINE",
"471 431 LINE",
"381 431 LINE SMOOTH",
"274 431 OFFCURVE",
"204 365 OFFCURVE",
"204 283 CURVE SMOOTH",
"204 141 OFFCURVE",
"189 98 OFFCURVE",
"147 98 CURVE SMOOTH",
"129 98 OFFCURVE",
"117 106 OFFCURVE",
"117 119 CURVE SMOOTH",
"117 123 OFFCURVE",
"119 130 OFFCURVE",
"122 134 CURVE",
"110 142 OFFCURVE",
"96 146 OFFCURVE",
"82 146 CURVE SMOOTH",
"46 146 OFFCURVE",
"10 122 OFFCURVE",
"10 67 CURVE SMOOTH",
"10 -6 OFFCURVE",
"72 -54 OFFCURVE",
"158 -54 CURVE SMOOTH",
"292 -54 OFFCURVE",
"378 36 OFFCURVE",
"378 239 CURVE SMOOTH",
"378 277 OFFCURVE",
"397 299 OFFCURVE",
"456 299 CURVE SMOOTH"
);
},
{
closed = 1;
nodes = (
"378 456 LINE",
"387 674 OFFCURVE",
"299 771 OFFCURVE",
"158 771 CURVE SMOOTH",
"72 771 OFFCURVE",
"10 723 OFFCURVE",
"10 650 CURVE SMOOTH",
"10 595 OFFCURVE",
"46 571 OFFCURVE",
"82 571 CURVE SMOOTH",
"96 571 OFFCURVE",
"110 575 OFFCURVE",
"122 583 CURVE",
"119 587 OFFCURVE",
"117 594 OFFCURVE",
"117 598 CURVE SMOOTH",
"117 611 OFFCURVE",
"129 619 OFFCURVE",
"147 619 CURVE SMOOTH",
"190 619 OFFCURVE",
"204 576 OFFCURVE",
"204 456 CURVE"
);
}
);
width = 481;
}
);
unicode = 007D;
},
{
glyphname = backslash;
leftMetricsKey = "=V";
rightMetricsKey = "=V";
layers = (
{
layerId = "4fe7eba9-be7b-4b88-b040-678285d1e8df";
paths = (
{
closed = 1;
nodes = (
"389 -54 LINE",
"195 -54 LINE",
"10 747 LINE",
"204 747 LINE"
);
}
);
width = 399;
}
);
unicode = 005C;
},
{
glyphname = quoteleft;
layers = (
{
components = (
{
name = quotedblleft;
alignment = -1;
}
);
guideLines = (
{
angle = 58.22;
position = "{390, 170}";
},
{
angle = 58.22;
position = "{202, 170}";
}
);
layerId = "a0955ac9-5dee-44f4-ae17-c42ddc013fec";
name = altern;
width = 797;
},
{
layerId = "4fe7eba9-be7b-4b88-b040-678285d1e8df";
paths = (
{
closed = 1;
nodes = (
"105 750 LINE",
"52 680 OFFCURVE",
"25 637 OFFCURVE",
"25 568 CURVE SMOOTH",
"25 479 OFFCURVE",
"70 401 OFFCURVE",
"170 401 CURVE SMOOTH",
"248 401 OFFCURVE",
"298 448 OFFCURVE",
"298 508 CURVE SMOOTH",
"298 544 OFFCURVE",
"280 579 OFFCURVE",
"240 594 CURVE",
"231 577 OFFCURVE",
"219 568 OFFCURVE",
"205 568 CURVE SMOOTH",
"183 568 OFFCURVE",
"171 589 OFFCURVE",
"171 628 CURVE SMOOTH",
"171 690 OFFCURVE",
"201 735 OFFCURVE",
"211 750 CURVE"
);
}
);
width = 318;
}
);
unicode = 2018;
},
{
glyphname = quoteright;
layers = (
{
components = (
{
name = quoteleft;
alignment = -1;
}
);
guideLines = (
{
angle = 58.22;
position = "{390, 170}";
},
{
angle = 58.22;
position = "{202, 170}";
}
);
layerId = "a0955ac9-5dee-44f4-ae17-c42ddc013fec";
name = altern;
width = 797;
},
{
layerId = "4fe7eba9-be7b-4b88-b040-678285d1e8df";
paths = (
{
closed = 1;
nodes = (
"213 422 LINE",
"266 492 OFFCURVE",
"293 535 OFFCURVE",
"293 604 CURVE SMOOTH",
"293 693 OFFCURVE",
"248 771 OFFCURVE",
"148 771 CURVE SMOOTH",
"70 771 OFFCURVE",
"20 724 OFFCURVE",
"20 664 CURVE SMOOTH",
"20 628 OFFCURVE",
"38 593 OFFCURVE",
"78 578 CURVE",
"87 595 OFFCURVE",
"99 604 OFFCURVE",
"113 604 CURVE SMOOTH",
"135 604 OFFCURVE",
"147 583 OFFCURVE",
"147 544 CURVE SMOOTH",
"147 482 OFFCURVE",
"117 437 OFFCURVE",
"107 422 CURVE"
);
}
);
width = 318;
}
);
leftKerningGroup = quoteright_2nd;
unicode = 2019;
},
{
glyphname = quotedblleft;
layers = (
{
components = (
{
name = quotesingle;
alignment = -1;
}
);
guideLines = (
{
angle = 58.22;
position = "{390, 170}";
},
{
angle = 58.22;
position = "{202, 170}";
}
);
layerId = "a0955ac9-5dee-44f4-ae17-c42ddc013fec";
name = altern;
width = 797;
},
{
layerId = "4fe7eba9-be7b-4b88-b040-678285d1e8df";
paths = (
{
closed = 1;
nodes = (
"105 750 LINE",
"52 680 OFFCURVE",
"25 637 OFFCURVE",
"25 568 CURVE SMOOTH",
"25 479 OFFCURVE",
"70 401 OFFCURVE",
"170 401 CURVE SMOOTH",
"248 401 OFFCURVE",
"298 448 OFFCURVE",
"298 508 CURVE SMOOTH",
"298 544 OFFCURVE",
"280 579 OFFCURVE",
"240 594 CURVE",
"231 577 OFFCURVE",
"219 568 OFFCURVE",
"205 568 CURVE SMOOTH",
"183 568 OFFCURVE",
"171 589 OFFCURVE",
"171 628 CURVE SMOOTH",
"171 690 OFFCURVE",
"201 735 OFFCURVE",
"211 750 CURVE"
);
},
{
closed = 1;
nodes = (
"393 751 LINE",
"340 681 OFFCURVE",
"313 638 OFFCURVE",
"313 569 CURVE SMOOTH",
"313 480 OFFCURVE",
"358 402 OFFCURVE",
"458 402 CURVE SMOOTH",
"536 402 OFFCURVE",
"586 449 OFFCURVE",
"586 509 CURVE SMOOTH",
"586 545 OFFCURVE",
"568 580 OFFCURVE",
"528 595 CURVE",
"519 578 OFFCURVE",
"507 569 OFFCURVE",
"493 569 CURVE SMOOTH",
"471 569 OFFCURVE",
"459 590 OFFCURVE",
"459 629 CURVE SMOOTH",
"459 691 OFFCURVE",
"489 736 OFFCURVE",
"499 751 CURVE"
);
}
);
width = 606;
}
);
unicode = 201C;
},
{
glyphname = quotedblright;
layers = (
{
layerId = "4fe7eba9-be7b-4b88-b040-678285d1e8df";
paths = (
{
closed = 1;
nodes = (
"501 423 LINE",
"554 493 OFFCURVE",
"581 536 OFFCURVE",
"581 605 CURVE SMOOTH",
"581 694 OFFCURVE",
"536 772 OFFCURVE",
"436 772 CURVE SMOOTH",
"358 772 OFFCURVE",
"308 725 OFFCURVE",
"308 665 CURVE SMOOTH",
"308 629 OFFCURVE",
"326 594 OFFCURVE",
"366 579 CURVE",
"375 596 OFFCURVE",
"387 605 OFFCURVE",
"401 605 CURVE SMOOTH",
"423 605 OFFCURVE",
"435 584 OFFCURVE",
"435 545 CURVE SMOOTH",
"435 483 OFFCURVE",
"405 438 OFFCURVE",
"395 423 CURVE"
);
},
{
closed = 1;
nodes = (
"213 422 LINE",
"266 492 OFFCURVE",
"293 535 OFFCURVE",
"293 604 CURVE SMOOTH",
"293 693 OFFCURVE",
"248 771 OFFCURVE",
"148 771 CURVE SMOOTH",
"70 771 OFFCURVE",
"20 724 OFFCURVE",
"20 664 CURVE SMOOTH",
"20 628 OFFCURVE",
"38 593 OFFCURVE",
"78 578 CURVE",
"87 595 OFFCURVE",
"99 604 OFFCURVE",
"113 604 CURVE SMOOTH",
"135 604 OFFCURVE",
"147 583 OFFCURVE",
"147 544 CURVE SMOOTH",
"147 482 OFFCURVE",
"117 437 OFFCURVE",
"107 422 CURVE"
);
}
);
width = 606;
}
);
leftKerningGroup = quoteright_2nd;
unicode = 201D;
},
{
glyphname = quotesinglbase;
layers = (
{
layerId = "4fe7eba9-be7b-4b88-b040-678285d1e8df";
paths = (
{
closed = 1;
nodes = (
"213 -128 LINE",
"266 -58 OFFCURVE",
"293 -15 OFFCURVE",
"293 54 CURVE SMOOTH",
"293 143 OFFCURVE",
"248 221 OFFCURVE",
"148 221 CURVE SMOOTH",
"70 221 OFFCURVE",
"20 174 OFFCURVE",
"20 114 CURVE SMOOTH",
"20 78 OFFCURVE",
"38 43 OFFCURVE",
"78 28 CURVE",
"87 45 OFFCURVE",
"99 54 OFFCURVE",
"113 54 CURVE SMOOTH",
"135 54 OFFCURVE",
"147 33 OFFCURVE",
"147 -6 CURVE SMOOTH",
"147 -68 OFFCURVE",
"117 -113 OFFCURVE",
"107 -128 CURVE"
);
}
);
width = 318;
}
);
leftKerningGroup = quotedblbase_2nd;
rightKerningGroup = quotedblbase1_1st;
unicode = 201A;
},
{
glyphname = quotedblbase;
layers = (
{
layerId = "4fe7eba9-be7b-4b88-b040-678285d1e8df";
paths = (
{
closed = 1;
nodes = (
"501 -127 LINE",
"554 -57 OFFCURVE",
"581 -14 OFFCURVE",
"581 55 CURVE SMOOTH",
"581 144 OFFCURVE",
"536 222 OFFCURVE",
"436 222 CURVE SMOOTH",
"358 222 OFFCURVE",
"308 175 OFFCURVE",
"308 115 CURVE SMOOTH",
"308 79 OFFCURVE",
"326 44 OFFCURVE",
"366 29 CURVE",
"375 46 OFFCURVE",
"387 55 OFFCURVE",
"401 55 CURVE SMOOTH",
"423 55 OFFCURVE",
"435 34 OFFCURVE",
"435 -5 CURVE SMOOTH",
"435 -67 OFFCURVE",
"405 -112 OFFCURVE",
"395 -127 CURVE"
);
},
{
closed = 1;
nodes = (
"213 -128 LINE",
"266 -58 OFFCURVE",
"293 -15 OFFCURVE",
"293 54 CURVE SMOOTH",
"293 143 OFFCURVE",
"248 221 OFFCURVE",
"148 221 CURVE SMOOTH",
"70 221 OFFCURVE",
"20 174 OFFCURVE",
"20 114 CURVE SMOOTH",
"20 78 OFFCURVE",
"38 43 OFFCURVE",
"78 28 CURVE",
"87 45 OFFCURVE",
"99 54 OFFCURVE",
"113 54 CURVE SMOOTH",
"135 54 OFFCURVE",
"147 33 OFFCURVE",
"147 -6 CURVE SMOOTH",
"147 -68 OFFCURVE",
"117 -113 OFFCURVE",
"107 -128 CURVE"
);
}
);
width = 606;
}
);
leftKerningGroup = quotedblbase_2nd;
rightKerningGroup = quotedblbase1_1st;
unicode = 201E;
},
{
glyphname = bullet;
layers = (
{
layerId = "4fe7eba9-be7b-4b88-b040-678285d1e8df";
paths = (
{
closed = 1;
nodes = (
"207 277 OFFCURVE",
"211 248 OFFCURVE",
"257 248 CURVE SMOOTH",
"281 248 OFFCURVE",
"316 255 OFFCURVE",
"367 277 CURVE",
"389 209 LINE",
"330 181 OFFCURVE",
"276 168 OFFCURVE",
"229 168 CURVE SMOOTH",
"101 168 OFFCURVE",
"25 260 OFFCURVE",
"25 351 CURVE SMOOTH",
"25 462 OFFCURVE",
"109 532 OFFCURVE",
"212 532 CURVE SMOOTH",
"298 532 OFFCURVE",
"376 484 OFFCURVE",
"376 399 CURVE SMOOTH",
"376 328 OFFCURVE",
"327 288 OFFCURVE",
"259 288 CURVE",
"259 311 OFFCURVE",
"246 316 OFFCURVE",
"235 316 CURVE SMOOTH",
"221 316 OFFCURVE",
"207 307 OFFCURVE",
"207 287 CURVE SMOOTH"
);
}
);
width = 414;
}
);
unicode = 2022;
},
{
glyphname = underscore;
leftMetricsKey = "=minus";
rightMetricsKey = "=minus";
layers = (
{
layerId = "4fe7eba9-be7b-4b88-b040-678285d1e8df";
paths = (
{
closed = 1;
nodes = (
"25 -165 LINE",
"482 -165 LINE",
"482 0 LINE",
"25 0 LINE"
);
}
);
width = 507;
}
);
unicode = 005F;
},
{
glyphname = endash;
leftMetricsKey = "=minus";
rightMetricsKey = "=minus";
layers = (
{
layerId = "4fe7eba9-be7b-4b88-b040-678285d1e8df";
paths = (
{
closed = 1;
nodes = (
"25 268 LINE",
"482 268 LINE",
"482 433 LINE",
"25 433 LINE"
);
}
);
width = 507;
}
);
leftKerningGroup = minus_2nd;
rightKerningGroup = minus1_1st;
unicode = 2013;
},
{
glyphname = emdash;
leftMetricsKey = "=endash";
rightMetricsKey = "=endash";
layers = (
{
layerId = "4fe7eba9-be7b-4b88-b040-678285d1e8df";
paths = (
{
closed = 1;
nodes = (
"25 268 LINE",
"939 268 LINE",
"939 433 LINE",
"25 433 LINE"
);
}
);
width = 964;
}
);
leftKerningGroup = minus_2nd;
rightKerningGroup = minus1_1st;
unicode = 2014;
},
{
glyphname = minus;
leftMetricsKey = "=25";
rightMetricsKey = "=25";
layers = (
{
layerId = "4fe7eba9-be7b-4b88-b040-678285d1e8df";
paths = (
{
closed = 1;
nodes = (
"25 268 LINE",
"482 268 LINE",
"482 433 LINE",
"25 433 LINE"
);
}
);
width = 507;
}
);
leftKerningGroup = minus_2nd;
rightKerningGroup = minus1_1st;
unicode = 2212;
},
{
glyphname = plusminus;
leftMetricsKey = "=I-8";
rightMetricsKey = "=I-8";
layers = (
{
layerId = "4fe7eba9-be7b-4b88-b040-678285d1e8df";
paths = (
{
closed = 1;
nodes = (
"22 368 LINE",
"162 368 LINE",
"162 228 LINE",
"339 228 LINE",
"339 368 LINE",
"479 368 LINE",
"479 533 LINE",
"339 533 LINE",
"339 673 LINE",
"162 673 LINE",
"162 533 LINE",
"22 533 LINE"
);
},
{
closed = 1;
nodes = (
"479 27 LINE",
"479 192 LINE",
"22 192 LINE",
"22 27 LINE"
);
}
);
width = 501;
}
);
unicode = 00B1;
},
{
glyphname = multiply;
leftMetricsKey = "=V";
rightMetricsKey = "=V";
layers = (
{
layerId = "4fe7eba9-be7b-4b88-b040-678285d1e8df";
paths = (
{
closed = 1;
nodes = (
"113 573 LINE",
"455 231 LINE",
"353 128 LINE",
"10 471 LINE"
);
},
{
closed = 1;
nodes = (
"10 231 LINE",
"353 573 LINE",
"455 471 LINE",
"113 128 LINE"
);
}
);
width = 465;
}
);
unicode = 00D7;
},
{
glyphname = divide;
leftMetricsKey = "=minus";
rightMetricsKey = "=minus";
layers = (
{
layerId = "4fe7eba9-be7b-4b88-b040-678285d1e8df";
paths = (
{
closed = 1;
nodes = (
"25 268 LINE",
"522 268 LINE",
"522 433 LINE",
"25 433 LINE"
);
},
{
closed = 1;
nodes = (
"390 624 OFFCURVE",
"346 665 OFFCURVE",
"279 665 CURVE SMOOTH",
"212 665 OFFCURVE",
"168 624 OFFCURVE",
"168 562 CURVE SMOOTH",
"168 501 OFFCURVE",
"212 459 OFFCURVE",
"279 459 CURVE SMOOTH",
"346 459 OFFCURVE",
"390 501 OFFCURVE",
"390 562 CURVE SMOOTH"
);
},
{
closed = 1;
nodes = (
"390 199 OFFCURVE",
"346 240 OFFCURVE",
"279 240 CURVE SMOOTH",
"212 240 OFFCURVE",
"168 199 OFFCURVE",
"168 137 CURVE SMOOTH",
"168 76 OFFCURVE",
"212 35 OFFCURVE",
"279 35 CURVE SMOOTH",
"346 35 OFFCURVE",
"390 76 OFFCURVE",
"390 137 CURVE SMOOTH"
);
}
);
width = 547;
}
);
unicode = 00F7;
},
{
glyphname = brokenbar;
leftMetricsKey = "=I-8";
rightMetricsKey = "=I-8";
layers = (
{
layerId = "4fe7eba9-be7b-4b88-b040-678285d1e8df";
paths = (
{
closed = 1;
nodes = (
"22 -43 LINE",
"222 -43 LINE",
"222 320 LINE",
"22 320 LINE"
);
},
{
closed = 1;
nodes = (
"22 380 LINE",
"222 380 LINE",
"222 743 LINE",
"22 743 LINE"
);
}
);
width = 244;
}
);
unicode = 00A6;
},
{
glyphname = ellipsis;
layers = (
{
layerId = "4fe7eba9-be7b-4b88-b040-678285d1e8df";
paths = (
{
closed = 1;
nodes = (
"25 173 OFFCURVE",
"77 221 OFFCURVE",
"155 221 CURVE SMOOTH",
"232 221 OFFCURVE",
"284 173 OFFCURVE",
"284 102 CURVE SMOOTH",
"284 30 OFFCURVE",
"232 -18 OFFCURVE",
"155 -18 CURVE SMOOTH",
"77 -18 OFFCURVE",
"25 30 OFFCURVE",
"25 102 CURVE SMOOTH"
);
},
{
closed = 1;
nodes = (
"335 173 OFFCURVE",
"387 221 OFFCURVE",
"465 221 CURVE SMOOTH",
"542 221 OFFCURVE",
"594 173 OFFCURVE",
"594 102 CURVE SMOOTH",
"594 30 OFFCURVE",
"542 -18 OFFCURVE",
"465 -18 CURVE SMOOTH",
"387 -18 OFFCURVE",
"335 30 OFFCURVE",
"335 102 CURVE SMOOTH"
);
},
{
closed = 1;
nodes = (
"645 173 OFFCURVE",
"697 221 OFFCURVE",
"775 221 CURVE SMOOTH",
"852 221 OFFCURVE",
"904 173 OFFCURVE",
"904 102 CURVE SMOOTH",
"904 30 OFFCURVE",
"852 -18 OFFCURVE",
"775 -18 CURVE SMOOTH",
"697 -18 OFFCURVE",
"645 30 OFFCURVE",
"645 102 CURVE SMOOTH"
);
}
);
width = 929;
}
);
leftKerningGroup = period_2nd;
rightKerningGroup = period1_1st;
unicode = 2026;
},
{
glyphname = periodcentered;
layers = (
{
layerId = "4fe7eba9-be7b-4b88-b040-678285d1e8df";
paths = (
{
closed = 1;
nodes = (
"25 422 OFFCURVE",
"77 470 OFFCURVE",
"155 470 CURVE SMOOTH",
"232 470 OFFCURVE",
"284 422 OFFCURVE",
"284 351 CURVE SMOOTH",
"284 279 OFFCURVE",
"232 231 OFFCURVE",
"155 231 CURVE SMOOTH",
"77 231 OFFCURVE",
"25 279 OFFCURVE",
"25 351 CURVE SMOOTH"
);
}
);
width = 309;
}
);
unicode = 00B7;
},
{
glyphname = comma;
layers = (
{
components = (
{
name = quotesingle;
alignment = -1;
},
{
name = quotesingle;
alignment = -1;
}
);
guideLines = (
{
angle = 58.22;
position = "{390, 170}";
},
{
angle = 58.22;
position = "{202, 170}";
}
);
layerId = "a0955ac9-5dee-44f4-ae17-c42ddc013fec";
name = altern;
width = 797;
},
{
anchors = (
{
name = _top;
position = "{153, -111}";
}
);
layerId = "4fe7eba9-be7b-4b88-b040-678285d1e8df";
paths = (
{
closed = 1;
nodes = (
"218 -128 LINE",
"271 -58 OFFCURVE",
"298 5 OFFCURVE",
"298 64 CURVE SMOOTH",
"298 143 OFFCURVE",
"253 225 OFFCURVE",
"151 225 CURVE SMOOTH",
"75 225 OFFCURVE",
"25 174 OFFCURVE",
"25 114 CURVE SMOOTH",
"25 78 OFFCURVE",
"43 43 OFFCURVE",
"83 28 CURVE",
"92 45 OFFCURVE",
"104 54 OFFCURVE",
"118 54 CURVE SMOOTH",
"140 54 OFFCURVE",
"152 33 OFFCURVE",
"152 -6 CURVE SMOOTH",
"152 -68 OFFCURVE",
"122 -113 OFFCURVE",
"112 -128 CURVE"
);
}
);
width = 323;
}
);
unicode = 002C;
},
{
glyphname = asciitilde;
leftMetricsKey = "=V";
rightMetricsKey = "=V";
layers = (
{
components = (
{
name = tilde;
transform = "{1, 0, 0, 1, 399, 0}";
alignment = -1;
}
);
guideLines = (
{
angle = 58.22;
position = "{390, 170}";
},
{
angle = 58.22;
position = "{202, 170}";
}
);
layerId = "a0955ac9-5dee-44f4-ae17-c42ddc013fec";
name = altern;
width = 797;
},
{
layerId = "4fe7eba9-be7b-4b88-b040-678285d1e8df";
paths = (
{
closed = 1;
nodes = (
"209 476 OFFCURVE",
"242 461 OFFCURVE",
"306 420 CURVE SMOOTH",
"349 392 OFFCURVE",
"372 380 OFFCURVE",
"396 380 CURVE SMOOTH",
"417 380 OFFCURVE",
"433 389 OFFCURVE",
"433 405 CURVE SMOOTH",
"433 414 OFFCURVE",
"428 423 OFFCURVE",
"411 429 CURVE",
"425 469 OFFCURVE",
"457 487 OFFCURVE",
"491 487 CURVE SMOOTH",
"546 487 OFFCURVE",
"591 440 OFFCURVE",
"591 375 CURVE SMOOTH",
"591 293 OFFCURVE",
"521 229 OFFCURVE",
"431 229 CURVE SMOOTH",
"383 229 OFFCURVE",
"336 247 OFFCURVE",
"285 287 CURVE SMOOTH",
"263 304 OFFCURVE",
"238 320 OFFCURVE",
"209 320 CURVE SMOOTH",
"186 320 OFFCURVE",
"169 310 OFFCURVE",
"169 294 CURVE SMOOTH",
"169 286 OFFCURVE",
"174 277 OFFCURVE",
"191 271 CURVE",
"177 231 OFFCURVE",
"145 213 OFFCURVE",
"111 213 CURVE SMOOTH",
"55 213 OFFCURVE",
"10 261 OFFCURVE",
"10 327 CURVE SMOOTH",
"10 410 OFFCURVE",
"80 476 OFFCURVE",
"167 476 CURVE SMOOTH"
);
}
);
width = 601;
}
);
unicode = 007E;
},
{
glyphname = ampersand.ss01;
leftMetricsKey = "=E";
rightMetricsKey = "=E";
layers = (
{
layerId = "4fe7eba9-be7b-4b88-b040-678285d1e8df";
paths = (
{
closed = 1;
nodes = (
"25 302 OFFCURVE",
"210 380 OFFCURVE",
"524 394 CURVE SMOOTH",
"715 402 OFFCURVE",
"808 432 OFFCURVE",
"808 486 CURVE SMOOTH",
"808 503 OFFCURVE",
"799 513 OFFCURVE",
"785 513 CURVE SMOOTH",
"774 513 OFFCURVE",
"762 506 OFFCURVE",
"762 487 CURVE",
"701 487 OFFCURVE",
"657 523 OFFCURVE",
"657 590 CURVE SMOOTH",
"657 681 OFFCURVE",
"740 718 OFFCURVE",
"820 718 CURVE SMOOTH",
"923 718 OFFCURVE",
"1016 655 OFFCURVE",
"1016 544 CURVE SMOOTH",
"1016 327 OFFCURVE",
"661 316 OFFCURVE",
"541 309 CURVE SMOOTH",
"338 296 OFFCURVE",
"262 260 OFFCURVE",
"262 209 CURVE SMOOTH",
"262 183 OFFCURVE",
"289 164 OFFCURVE",
"330 164 CURVE SMOOTH",
"372 164 OFFCURVE",
"431 184 OFFCURVE",
"436 253 CURVE",
"628 253 LINE",
"628 63 OFFCURVE",
"492 -18 OFFCURVE",
"299 -18 CURVE SMOOTH",
"107 -18 OFFCURVE",
"25 62 OFFCURVE",
"25 158 CURVE SMOOTH"
);
},
{
closed = 1;
nodes = (
"299 718 OFFCURVE",
"400 691 OFFCURVE",
"436 583 CURVE",
"436 700 LINE",
"596 700 LINE",
"596 451 LINE",
"436 451 LINE",
"436 494 OFFCURVE",
"394 554 OFFCURVE",
"331 554 CURVE SMOOTH",
"295 554 OFFCURVE",
"268 535 OFFCURVE",
"268 508 CURVE SMOOTH",
"268 490 OFFCURVE",
"280 474 OFFCURVE",
"292 474 CURVE",
"292 412 OFFCURVE",
"236 378 OFFCURVE",
"171 378 CURVE SMOOTH",
"84 378 OFFCURVE",
"26 440 OFFCURVE",
"25 524 CURVE SMOOTH",
"24 631 OFFCURVE",
"115 718 OFFCURVE",
"233 718 CURVE SMOOTH"
);
},
{
closed = 1;
nodes = (
"954 170 LINE",
"954 0 LINE",
"698 0 LINE",
"698 253 LINE",
"898 253 LINE",
"898 220 LINE SMOOTH",
"898 190 OFFCURVE",
"918 170 OFFCURVE",
"948 170 CURVE SMOOTH"
);
}
);
width = 1036;
}
);
},
{
glyphname = questiondown;
leftMetricsKey = "=question";
rightMetricsKey = "=question";
layers = (
{
layerId = "4fe7eba9-be7b-4b88-b040-678285d1e8df";
paths = (
{
closed = 1;
nodes = (
"493 -18 OFFCURVE",
"613 87 OFFCURVE",
"611 211 CURVE SMOOTH",
"610 293 OFFCURVE",
"555 352 OFFCURVE",
"481 352 CURVE SMOOTH",
"415 352 OFFCURVE",
"374 304 OFFCURVE",
"374 226 CURVE",
"393 226 OFFCURVE",
"403 209 OFFCURVE",
"403 195 CURVE SMOOTH",
"403 167 OFFCURVE",
"369 145 OFFCURVE",
"325 145 CURVE SMOOTH",
"270 145 OFFCURVE",
"237 178 OFFCURVE",
"237 235 CURVE SMOOTH",
"237 297 OFFCURVE",
"275 348 OFFCURVE",
"341 348 CURVE",
"341 422 LINE",
"129 422 OFFCURVE",
"10 349 OFFCURVE",
"10 217 CURVE SMOOTH",
"10 83 OFFCURVE",
"134 -18 OFFCURVE",
"312 -18 CURVE SMOOTH"
);
},
{
closed = 1;
nodes = (
"442 527 OFFCURVE",
"390 479 OFFCURVE",
"312 479 CURVE SMOOTH",
"235 479 OFFCURVE",
"183 527 OFFCURVE",
"183 598 CURVE SMOOTH",
"183 670 OFFCURVE",
"235 718 OFFCURVE",
"312 718 CURVE SMOOTH",
"390 718 OFFCURVE",
"442 670 OFFCURVE",
"442 598 CURVE SMOOTH"
);
}
);
width = 621;
}
);
unicode = 00BF;
},
{
glyphname = exclamdown;
leftMetricsKey = "=exclam";
rightMetricsKey = "=exclam";
layers = (
{
layerId = "4fe7eba9-be7b-4b88-b040-678285d1e8df";
paths = (
{
closed = 1;
nodes = (
"25 152 LINE",
"31 152 LINE SMOOTH",
"61 152 OFFCURVE",
"81 172 OFFCURVE",
"81 202 CURVE SMOOTH",
"81 404 LINE",
"281 404 LINE",
"281 202 LINE SMOOTH",
"281 172 OFFCURVE",
"301 152 OFFCURVE",
"331 152 CURVE SMOOTH",
"337 152 LINE",
"337 -18 LINE",
"25 -18 LINE"
);
},
{
closed = 1;
nodes = (
"257 700 OFFCURVE",
"309 652 OFFCURVE",
"309 580 CURVE SMOOTH",
"309 509 OFFCURVE",
"257 461 OFFCURVE",
"180 461 CURVE SMOOTH",
"102 461 OFFCURVE",
"50 509 OFFCURVE",
"50 580 CURVE SMOOTH",
"50 652 OFFCURVE",
"102 700 OFFCURVE",
"180 700 CURVE SMOOTH"
);
}
);
width = 362;
}
);
unicode = 00A1;
},
{
glyphname = Zacute;
leftMetricsKey = "=Z";
rightMetricsKey = "=Z";
layers = (
{
guideLines = (
{
angle = 41.38;
position = "{109, 294}";
showMeasurement = 1;
},
{
angle = 41.38;
position = "{109, 37}";
showMeasurement = 1;
},
{
angle = 58.22;
position = "{2052, 465}";
}
);
layerId = "4fe7eba9-be7b-4b88-b040-678285d1e8df";
paths = (
{
closed = 1;
nodes = (
"25 191 OFFCURVE",
"53 241 OFFCURVE",
"99 282 CURVE SMOOTH",
"361 512 LINE SMOOTH",
"368 518 OFFCURVE",
"374 529 OFFCURVE",
"374 536 CURVE SMOOTH",
"374 549 OFFCURVE",
"365 558 OFFCURVE",
"353 558 CURVE SMOOTH",
"350 558 OFFCURVE",
"347 557 OFFCURVE",
"343 556 CURVE",
"338 572 OFFCURVE",
"336 586 OFFCURVE",
"336 601 CURVE SMOOTH",
"336 670 OFFCURVE",
"393 718 OFFCURVE",
"476 718 CURVE SMOOTH",
"562 718 OFFCURVE",
"620 659 OFFCURVE",
"620 574 CURVE SMOOTH",
"620 515 OFFCURVE",
"592 459 OFFCURVE",
"550 422 CURVE SMOOTH",
"282 186 LINE SMOOTH",
"275 180 OFFCURVE",
"271 172 OFFCURVE",
"271 164 CURVE SMOOTH",
"271 150 OFFCURVE",
"281 144 OFFCURVE",
"293 144 CURVE SMOOTH",
"296 144 OFFCURVE",
"299 144 OFFCURVE",
"302 145 CURVE",
"307 129 OFFCURVE",
"309 114 OFFCURVE",
"309 100 CURVE SMOOTH",
"309 30 OFFCURVE",
"254 -18 OFFCURVE",
"179 -18 CURVE SMOOTH",
"93 -18 OFFCURVE",
"25 51 OFFCURVE",
"25 136 CURVE SMOOTH"
);
},
{
closed = 1;
nodes = (
"223 530 LINE SMOOTH",
"193 530 OFFCURVE",
"173 510 OFFCURVE",
"173 480 CURVE SMOOTH",
"173 465 LINE",
"53 465 LINE",
"53 700 LINE",
"279 700 LINE",
"279 530 LINE"
);
},
{
closed = 1;
nodes = (
"447 170 LINE SMOOTH",
"477 170 OFFCURVE",
"497 190 OFFCURVE",
"497 220 CURVE SMOOTH",
"497 235 LINE",
"617 235 LINE",
"617 0 LINE",
"380 0 LINE",
"380 170 LINE"
);
},
{
closed = 1;
nodes = (
"209 825 LINE",
"293 825 OFFCURVE",
"350 858 OFFCURVE",
"350 905 CURVE SMOOTH",
"350 928 OFFCURVE",
"337 945 OFFCURVE",
"320 945 CURVE SMOOTH",
"314 945 OFFCURVE",
"309 943 OFFCURVE",
"304 938 CURVE",
"290 951 OFFCURVE",
"282 969 OFFCURVE",
"282 988 CURVE SMOOTH",
"282 1041 OFFCURVE",
"335 1085 OFFCURVE",
"401 1085 CURVE SMOOTH",
"475 1085 OFFCURVE",
"526 1030 OFFCURVE",
"527 946 CURVE SMOOTH",
"529 820 OFFCURVE",
"415 750 OFFCURVE",
"209 750 CURVE"
);
}
);
width = 645;
}
);
leftKerningGroup = Z_2nd;
rightKerningGroup = Z1_1st;
unicode = 0179;
},
{
glyphname = Oacute;
leftMetricsKey = "=O";
rightMetricsKey = "=O";
layers = (
{
anchors = (
{
name = top;
position = "{335, 750}";
}
);
guideLines = (
{
angle = 58.22;
position = "{2065, 465}";
}
);
layerId = "4fe7eba9-be7b-4b88-b040-678285d1e8df";
paths = (
{
closed = 1;
nodes = (
"264 466 LINE",
"274 520 OFFCURVE",
"305 555 OFFCURVE",
"356 555 CURVE SMOOTH",
"398 555 OFFCURVE",
"441 532 OFFCURVE",
"441 484 CURVE SMOOTH",
"441 462 OFFCURVE",
"432 444 OFFCURVE",
"417 444 CURVE SMOOTH",
"411 444 OFFCURVE",
"406 446 OFFCURVE",
"403 449 CURVE",
"387 429 OFFCURVE",
"380 405 OFFCURVE",
"380 380 CURVE SMOOTH",
"380 315 OFFCURVE",
"430 272 OFFCURVE",
"504 272 CURVE SMOOTH",
"596 272 OFFCURVE",
"656 339 OFFCURVE",
"656 441 CURVE SMOOTH",
"656 581 OFFCURVE",
"542 718 OFFCURVE",
"341 718 CURVE SMOOTH",
"165 718 OFFCURVE",
"49 629 OFFCURVE",
"31 466 CURVE"
);
},
{
closed = 1;
nodes = (
"412 234 LINE",
"402 180 OFFCURVE",
"371 145 OFFCURVE",
"320 145 CURVE SMOOTH",
"278 145 OFFCURVE",
"235 168 OFFCURVE",
"235 216 CURVE SMOOTH",
"235 238 OFFCURVE",
"244 256 OFFCURVE",
"259 256 CURVE SMOOTH",
"265 256 OFFCURVE",
"270 254 OFFCURVE",
"273 251 CURVE",
"289 271 OFFCURVE",
"296 295 OFFCURVE",
"296 320 CURVE SMOOTH",
"296 385 OFFCURVE",
"246 428 OFFCURVE",
"172 428 CURVE SMOOTH",
"80 428 OFFCURVE",
"20 361 OFFCURVE",
"20 259 CURVE SMOOTH",
"20 119 OFFCURVE",
"134 -18 OFFCURVE",
"335 -18 CURVE SMOOTH",
"511 -18 OFFCURVE",
"627 71 OFFCURVE",
"645 234 CURVE"
);
},
{
closed = 1;
nodes = (
"198 750 LINE",
"404 750 OFFCURVE",
"518 820 OFFCURVE",
"516 946 CURVE SMOOTH",
"515 1030 OFFCURVE",
"464 1085 OFFCURVE",
"390 1085 CURVE SMOOTH",
"324 1085 OFFCURVE",
"271 1041 OFFCURVE",
"271 988 CURVE SMOOTH",
"271 969 OFFCURVE",
"279 951 OFFCURVE",
"293 938 CURVE",
"298 943 OFFCURVE",
"303 945 OFFCURVE",
"309 945 CURVE SMOOTH",
"326 945 OFFCURVE",
"339 928 OFFCURVE",
"339 905 CURVE SMOOTH",
"339 858 OFFCURVE",
"282 825 OFFCURVE",
"198 825 CURVE"
);
}
);
width = 676;
}
);
leftKerningGroup = O_2nd;
rightKerningGroup = O1_1st;
unicode = 00D3;
},
{
glyphname = Cacute;
leftMetricsKey = "=C";
rightMetricsKey = "=C";
layers = (
{
anchors = (
{
name = top;
position = "{322, 750}";
}
);
guideLines = (
{
angle = 58.22;
position = "{2055, 465}";
}
);
layerId = "4fe7eba9-be7b-4b88-b040-678285d1e8df";
paths = (
{
closed = 1;
nodes = (
"253 389 LINE",
"260 498 OFFCURVE",
"297 556 OFFCURVE",
"363 556 CURVE SMOOTH",
"409 556 OFFCURVE",
"449 528 OFFCURVE",
"449 491 CURVE SMOOTH",
"449 475 OFFCURVE",
"442 464 OFFCURVE",
"434 464 CURVE SMOOTH",
"431 464 OFFCURVE",
"427 465 OFFCURVE",
"424 468 CURVE",
"416 459 OFFCURVE",
"411 445 OFFCURVE",
"411 428 CURVE SMOOTH",
"411 381 OFFCURVE",
"448 336 OFFCURVE",
"512 336 CURVE SMOOTH",
"588 336 OFFCURVE",
"635 398 OFFCURVE",
"635 479 CURVE SMOOTH",
"635 619 OFFCURVE",
"510 718 OFFCURVE",
"335 718 CURVE SMOOTH",
"144 718 OFFCURVE",
"33 600 OFFCURVE",
"21 389 CURVE"
);
},
{
closed = 1;
nodes = (
"20 329 LINE",
"26 92 OFFCURVE",
"127 -18 OFFCURVE",
"340 -18 CURVE SMOOTH",
"522 -18 OFFCURVE",
"628 81 OFFCURVE",
"642 263 CURVE",
"482 263 LINE",
"472 188 OFFCURVE",
"432 145 OFFCURVE",
"370 145 CURVE SMOOTH",
"291 145 OFFCURVE",
"256 199 OFFCURVE",
"252 329 CURVE"
);
},
{
closed = 1;
nodes = (
"193 750 LINE",
"399 750 OFFCURVE",
"513 820 OFFCURVE",
"511 946 CURVE SMOOTH",
"510 1030 OFFCURVE",
"459 1085 OFFCURVE",
"385 1085 CURVE SMOOTH",
"319 1085 OFFCURVE",
"266 1041 OFFCURVE",
"266 988 CURVE SMOOTH",
"266 969 OFFCURVE",
"274 951 OFFCURVE",
"288 938 CURVE",
"293 943 OFFCURVE",
"298 945 OFFCURVE",
"304 945 CURVE SMOOTH",
"321 945 OFFCURVE",
"334 928 OFFCURVE",
"334 905 CURVE SMOOTH",
"334 858 OFFCURVE",
"277 825 OFFCURVE",
"193 825 CURVE"
);
}
);
width = 657;
}
);
leftKerningGroup = C_2nd;
rightKerningGroup = C1_1st;
unicode = 0106;
},
{
glyphname = Uacute;
leftMetricsKey = "=U";
rightMetricsKey = "=U";
layers = (
{
guideLines = (
{
angle = 58.22;
position = "{2084, 465}";
}
);
layerId = "4fe7eba9-be7b-4b88-b040-678285d1e8df";
paths = (
{
closed = 1;
nodes = (
"22 530 LINE",
"28 530 LINE SMOOTH",
"58 530 OFFCURVE",
"78 510 OFFCURVE",
"78 480 CURVE SMOOTH",
"78 259 LINE SMOOTH",
"78 84 OFFCURVE",
"189 -18 OFFCURVE",
"362 -18 CURVE SMOOTH",
"537 -18 OFFCURVE",
"646 87 OFFCURVE",
"646 237 CURVE SMOOTH",
"646 333 OFFCURVE",
"602 392 OFFCURVE",
"532 392 CURVE SMOOTH",
"481 392 OFFCURVE",
"445 360 OFFCURVE",
"445 317 CURVE SMOOTH",
"445 301 OFFCURVE",
"450 286 OFFCURVE",
"461 268 CURVE",
"465 271 OFFCURVE",
"469 273 OFFCURVE",
"474 273 CURVE SMOOTH",
"485 273 OFFCURVE",
"489 262 OFFCURVE",
"489 244 CURVE SMOOTH",
"489 186 OFFCURVE",
"447 145 OFFCURVE",
"385 145 CURVE SMOOTH",
"318 145 OFFCURVE",
"278 194 OFFCURVE",
"278 279 CURVE SMOOTH",
"278 480 LINE SMOOTH",
"278 510 OFFCURVE",
"298 530 OFFCURVE",
"328 530 CURVE SMOOTH",
"334 530 LINE",
"334 700 LINE",
"22 700 LINE"
);
},
{
closed = 1;
nodes = (
"435 530 LINE",
"441 530 LINE SMOOTH",
"471 530 OFFCURVE",
"491 510 OFFCURVE",
"491 480 CURVE SMOOTH",
"491 431 LINE",
"631 431 LINE",
"631 480 LINE SMOOTH",
"631 510 OFFCURVE",
"651 530 OFFCURVE",
"681 530 CURVE SMOOTH",
"687 530 LINE",
"687 700 LINE",
"435 700 LINE"
);
},
{
closed = 1;
nodes = (
"200 750 LINE",
"406 750 OFFCURVE",
"520 820 OFFCURVE",
"518 946 CURVE SMOOTH",
"517 1030 OFFCURVE",
"466 1085 OFFCURVE",
"392 1085 CURVE SMOOTH",
"326 1085 OFFCURVE",
"273 1041 OFFCURVE",
"273 988 CURVE SMOOTH",
"273 969 OFFCURVE",
"281 951 OFFCURVE",
"295 938 CURVE",
"300 943 OFFCURVE",
"305 945 OFFCURVE",
"311 945 CURVE SMOOTH",
"328 945 OFFCURVE",
"341 928 OFFCURVE",
"341 905 CURVE SMOOTH",
"341 858 OFFCURVE",
"284 825 OFFCURVE",
"200 825 CURVE"
);
}
);
width = 709;
}
);
leftKerningGroup = U_2nd;
rightKerningGroup = U1_1st;
unicode = 00DA;
},
{
glyphname = Yacute;
leftMetricsKey = "=Y";
rightMetricsKey = "=Y";
layers = (
{
guideLines = (
{
angle = 58.22;
position = "{2083, 465}";
}
);
layerId = "4fe7eba9-be7b-4b88-b040-678285d1e8df";
paths = (
{
closed = 1;
nodes = (
"239 350 OFFCURVE",
"275 285 OFFCURVE",
"275 233 CURVE SMOOTH",
"275 223 OFFCURVE",
"274 216 OFFCURVE",
"270 208 CURVE",
"268 209 OFFCURVE",
"265 210 OFFCURVE",
"262 210 CURVE SMOOTH",
"249 210 OFFCURVE",
"238 196 OFFCURVE",
"238 179 CURVE SMOOTH",
"238 158 OFFCURVE",
"255 145 OFFCURVE",
"273 145 CURVE SMOOTH",
"293 145 OFFCURVE",
"311 160 OFFCURVE",
"326 187 CURVE SMOOTH",
"481 474 LINE SMOOTH",
"502 513 OFFCURVE",
"509 527 OFFCURVE",
"509 538 CURVE SMOOTH",
"509 548 OFFCURVE",
"502 554 OFFCURVE",
"497 554 CURVE SMOOTH",
"490 554 OFFCURVE",
"486 551 OFFCURVE",
"481 546 CURVE",
"468 559 OFFCURVE",
"455 580 OFFCURVE",
"455 612 CURVE SMOOTH",
"455 674 OFFCURVE",
"506 718 OFFCURVE",
"576 718 CURVE SMOOTH",
"649 718 OFFCURVE",
"704 670 OFFCURVE",
"704 593 CURVE SMOOTH",
"704 557 OFFCURVE",
"692 515 OFFCURVE",
"663 462 CURVE SMOOTH",
"481 133 LINE SMOOTH",
"424 29 OFFCURVE",
"353 -18 OFFCURVE",
"253 -18 CURVE SMOOTH",
"84 -18 OFFCURVE",
"10 73 OFFCURVE",
"10 182 CURVE SMOOTH",
"10 285 OFFCURVE",
"77 350 OFFCURVE",
"158 350 CURVE SMOOTH"
);
},
{
closed = 1;
nodes = (
"81 530 LINE",
"81 700 LINE",
"413 700 LINE",
"413 530 LINE",
"397 530 LINE SMOOTH",
"367 530 OFFCURVE",
"359 514 OFFCURVE",
"378 491 CURVE SMOOTH",
"410 451 LINE",
"317 282 LINE",
"145 506 LINE SMOOTH",
"134 520 OFFCURVE",
"115 530 OFFCURVE",
"97 530 CURVE SMOOTH"
);
},
{
closed = 1;
nodes = (
"230 825 LINE",
"314 825 OFFCURVE",
"371 858 OFFCURVE",
"371 905 CURVE SMOOTH",
"371 928 OFFCURVE",
"358 945 OFFCURVE",
"341 945 CURVE SMOOTH",
"335 945 OFFCURVE",
"330 943 OFFCURVE",
"325 938 CURVE",
"311 951 OFFCURVE",
"303 969 OFFCURVE",
"303 988 CURVE SMOOTH",
"303 1041 OFFCURVE",
"356 1085 OFFCURVE",
"422 1085 CURVE SMOOTH",
"496 1085 OFFCURVE",
"547 1030 OFFCURVE",
"548 946 CURVE SMOOTH",
"550 820 OFFCURVE",
"436 750 OFFCURVE",
"230 750 CURVE"
);
}
);
width = 714;
}
);
leftKerningGroup = Y_2nd;
rightKerningGroup = Y1_1st;
unicode = 00DD;
},
{
glyphname = Lacute;
leftMetricsKey = "=L";
rightMetricsKey = "=L";
layers = (
{
guideLines = (
{
angle = 58.22;
position = "{2067, 465}";
}
);
layerId = "4fe7eba9-be7b-4b88-b040-678285d1e8df";
paths = (
{
closed = 1;
nodes = (
"30 160 OFFCURVE",
"53 203 OFFCURVE",
"94 227 CURVE",
"98 214 OFFCURVE",
"106 207 OFFCURVE",
"116 207 CURVE SMOOTH",
"129 207 OFFCURVE",
"137 217 OFFCURVE",
"137 236 CURVE SMOOTH",
"137 480 LINE SMOOTH",
"137 510 OFFCURVE",
"117 530 OFFCURVE",
"87 530 CURVE SMOOTH",
"81 530 LINE",
"81 700 LINE",
"393 700 LINE",
"393 530 LINE",
"387 530 LINE SMOOTH",
"357 530 OFFCURVE",
"337 510 OFFCURVE",
"337 480 CURVE SMOOTH",
"337 172 LINE SMOOTH",
"337 47 OFFCURVE",
"280 -18 OFFCURVE",
"180 -18 CURVE SMOOTH",
"89 -18 OFFCURVE",
"30 36 OFFCURVE",
"30 112 CURVE SMOOTH"
);
},
{
closed = 1;
nodes = (
"382 170 LINE",
"448 170 LINE SMOOTH",
"478 170 OFFCURVE",
"498 190 OFFCURVE",
"498 220 CURVE SMOOTH",
"498 285 LINE",
"638 285 LINE",
"638 0 LINE",
"382 0 LINE"
);
},
{
closed = 1;
nodes = (
"81 825 LINE",
"165 825 OFFCURVE",
"222 858 OFFCURVE",
"222 905 CURVE SMOOTH",
"222 928 OFFCURVE",
"209 945 OFFCURVE",
"192 945 CURVE SMOOTH",
"186 945 OFFCURVE",
"181 943 OFFCURVE",
"176 938 CURVE",
"162 951 OFFCURVE",
"154 969 OFFCURVE",
"154 988 CURVE SMOOTH",
"154 1041 OFFCURVE",
"207 1085 OFFCURVE",
"273 1085 CURVE SMOOTH",
"347 1085 OFFCURVE",
"398 1030 OFFCURVE",
"399 946 CURVE SMOOTH",
"401 820 OFFCURVE",
"287 750 OFFCURVE",
"81 750 CURVE"
);
}
);
width = 653;
}
);
leftKerningGroup = 2nd;
rightKerningGroup = L1_1st;
unicode = 0139;
},
{
glyphname = Racute;
leftMetricsKey = "=R";
rightMetricsKey = "=R";
layers = (
{
guideLines = (
{
angle = 58.22;
position = "{2101, 465}";
}
);
layerId = "4fe7eba9-be7b-4b88-b040-678285d1e8df";
paths = (
{
closed = 1;
nodes = (
"30 392 OFFCURVE",
"100 330 OFFCURVE",
"181 330 CURVE SMOOTH",
"251 330 OFFCURVE",
"293 376 OFFCURVE",
"293 428 CURVE SMOOTH",
"293 448 OFFCURVE",
"285 466 OFFCURVE",
"274 480 CURVE",
"261 470 OFFCURVE",
"242 484 OFFCURVE",
"242 504 CURVE SMOOTH",
"242 533 OFFCURVE",
"279 556 OFFCURVE",
"325 556 CURVE SMOOTH",
"383 556 OFFCURVE",
"426 518 OFFCURVE",
"426 469 CURVE SMOOTH",
"426 419 OFFCURVE",
"383 374 OFFCURVE",
"323 374 CURVE",
"323 325 LINE SMOOTH",
"323 320 OFFCURVE",
"323 316 OFFCURVE",
"323 311 CURVE",
"328 118 OFFCURVE",
"426 -18 OFFCURVE",
"564 -18 CURVE SMOOTH",
"663 -18 OFFCURVE",
"741 53 OFFCURVE",
"741 147 CURVE SMOOTH",
"741 226 OFFCURVE",
"686 291 OFFCURVE",
"608 291 CURVE SMOOTH",
"572 291 OFFCURVE",
"539 277 OFFCURVE",
"509 249 CURVE",
"518 238 OFFCURVE",
"521 230 OFFCURVE",
"521 223 CURVE SMOOTH",
"521 211 OFFCURVE",
"510 203 OFFCURVE",
"493 203 CURVE SMOOTH",
"452 203 OFFCURVE",
"421 250 OFFCURVE",
"419 318 CURVE",
"557 337 OFFCURVE",
"644 402 OFFCURVE",
"644 499 CURVE SMOOTH",
"644 621 OFFCURVE",
"508 718 OFFCURVE",
"334 718 CURVE SMOOTH",
"160 718 OFFCURVE",
"30 617 OFFCURVE",
"30 487 CURVE SMOOTH"
);
},
{
closed = 1;
nodes = (
"91 220 LINE SMOOTH",
"91 190 OFFCURVE",
"71 170 OFFCURVE",
"41 170 CURVE SMOOTH",
"35 170 LINE",
"35 0 LINE",
"281 0 LINE",
"281 301 LINE",
"91 301 LINE"
);
},
{
closed = 1;
nodes = (
"204 750 LINE",
"410 750 OFFCURVE",
"524 820 OFFCURVE",
"522 946 CURVE SMOOTH",
"521 1030 OFFCURVE",
"470 1085 OFFCURVE",
"396 1085 CURVE SMOOTH",
"330 1085 OFFCURVE",
"277 1041 OFFCURVE",
"277 988 CURVE SMOOTH",
"277 969 OFFCURVE",
"285 951 OFFCURVE",
"299 938 CURVE",
"304 943 OFFCURVE",
"309 945 OFFCURVE",
"315 945 CURVE SMOOTH",
"332 945 OFFCURVE",
"345 928 OFFCURVE",
"345 905 CURVE SMOOTH",
"345 858 OFFCURVE",
"288 825 OFFCURVE",
"204 825 CURVE"
);
}
);
width = 751;
}
);
leftKerningGroup = 2nd;
rightKerningGroup = R1_1st;
unicode = 0154;
},
{
glyphname = Wacute;
leftMetricsKey = "=W";
rightMetricsKey = "=W";
layers = (
{
guideLines = (
{
angle = 58.22;
position = "{2260, 465}";
}
);
layerId = "4fe7eba9-be7b-4b88-b040-678285d1e8df";
paths = (
{
closed = 1;
nodes = (
"22 700 LINE",
"22 530 LINE",
"28 530 LINE SMOOTH",
"58 530 OFFCURVE",
"81 510 OFFCURVE",
"84 480 CURVE SMOOTH",
"112 220 LINE SMOOTH",
"115 190 OFFCURVE",
"98 170 OFFCURVE",
"68 170 CURVE SMOOTH",
"62 170 LINE",
"62 0 LINE",
"366 0 LINE",
"527 0 LINE",
"527 170 LINE",
"522 170 LINE SMOOTH",
"492 170 OFFCURVE",
"482 187 OFFCURVE",
"498 213 CURVE SMOOTH",
"641 443 LINE SMOOTH",
"657 470 OFFCURVE",
"667 500 OFFCURVE",
"669 530 CURVE",
"669 540 LINE SMOOTH",
"669 613 OFFCURVE",
"618 664 OFFCURVE",
"549 664 CURVE SMOOTH",
"481 664 OFFCURVE",
"431 615 OFFCURVE",
"431 559 CURVE SMOOTH",
"431 549 OFFCURVE",
"432 540 OFFCURVE",
"435 530 CURVE SMOOTH",
"438 520 OFFCURVE",
"443 510 OFFCURVE",
"449 501 CURVE",
"454 505 OFFCURVE",
"457 506 OFFCURVE",
"461 506 CURVE SMOOTH",
"470 506 OFFCURVE",
"477 500 OFFCURVE",
"477 490 CURVE SMOOTH",
"477 484 OFFCURVE",
"475 478 OFFCURVE",
"472 472 CURVE SMOOTH",
"320 207 LINE",
"290 480 LINE SMOOTH",
"287 510 OFFCURVE",
"304 530 OFFCURVE",
"334 530 CURVE SMOOTH",
"340 530 LINE",
"340 700 LINE"
);
},
{
closed = 1;
nodes = (
"589 266 LINE",
"643 133 LINE SMOOTH",
"686 26 OFFCURVE",
"750 -18 OFFCURVE",
"839 -18 CURVE SMOOTH",
"937 -18 OFFCURVE",
"1004 42 OFFCURVE",
"1004 127 CURVE SMOOTH",
"1004 201 OFFCURVE",
"953 260 OFFCURVE",
"887 260 CURVE SMOOTH",
"866 260 OFFCURVE",
"847 254 OFFCURVE",
"832 245 CURVE",
"833 243 OFFCURVE",
"834 240 OFFCURVE",
"834 237 CURVE SMOOTH",
"834 227 OFFCURVE",
"827 220 OFFCURVE",
"815 220 CURVE SMOOTH",
"803 220 OFFCURVE",
"795 226 OFFCURVE",
"789 240 CURVE SMOOTH",
"699 450 LINE"
);
},
{
closed = 1;
nodes = (
"770 530 LINE",
"776 530 LINE SMOOTH",
"806 530 OFFCURVE",
"824 510 OFFCURVE",
"820 480 CURVE SMOOTH",
"801 323 LINE",
"961 323 LINE",
"980 480 LINE SMOOTH",
"984 510 OFFCURVE",
"1006 530 OFFCURVE",
"1036 530 CURVE SMOOTH",
"1042 530 LINE",
"1042 700 LINE",
"770 700 LINE"
);
},
{
closed = 1;
nodes = (
"397 750 LINE",
"603 750 OFFCURVE",
"717 820 OFFCURVE",
"715 946 CURVE SMOOTH",
"714 1030 OFFCURVE",
"663 1085 OFFCURVE",
"589 1085 CURVE SMOOTH",
"523 1085 OFFCURVE",
"470 1041 OFFCURVE",
"470 988 CURVE SMOOTH",
"470 969 OFFCURVE",
"478 951 OFFCURVE",
"492 938 CURVE",
"497 943 OFFCURVE",
"502 945 OFFCURVE",
"508 945 CURVE SMOOTH",
"525 945 OFFCURVE",
"538 928 OFFCURVE",
"538 905 CURVE SMOOTH",
"538 858 OFFCURVE",
"481 825 OFFCURVE",
"397 825 CURVE"
);
}
);
width = 1064;
}
);
leftKerningGroup = W_2nd;
rightKerningGroup = W1_1st;
unicode = 1E82;
},
{
glyphname = Aacute;
leftMetricsKey = "=A";
rightMetricsKey = "=A";
layers = (
{
guideLines = (
{
angle = 58.22;
position = "{2183, 465}";
}
);
layerId = "4fe7eba9-be7b-4b88-b040-678285d1e8df";
paths = (
{
closed = 1;
nodes = (
"153 530 LINE SMOOTH",
"183 530 OFFCURVE",
"198 511 OFFCURVE",
"190 482 CURVE SMOOTH",
"163 378 LINE",
"343 378 LINE",
"373 491 LINE",
"441 219 LINE SMOOTH",
"448 190 OFFCURVE",
"433 170 OFFCURVE",
"403 170 CURVE SMOOTH",
"397 170 LINE",
"397 0 LINE",
"741 0 LINE",
"741 170 LINE",
"715 170 LINE SMOOTH",
"685 170 OFFCURVE",
"660 189 OFFCURVE",
"653 218 CURVE SMOOTH",
"586 482 LINE SMOOTH",
"579 511 OFFCURVE",
"594 530 OFFCURVE",
"624 530 CURVE SMOOTH",
"630 530 LINE",
"630 700 LINE",
"137 700 LINE",
"137 530 LINE"
);
},
{
closed = 1;
nodes = (
"10 44 OFFCURVE",
"91 -18 OFFCURVE",
"191 -18 CURVE SMOOTH",
"273 -18 OFFCURVE",
"349 24 OFFCURVE",
"349 101 CURVE SMOOTH",
"349 164 OFFCURVE",
"305 200 OFFCURVE",
"244 200 CURVE",
"244 180 OFFCURVE",
"233 174 OFFCURVE",
"223 174 CURVE SMOOTH",
"210 174 OFFCURVE",
"198 183 OFFCURVE",
"198 201 CURVE SMOOTH",
"198 215 OFFCURVE",
"205 252 OFFCURVE",
"369 252 CURVE",
"369 336 LINE",
"138 336 OFFCURVE",
"10 267 OFFCURVE",
"10 143 CURVE SMOOTH"
);
},
{
closed = 1;
nodes = (
"236 750 LINE",
"442 750 OFFCURVE",
"556 820 OFFCURVE",
"554 946 CURVE SMOOTH",
"553 1030 OFFCURVE",
"502 1085 OFFCURVE",
"428 1085 CURVE SMOOTH",
"362 1085 OFFCURVE",
"309 1041 OFFCURVE",
"309 988 CURVE SMOOTH",
"309 969 OFFCURVE",
"317 951 OFFCURVE",
"331 938 CURVE",
"336 943 OFFCURVE",
"341 945 OFFCURVE",
"347 945 CURVE SMOOTH",
"364 945 OFFCURVE",
"377 928 OFFCURVE",
"377 905 CURVE SMOOTH",
"377 858 OFFCURVE",
"320 825 OFFCURVE",
"236 825 CURVE"
);
}
);
width = 751;
}
);
leftKerningGroup = A_2nd;
rightKerningGroup = A1_1st;
unicode = 00C1;
},
{
glyphname = Eacute;
leftMetricsKey = "=E";
rightMetricsKey = "=E";
layers = (
{
guideLines = (
{
angle = 58.22;
position = "{2054, 465}";
}
);
layerId = "4fe7eba9-be7b-4b88-b040-678285d1e8df";
paths = (
{
closed = 1;
nodes = (
"25.008 62 OFFCURVE",
"121.008 -18 OFFCURVE",
"313.008 -18 CURVE SMOOTH",
"506.008 -18 OFFCURVE",
"628.008 63 OFFCURVE",
"628.008 253 CURVE",
"436.008 253 LINE",
"431.008 184 OFFCURVE",
"372.008 164 OFFCURVE",
"330.008 164 CURVE SMOOTH",
"289.008 164 OFFCURVE",
"262.008 183 OFFCURVE",
"262.008 209 CURVE SMOOTH",
"262.008 260 OFFCURVE",
"338.008 306 OFFCURVE",
"551.008 306 CURVE",
"551.008 390 LINE",
"210.008 390 OFFCURVE",
"25.008 302 OFFCURVE",
"25.008 162 CURVE SMOOTH"
);
},
{
closed = 1;
nodes = (
"26.008 440 OFFCURVE",
"84.008 378 OFFCURVE",
"171.008 378 CURVE SMOOTH",
"236.008 378 OFFCURVE",
"292.008 412 OFFCURVE",
"292.008 474 CURVE",
"280.008 474 OFFCURVE",
"268.008 490 OFFCURVE",
"268.008 508 CURVE SMOOTH",
"268.008 535 OFFCURVE",
"295.008 554 OFFCURVE",
"331.008 554 CURVE SMOOTH",
"394.008 554 OFFCURVE",
"436.008 494 OFFCURVE",
"436.008 451 CURVE",
"596.008 451 LINE",
"596.008 700 LINE",
"436.008 700 LINE",
"436.008 583 LINE",
"400.008 691 OFFCURVE",
"299.008 718 OFFCURVE",
"233.008 718 CURVE SMOOTH",
"115.008 718 OFFCURVE",
"24.008 631 OFFCURVE",
"25.008 524 CURVE SMOOTH"
);
},
{
closed = 1;
nodes = (
"191.008 750 LINE",
"397.008 750 OFFCURVE",
"511.008 820 OFFCURVE",
"509.008 946 CURVE SMOOTH",
"508.008 1030 OFFCURVE",
"457.008 1085 OFFCURVE",
"383.008 1085 CURVE SMOOTH",
"317.008 1085 OFFCURVE",
"264.008 1041 OFFCURVE",
"264.008 988 CURVE SMOOTH",
"264.008 969 OFFCURVE",
"272.008 951 OFFCURVE",
"286.008 938 CURVE",
"291.008 943 OFFCURVE",
"296.008 945 OFFCURVE",
"302.008 945 CURVE SMOOTH",
"319.008 945 OFFCURVE",
"332.008 928 OFFCURVE",
"332.008 905 CURVE SMOOTH",
"332.008 858 OFFCURVE",
"275.008 825 OFFCURVE",
"191.008 825 CURVE"
);
}
);
width = 648;
}
);
leftKerningGroup = E_2nd;
rightKerningGroup = E1_1st;
unicode = 00C9;
},
{
glyphname = Iacute;
leftMetricsKey = "=I";
rightMetricsKey = "=I";
layers = (
{
guideLines = (
{
angle = 58.22;
position = "{1918, 465}";
}
);
layerId = "4fe7eba9-be7b-4b88-b040-678285d1e8df";
paths = (
{
closed = 1;
nodes = (
"36 530 LINE SMOOTH",
"66 530 OFFCURVE",
"86 510 OFFCURVE",
"86 480 CURVE SMOOTH",
"86 220 LINE SMOOTH",
"86 190 OFFCURVE",
"66 170 OFFCURVE",
"36 170 CURVE SMOOTH",
"30 170 LINE",
"30 0 LINE",
"342 0 LINE",
"342 170 LINE",
"336 170 LINE SMOOTH",
"306 170 OFFCURVE",
"286 190 OFFCURVE",
"286 220 CURVE SMOOTH",
"286 480 LINE SMOOTH",
"286 510 OFFCURVE",
"306 530 OFFCURVE",
"336 530 CURVE SMOOTH",
"342 530 LINE",
"342 700 LINE",
"30 700 LINE",
"30 530 LINE"
);
},
{
closed = 1;
nodes = (
"30 750 LINE",
"236 750 OFFCURVE",
"350 820 OFFCURVE",
"348 946 CURVE SMOOTH",
"347 1030 OFFCURVE",
"296 1085 OFFCURVE",
"222 1085 CURVE SMOOTH",
"156 1085 OFFCURVE",
"103 1041 OFFCURVE",
"103 988 CURVE SMOOTH",
"103 969 OFFCURVE",
"111 951 OFFCURVE",
"125 938 CURVE",
"130 943 OFFCURVE",
"135 945 OFFCURVE",
"141 945 CURVE SMOOTH",
"158 945 OFFCURVE",
"171 928 OFFCURVE",
"171 905 CURVE SMOOTH",
"171 858 OFFCURVE",
"114 825 OFFCURVE",
"30 825 CURVE"
);
}
);
width = 372;
}
);
leftKerningGroup = F_2nd;
rightKerningGroup = I_1st;
unicode = 00CD;
},
{
glyphname = approxequal;
leftMetricsKey = "=V";
rightMetricsKey = "=V";
layers = (
{
layerId = "4fe7eba9-be7b-4b88-b040-678285d1e8df";
paths = (
{
closed = 1;
nodes = (
"189 316 OFFCURVE",
"219 302 OFFCURVE",
"276 265 CURVE SMOOTH",
"315 240 OFFCURVE",
"336 229 OFFCURVE",
"357 229 CURVE SMOOTH",
"376 229 OFFCURVE",
"391 238 OFFCURVE",
"391 252 CURVE SMOOTH",
"391 260 OFFCURVE",
"386 268 OFFCURVE",
"371 274 CURVE",
"383 310 OFFCURVE",
"412 326 OFFCURVE",
"442 326 CURVE SMOOTH",
"492 326 OFFCURVE",
"533 283 OFFCURVE",
"533 224 CURVE SMOOTH",
"533 151 OFFCURVE",
"470 94 OFFCURVE",
"389 94 CURVE SMOOTH",
"346 94 OFFCURVE",
"303 110 OFFCURVE",
"257 146 CURVE SMOOTH",
"238 161 OFFCURVE",
"215 175 OFFCURVE",
"189 175 CURVE SMOOTH",
"168 175 OFFCURVE",
"153 166 OFFCURVE",
"153 153 CURVE SMOOTH",
"153 145 OFFCURVE",
"158 137 OFFCURVE",
"173 131 CURVE",
"160 95 OFFCURVE",
"131 79 OFFCURVE",
"100 79 CURVE SMOOTH",
"50 79 OFFCURVE",
"10 122 OFFCURVE",
"10 181 CURVE SMOOTH",
"10 256 OFFCURVE",
"73 316 OFFCURVE",
"151 316 CURVE SMOOTH"
);
},
{
closed = 1;
nodes = (
"189 595 OFFCURVE",
"219 581 OFFCURVE",
"276 544 CURVE SMOOTH",
"315 519 OFFCURVE",
"336 508 OFFCURVE",
"357 508 CURVE SMOOTH",
"376 508 OFFCURVE",
"391 517 OFFCURVE",
"391 531 CURVE SMOOTH",
"391 539 OFFCURVE",
"386 547 OFFCURVE",
"371 553 CURVE",
"383 589 OFFCURVE",
"412 605 OFFCURVE",
"442 605 CURVE SMOOTH",
"492 605 OFFCURVE",
"533 562 OFFCURVE",
"533 503 CURVE SMOOTH",
"533 430 OFFCURVE",
"470 373 OFFCURVE",
"389 373 CURVE SMOOTH",
"346 373 OFFCURVE",
"303 389 OFFCURVE",
"257 425 CURVE SMOOTH",
"238 440 OFFCURVE",
"215 454 OFFCURVE",
"189 454 CURVE SMOOTH",
"168 454 OFFCURVE",
"153 445 OFFCURVE",
"153 432 CURVE SMOOTH",
"153 424 OFFCURVE",
"158 416 OFFCURVE",
"173 410 CURVE",
"160 374 OFFCURVE",
"131 358 OFFCURVE",
"100 358 CURVE SMOOTH",
"50 358 OFFCURVE",
"10 401 OFFCURVE",
"10 460 CURVE SMOOTH",
"10 535 OFFCURVE",
"73 595 OFFCURVE",
"151 595 CURVE SMOOTH"
);
}
);
width = 543;
}
);
unicode = 2248;
},
{
glyphname = Iogonek;
leftMetricsKey = "=I";
rightMetricsKey = "=I";
layers = (
{
layerId = "4fe7eba9-be7b-4b88-b040-678285d1e8df";
paths = (
{
closed = 1;
nodes = (
"36 530 LINE SMOOTH",
"66 530 OFFCURVE",
"86 510 OFFCURVE",
"86 480 CURVE SMOOTH",
"86 220 LINE SMOOTH",
"86 190 OFFCURVE",
"66 170 OFFCURVE",
"36 170 CURVE SMOOTH",
"30 170 LINE",
"30 0 LINE",
"342 0 LINE",
"342 170 LINE",
"336 170 LINE SMOOTH",
"306 170 OFFCURVE",
"286 190 OFFCURVE",
"286 220 CURVE SMOOTH",
"286 480 LINE SMOOTH",
"286 510 OFFCURVE",
"306 530 OFFCURVE",
"336 530 CURVE SMOOTH",
"342 530 LINE",
"342 700 LINE",
"30 700 LINE",
"30 530 LINE"
);
},
{
closed = 1;
nodes = (
"151 -136 OFFCURVE",
"178 -89 OFFCURVE",
"342 -89 CURVE",
"342 -33 LINE",
"121 -33 OFFCURVE",
"-17 -91 OFFCURVE",
"-17 -203 CURVE SMOOTH",
"-17 -277 OFFCURVE",
"44 -339 OFFCURVE",
"159 -339 CURVE SMOOTH",
"241 -339 OFFCURVE",
"302 -307 OFFCURVE",
"302 -237 CURVE SMOOTH",
"302 -183 OFFCURVE",
"265 -151 OFFCURVE",
"197 -151 CURVE",
"197 -171 OFFCURVE",
"186 -177 OFFCURVE",
"176 -177 CURVE SMOOTH",
"162 -177 OFFCURVE",
"151 -167 OFFCURVE",
"151 -155 CURVE SMOOTH"
);
}
);
width = 372;
}
);
leftKerningGroup = F_2nd;
rightKerningGroup = I_1st;
unicode = 012E;
},
{
glyphname = Nacute;
leftMetricsKey = "=N";
rightMetricsKey = "=N";
layers = (
{
guideLines = (
{
angle = 123.18;
position = "{657, 79}";
showMeasurement = 1;
},
{
angle = 58.22;
position = "{2101, 465}";
}
);
layerId = "4fe7eba9-be7b-4b88-b040-678285d1e8df";
paths = (
{
closed = 1;
nodes = (
"30 700 LINE",
"270 700 LINE",
"500 240 LINE SMOOTH",
"507 226 OFFCURVE",
"515 220 OFFCURVE",
"526 220 CURVE SMOOTH",
"538 220 OFFCURVE",
"545 227 OFFCURVE",
"545 237 CURVE SMOOTH",
"545 240 OFFCURVE",
"544 243 OFFCURVE",
"543 245 CURVE",
"558 254 OFFCURVE",
"577 260 OFFCURVE",
"598 260 CURVE SMOOTH",
"664 260 OFFCURVE",
"715 201 OFFCURVE",
"715 127 CURVE SMOOTH",
"715 42 OFFCURVE",
"649 -18 OFFCURVE",
"554 -18 CURVE SMOOTH",
"467 -18 OFFCURVE",
"404 30 OFFCURVE",
"354 133 CURVE SMOOTH",
"226 397 LINE",
"226 220 LINE SMOOTH",
"226 190 OFFCURVE",
"246 170 OFFCURVE",
"276 170 CURVE SMOOTH",
"282 170 LINE",
"282 0 LINE",
"30 0 LINE",
"30 170 LINE",
"36 170 LINE SMOOTH",
"66 170 OFFCURVE",
"86 190 OFFCURVE",
"86 220 CURVE SMOOTH",
"86 480 LINE SMOOTH",
"86 510 OFFCURVE",
"66 530 OFFCURVE",
"36 530 CURVE SMOOTH",
"30 530 LINE"
);
},
{
closed = 1;
nodes = (
"452 700 LINE",
"704 700 LINE",
"704 530 LINE",
"698 530 LINE SMOOTH",
"668 530 OFFCURVE",
"648 510 OFFCURVE",
"648 480 CURVE SMOOTH",
"648 351 LINE",
"508 351 LINE",
"508 480 LINE SMOOTH",
"508 510 OFFCURVE",
"488 530 OFFCURVE",
"458 530 CURVE SMOOTH",
"452 530 LINE"
);
},
{
closed = 1;
nodes = (
"225 825 LINE",
"309 825 OFFCURVE",
"366 858 OFFCURVE",
"366 905 CURVE SMOOTH",
"366 928 OFFCURVE",
"353 945 OFFCURVE",
"336 945 CURVE SMOOTH",
"330 945 OFFCURVE",
"325 943 OFFCURVE",
"320 938 CURVE",
"306 951 OFFCURVE",
"298 969 OFFCURVE",
"298 988 CURVE SMOOTH",
"298 1041 OFFCURVE",
"351 1085 OFFCURVE",
"417 1085 CURVE SMOOTH",
"491 1085 OFFCURVE",
"542 1030 OFFCURVE",
"543 946 CURVE SMOOTH",
"545 820 OFFCURVE",
"431 750 OFFCURVE",
"225 750 CURVE"
);
}
);
width = 735;
}
);
leftKerningGroup = N_2nd;
rightKerningGroup = N1_1st;
unicode = 0143;
},
{
glyphname = grave;
layers = (
{
components = (
{
name = acute;
transform = "{1, 0, 0, 1, 399, 0}";
alignment = -1;
}
);
guideLines = (
{
angle = 58.22;
position = "{390, 170}";
},
{
angle = 58.22;
position = "{202, 170}";
}
);
layerId = "a0955ac9-5dee-44f4-ae17-c42ddc013fec";
name = altern;
width = 797;
},
{
layerId = "4fe7eba9-be7b-4b88-b040-678285d1e8df";
paths = (
{
closed = 1;
nodes = (
"301 750 LINE",
"95 750 OFFCURVE",
"-19 820 OFFCURVE",
"-17 946 CURVE SMOOTH",
"-16 1030 OFFCURVE",
"35 1085 OFFCURVE",
"109 1085 CURVE SMOOTH",
"175 1085 OFFCURVE",
"228 1041 OFFCURVE",
"228 988 CURVE SMOOTH",
"228 969 OFFCURVE",
"220 951 OFFCURVE",
"206 938 CURVE",
"201 943 OFFCURVE",
"196 945 OFFCURVE",
"190 945 CURVE SMOOTH",
"173 945 OFFCURVE",
"160 928 OFFCURVE",
"160 905 CURVE SMOOTH",
"160 858 OFFCURVE",
"217 825 OFFCURVE",
"301 825 CURVE"
);
}
);
width = 281;
}
);
unicode = 0060;
},
{
glyphname = Agrave;
leftMetricsKey = "=A";
rightMetricsKey = "=A";
layers = (
{
layerId = "4fe7eba9-be7b-4b88-b040-678285d1e8df";
paths = (
{
closed = 1;
nodes = (
"153 530 LINE SMOOTH",
"183 530 OFFCURVE",
"198 511 OFFCURVE",
"190 482 CURVE SMOOTH",
"163 378 LINE",
"343 378 LINE",
"373 491 LINE",
"441 219 LINE SMOOTH",
"448 190 OFFCURVE",
"433 170 OFFCURVE",
"403 170 CURVE SMOOTH",
"397 170 LINE",
"397 0 LINE",
"741 0 LINE",
"741 170 LINE",
"715 170 LINE SMOOTH",
"685 170 OFFCURVE",
"660 189 OFFCURVE",
"653 218 CURVE SMOOTH",
"586 482 LINE SMOOTH",
"579 511 OFFCURVE",
"594 530 OFFCURVE",
"624 530 CURVE SMOOTH",
"630 530 LINE",
"630 700 LINE",
"137 700 LINE",
"137 530 LINE"
);
},
{
closed = 1;
nodes = (
"10 44 OFFCURVE",
"91 -18 OFFCURVE",
"191 -18 CURVE SMOOTH",
"273 -18 OFFCURVE",
"349 24 OFFCURVE",
"349 101 CURVE SMOOTH",
"349 164 OFFCURVE",
"305 200 OFFCURVE",
"244 200 CURVE",
"244 180 OFFCURVE",
"233 174 OFFCURVE",
"223 174 CURVE SMOOTH",
"210 174 OFFCURVE",
"198 183 OFFCURVE",
"198 201 CURVE SMOOTH",
"198 215 OFFCURVE",
"205 252 OFFCURVE",
"369 252 CURVE",
"369 336 LINE",
"138 336 OFFCURVE",
"10 267 OFFCURVE",
"10 143 CURVE SMOOTH"
);
},
{
closed = 1;
nodes = (
"536 825 LINE",
"452 825 OFFCURVE",
"395 858 OFFCURVE",
"395 905 CURVE SMOOTH",
"395 928 OFFCURVE",
"408 945 OFFCURVE",
"425 945 CURVE SMOOTH",
"431 945 OFFCURVE",
"436 943 OFFCURVE",
"441 938 CURVE",
"455 951 OFFCURVE",
"463 969 OFFCURVE",
"463 988 CURVE SMOOTH",
"463 1041 OFFCURVE",
"410 1085 OFFCURVE",
"344 1085 CURVE SMOOTH",
"270 1085 OFFCURVE",
"219 1030 OFFCURVE",
"218 946 CURVE SMOOTH",
"216 820 OFFCURVE",
"330 750 OFFCURVE",
"536 750 CURVE"
);
}
);
width = 751;
}
);
leftKerningGroup = A_2nd;
rightKerningGroup = A1_1st;
unicode = 00C0;
},
{
glyphname = Egrave;
leftMetricsKey = "=E";
rightMetricsKey = "=E";
layers = (
{
layerId = "4fe7eba9-be7b-4b88-b040-678285d1e8df";
paths = (
{
closed = 1;
nodes = (
"25.008 62 OFFCURVE",
"121.008 -18 OFFCURVE",
"313.008 -18 CURVE SMOOTH",
"506.008 -18 OFFCURVE",
"628.008 63 OFFCURVE",
"628.008 253 CURVE",
"436.008 253 LINE",
"431.008 184 OFFCURVE",
"372.008 164 OFFCURVE",
"330.008 164 CURVE SMOOTH",
"289.008 164 OFFCURVE",
"262.008 183 OFFCURVE",
"262.008 209 CURVE SMOOTH",
"262.008 260 OFFCURVE",
"338.008 306 OFFCURVE",
"551.008 306 CURVE",
"551.008 390 LINE",
"210.008 390 OFFCURVE",
"25.008 302 OFFCURVE",
"25.008 162 CURVE SMOOTH"
);
},
{
closed = 1;
nodes = (
"26.008 440 OFFCURVE",
"84.008 378 OFFCURVE",
"171.008 378 CURVE SMOOTH",
"236.008 378 OFFCURVE",
"292.008 412 OFFCURVE",
"292.008 474 CURVE",
"280.008 474 OFFCURVE",
"268.008 490 OFFCURVE",
"268.008 508 CURVE SMOOTH",
"268.008 535 OFFCURVE",
"295.008 554 OFFCURVE",
"331.008 554 CURVE SMOOTH",
"394.008 554 OFFCURVE",
"436.008 494 OFFCURVE",
"436.008 451 CURVE",
"596.008 451 LINE",
"596.008 700 LINE",
"436.008 700 LINE",
"436.008 583 LINE",
"400.008 691 OFFCURVE",
"299.008 718 OFFCURVE",
"233.008 718 CURVE SMOOTH",
"115.008 718 OFFCURVE",
"24.008 631 OFFCURVE",
"25.008 524 CURVE SMOOTH"
);
},
{
closed = 1;
nodes = (
"485.008 825 LINE",
"401.008 825 OFFCURVE",
"344.008 858 OFFCURVE",
"344.008 905 CURVE SMOOTH",
"344.008 928 OFFCURVE",
"357.008 945 OFFCURVE",
"374.008 945 CURVE SMOOTH",
"380.008 945 OFFCURVE",
"385.008 943 OFFCURVE",
"390.008 938 CURVE",
"404.008 951 OFFCURVE",
"412.008 969 OFFCURVE",
"412.008 988 CURVE SMOOTH",
"412.008 1041 OFFCURVE",
"359.008 1085 OFFCURVE",
"293.008 1085 CURVE SMOOTH",
"219.008 1085 OFFCURVE",
"168.008 1030 OFFCURVE",
"167.008 946 CURVE SMOOTH",
"165.008 820 OFFCURVE",
"279.008 750 OFFCURVE",
"485.008 750 CURVE"
);
}
);
width = 648;
}
);
leftKerningGroup = E_2nd;
rightKerningGroup = E1_1st;
unicode = 00C8;
},
{
glyphname = Igrave;
leftMetricsKey = "=I";
rightMetricsKey = "=I";
layers = (
{
layerId = "4fe7eba9-be7b-4b88-b040-678285d1e8df";
paths = (
{
closed = 1;
nodes = (
"36 530 LINE SMOOTH",
"66 530 OFFCURVE",
"86 510 OFFCURVE",
"86 480 CURVE SMOOTH",
"86 220 LINE SMOOTH",
"86 190 OFFCURVE",
"66 170 OFFCURVE",
"36 170 CURVE SMOOTH",
"30 170 LINE",
"30 0 LINE",
"342 0 LINE",
"342 170 LINE",
"336 170 LINE SMOOTH",
"306 170 OFFCURVE",
"286 190 OFFCURVE",
"286 220 CURVE SMOOTH",
"286 480 LINE SMOOTH",
"286 510 OFFCURVE",
"306 530 OFFCURVE",
"336 530 CURVE SMOOTH",
"342 530 LINE",
"342 700 LINE",
"30 700 LINE",
"30 530 LINE"
);
},
{
closed = 1;
nodes = (
"344 825 LINE",
"260 825 OFFCURVE",
"203 858 OFFCURVE",
"203 905 CURVE SMOOTH",
"203 928 OFFCURVE",
"216 945 OFFCURVE",
"233 945 CURVE SMOOTH",
"239 945 OFFCURVE",
"244 943 OFFCURVE",
"249 938 CURVE",
"263 951 OFFCURVE",
"271 969 OFFCURVE",
"271 988 CURVE SMOOTH",
"271 1041 OFFCURVE",
"218 1085 OFFCURVE",
"152 1085 CURVE SMOOTH",
"78 1085 OFFCURVE",
"27 1030 OFFCURVE",
"26 946 CURVE SMOOTH",
"24 820 OFFCURVE",
"138 750 OFFCURVE",
"344 750 CURVE"
);
}
);
width = 372;
}
);
leftKerningGroup = F_2nd;
rightKerningGroup = I_1st;
unicode = 00CC;
},
{
glyphname = Ograve;
leftMetricsKey = "=O";
rightMetricsKey = "=O";
layers = (
{
anchors = (
{
name = top;
position = "{335, 750}";
}
);
layerId = "4fe7eba9-be7b-4b88-b040-678285d1e8df";
paths = (
{
closed = 1;
nodes = (
"264 466 LINE",
"274 520 OFFCURVE",
"305 555 OFFCURVE",
"356 555 CURVE SMOOTH",
"398 555 OFFCURVE",
"441 532 OFFCURVE",
"441 484 CURVE SMOOTH",
"441 462 OFFCURVE",
"432 444 OFFCURVE",
"417 444 CURVE SMOOTH",
"411 444 OFFCURVE",
"406 446 OFFCURVE",
"403 449 CURVE",
"387 429 OFFCURVE",
"380 405 OFFCURVE",
"380 380 CURVE SMOOTH",
"380 315 OFFCURVE",
"430 272 OFFCURVE",
"504 272 CURVE SMOOTH",
"596 272 OFFCURVE",
"656 339 OFFCURVE",
"656 441 CURVE SMOOTH",
"656 581 OFFCURVE",
"542 718 OFFCURVE",
"341 718 CURVE SMOOTH",
"165 718 OFFCURVE",
"49 629 OFFCURVE",
"31 466 CURVE"
);
},
{
closed = 1;
nodes = (
"412 234 LINE",
"402 180 OFFCURVE",
"371 145 OFFCURVE",
"320 145 CURVE SMOOTH",
"278 145 OFFCURVE",
"235 168 OFFCURVE",
"235 216 CURVE SMOOTH",
"235 238 OFFCURVE",
"244 256 OFFCURVE",
"259 256 CURVE SMOOTH",
"265 256 OFFCURVE",
"270 254 OFFCURVE",
"273 251 CURVE",
"289 271 OFFCURVE",
"296 295 OFFCURVE",
"296 320 CURVE SMOOTH",
"296 385 OFFCURVE",
"246 428 OFFCURVE",
"172 428 CURVE SMOOTH",
"80 428 OFFCURVE",
"20 361 OFFCURVE",
"20 259 CURVE SMOOTH",
"20 119 OFFCURVE",
"134 -18 OFFCURVE",
"335 -18 CURVE SMOOTH",
"511 -18 OFFCURVE",
"627 71 OFFCURVE",
"645 234 CURVE"
);
},
{
closed = 1;
nodes = (
"481 825 LINE",
"397 825 OFFCURVE",
"340 858 OFFCURVE",
"340 905 CURVE SMOOTH",
"340 928 OFFCURVE",
"353 945 OFFCURVE",
"370 945 CURVE SMOOTH",
"376 945 OFFCURVE",
"381 943 OFFCURVE",
"386 938 CURVE",
"400 951 OFFCURVE",
"408 969 OFFCURVE",
"408 988 CURVE SMOOTH",
"408 1041 OFFCURVE",
"355 1085 OFFCURVE",
"289 1085 CURVE SMOOTH",
"215 1085 OFFCURVE",
"164 1030 OFFCURVE",
"163 946 CURVE SMOOTH",
"161 820 OFFCURVE",
"275 750 OFFCURVE",
"481 750 CURVE"
);
}
);
width = 676;
}
);
leftKerningGroup = O_2nd;
rightKerningGroup = O1_1st;
unicode = 00D2;
},
{
glyphname = Ugrave;
leftMetricsKey = "=U";
rightMetricsKey = "=U";
layers = (
{
layerId = "4fe7eba9-be7b-4b88-b040-678285d1e8df";
paths = (
{
closed = 1;
nodes = (
"22 530 LINE",
"28 530 LINE SMOOTH",
"58 530 OFFCURVE",
"78 510 OFFCURVE",
"78 480 CURVE SMOOTH",
"78 259 LINE SMOOTH",
"78 84 OFFCURVE",
"189 -18 OFFCURVE",
"362 -18 CURVE SMOOTH",
"537 -18 OFFCURVE",
"646 87 OFFCURVE",
"646 237 CURVE SMOOTH",
"646 333 OFFCURVE",
"602 392 OFFCURVE",
"532 392 CURVE SMOOTH",
"481 392 OFFCURVE",
"445 360 OFFCURVE",
"445 317 CURVE SMOOTH",
"445 301 OFFCURVE",
"450 286 OFFCURVE",
"461 268 CURVE",
"465 271 OFFCURVE",
"469 273 OFFCURVE",
"474 273 CURVE SMOOTH",
"485 273 OFFCURVE",
"489 262 OFFCURVE",
"489 244 CURVE SMOOTH",
"489 186 OFFCURVE",
"447 145 OFFCURVE",
"385 145 CURVE SMOOTH",
"318 145 OFFCURVE",
"278 194 OFFCURVE",
"278 279 CURVE SMOOTH",
"278 480 LINE SMOOTH",
"278 510 OFFCURVE",
"298 530 OFFCURVE",
"328 530 CURVE SMOOTH",
"334 530 LINE",
"334 700 LINE",
"22 700 LINE"
);
},
{
closed = 1;
nodes = (
"435 530 LINE",
"441 530 LINE SMOOTH",
"471 530 OFFCURVE",
"491 510 OFFCURVE",
"491 480 CURVE SMOOTH",
"491 431 LINE",
"631 431 LINE",
"631 480 LINE SMOOTH",
"631 510 OFFCURVE",
"651 530 OFFCURVE",
"681 530 CURVE SMOOTH",
"687 530 LINE",
"687 700 LINE",
"435 700 LINE"
);
},
{
closed = 1;
nodes = (
"510 825 LINE",
"426 825 OFFCURVE",
"369 858 OFFCURVE",
"369 905 CURVE SMOOTH",
"369 928 OFFCURVE",
"382 945 OFFCURVE",
"399 945 CURVE SMOOTH",
"405 945 OFFCURVE",
"410 943 OFFCURVE",
"415 938 CURVE",
"429 951 OFFCURVE",
"437 969 OFFCURVE",
"437 988 CURVE SMOOTH",
"437 1041 OFFCURVE",
"384 1085 OFFCURVE",
"318 1085 CURVE SMOOTH",
"244 1085 OFFCURVE",
"193 1030 OFFCURVE",
"192 946 CURVE SMOOTH",
"190 820 OFFCURVE",
"304 750 OFFCURVE",
"510 750 CURVE"
);
}
);
width = 709;
}
);
leftKerningGroup = U_2nd;
rightKerningGroup = U1_1st;
unicode = 00D9;
},
{
glyphname = Wgrave;
leftMetricsKey = "=W";
rightMetricsKey = "=W";
layers = (
{
layerId = "4fe7eba9-be7b-4b88-b040-678285d1e8df";
paths = (
{
closed = 1;
nodes = (
"22 700 LINE",
"22 530 LINE",
"28 530 LINE SMOOTH",
"58 530 OFFCURVE",
"81 510 OFFCURVE",
"84 480 CURVE SMOOTH",
"112 220 LINE SMOOTH",
"115 190 OFFCURVE",
"98 170 OFFCURVE",
"68 170 CURVE SMOOTH",
"62 170 LINE",
"62 0 LINE",
"366 0 LINE",
"527 0 LINE",
"527 170 LINE",
"522 170 LINE SMOOTH",
"492 170 OFFCURVE",
"482 187 OFFCURVE",
"498 213 CURVE SMOOTH",
"641 443 LINE SMOOTH",
"657 470 OFFCURVE",
"667 500 OFFCURVE",
"669 530 CURVE",
"669 540 LINE SMOOTH",
"669 613 OFFCURVE",
"618 664 OFFCURVE",
"549 664 CURVE SMOOTH",
"481 664 OFFCURVE",
"431 615 OFFCURVE",
"431 559 CURVE SMOOTH",
"431 549 OFFCURVE",
"432 540 OFFCURVE",
"435 530 CURVE SMOOTH",
"438 520 OFFCURVE",
"443 510 OFFCURVE",
"449 501 CURVE",
"454 505 OFFCURVE",
"457 506 OFFCURVE",
"461 506 CURVE SMOOTH",
"470 506 OFFCURVE",
"477 500 OFFCURVE",
"477 490 CURVE SMOOTH",
"477 484 OFFCURVE",
"475 478 OFFCURVE",
"472 472 CURVE SMOOTH",
"320 207 LINE",
"290 480 LINE SMOOTH",
"287 510 OFFCURVE",
"304 530 OFFCURVE",
"334 530 CURVE SMOOTH",
"340 530 LINE",
"340 700 LINE"
);
},
{
closed = 1;
nodes = (
"589 266 LINE",
"643 133 LINE SMOOTH",
"686 26 OFFCURVE",
"750 -18 OFFCURVE",
"839 -18 CURVE SMOOTH",
"937 -18 OFFCURVE",
"1004 42 OFFCURVE",
"1004 127 CURVE SMOOTH",
"1004 201 OFFCURVE",
"953 260 OFFCURVE",
"887 260 CURVE SMOOTH",
"866 260 OFFCURVE",
"847 254 OFFCURVE",
"832 245 CURVE",
"833 243 OFFCURVE",
"834 240 OFFCURVE",
"834 237 CURVE SMOOTH",
"834 227 OFFCURVE",
"827 220 OFFCURVE",
"815 220 CURVE SMOOTH",
"803 220 OFFCURVE",
"795 226 OFFCURVE",
"789 240 CURVE SMOOTH",
"699 450 LINE"
);
},
{
closed = 1;
nodes = (
"770 530 LINE",
"776 530 LINE SMOOTH",
"806 530 OFFCURVE",
"824 510 OFFCURVE",
"820 480 CURVE SMOOTH",
"801 323 LINE",
"961 323 LINE",
"980 480 LINE SMOOTH",
"984 510 OFFCURVE",
"1006 530 OFFCURVE",
"1036 530 CURVE SMOOTH",
"1042 530 LINE",
"1042 700 LINE",
"770 700 LINE"
);
},
{
closed = 1;
nodes = (
"685 825 LINE",
"601 825 OFFCURVE",
"544 858 OFFCURVE",
"544 905 CURVE SMOOTH",
"544 928 OFFCURVE",
"557 945 OFFCURVE",
"574 945 CURVE SMOOTH",
"580 945 OFFCURVE",
"585 943 OFFCURVE",
"590 938 CURVE",
"604 951 OFFCURVE",
"612 969 OFFCURVE",
"612 988 CURVE SMOOTH",
"612 1041 OFFCURVE",
"559 1085 OFFCURVE",
"493 1085 CURVE SMOOTH",
"419 1085 OFFCURVE",
"368 1030 OFFCURVE",
"367 946 CURVE SMOOTH",
"365 820 OFFCURVE",
"479 750 OFFCURVE",
"685 750 CURVE"
);
}
);
width = 1064;
}
);
leftKerningGroup = W_2nd;
rightKerningGroup = W1_1st;
unicode = 1E80;
},
{
glyphname = trademark;
leftMetricsKey = "=T";
rightMetricsKey = "=M";
layers = (
{
layerId = "4fe7eba9-be7b-4b88-b040-678285d1e8df";
paths = (
{
closed = 1;
nodes = (
"10 713 LINE",
"267 713 LINE SMOOTH",
"277 713 OFFCURVE",
"282 716 OFFCURVE",
"282 723 CURVE SMOOTH",
"282 728 OFFCURVE",
"278 732 OFFCURVE",
"275 736 CURVE",
"298 759 OFFCURVE",
"320 771 OFFCURVE",
"345 771 CURVE SMOOTH",
"392 771 OFFCURVE",
"424 729 OFFCURVE",
"424 682 CURVE SMOOTH",
"424 630 OFFCURVE",
"384 592 OFFCURVE",
"328 592 CURVE SMOOTH",
"131 592 LINE SMOOTH",
"110 592 OFFCURVE",
"96 578 OFFCURVE",
"96 556 CURVE SMOOTH",
"96 527 LINE",
"10 527 LINE"
);
},
{
closed = 1;
nodes = (
"104 214 LINE",
"104 335 LINE",
"108 335 LINE SMOOTH",
"130 335 OFFCURVE",
"144 349 OFFCURVE",
"144 371 CURVE SMOOTH",
"144 539 LINE",
"287 539 LINE",
"287 371 LINE SMOOTH",
"287 349 OFFCURVE",
"301 335 OFFCURVE",
"322 335 CURVE SMOOTH",
"327 335 LINE",
"327 214 LINE"
);
},
{
closed = 1;
nodes = (
"709 351 OFFCURVE",
"716 367 OFFCURVE",
"728 386 CURVE SMOOTH",
"838 563 LINE",
"850 580 OFFCURVE",
"843 593 OFFCURVE",
"821 593 CURVE SMOOTH",
"817 593 LINE",
"817 714 LINE",
"932 714 LINE",
"1133 714 LINE",
"1133 593 LINE",
"1129 593 LINE SMOOTH",
"1108 593 OFFCURVE",
"1093 578 OFFCURVE",
"1093 557 CURVE SMOOTH",
"1093 371 LINE SMOOTH",
"1093 350 OFFCURVE",
"1108 336 OFFCURVE",
"1129 336 CURVE SMOOTH",
"1133 336 LINE",
"1133 215 LINE",
"911 215 LINE",
"911 336 LINE",
"915 336 LINE SMOOTH",
"937 336 OFFCURVE",
"951 350 OFFCURVE",
"951 371 CURVE SMOOTH",
"951 555 LINE",
"834 354 LINE SMOOTH",
"833 352 OFFCURVE",
"832 349 OFFCURVE",
"832 347 CURVE",
"832 342 OFFCURVE",
"835 338 OFFCURVE",
"838 336 CURVE SMOOTH",
"840 335 OFFCURVE",
"842 334 OFFCURVE",
"844 334 CURVE",
"846 334 OFFCURVE",
"849 334 OFFCURVE",
"851 336 CURVE",
"856 326 OFFCURVE",
"859 316 OFFCURVE",
"859 302 CURVE SMOOTH",
"859 257 OFFCURVE",
"829 227 OFFCURVE",
"784 227 CURVE SMOOTH",
"736 227 OFFCURVE",
"702 261 OFFCURVE",
"702 309 CURVE SMOOTH",
"702 318 OFFCURVE",
"703 327 OFFCURVE",
"706 336 CURVE"
);
},
{
closed = 1;
nodes = (
"443 679 OFFCURVE",
"490 727 OFFCURVE",
"557 727 CURVE SMOOTH",
"607 727 OFFCURVE",
"651 701 OFFCURVE",
"677 654 CURVE SMOOTH",
"755 518 LINE",
"681 391 LINE",
"596 544 LINE SMOOTH",
"592 550 OFFCURVE",
"588 553 OFFCURVE",
"582 553 CURVE SMOOTH",
"571 553 OFFCURVE",
"566 545 OFFCURVE",
"566 537 CURVE SMOOTH",
"566 534 OFFCURVE",
"567 531 OFFCURVE",
"567 528 CURVE",
"557 525 OFFCURVE",
"547 523 OFFCURVE",
"537 523 CURVE SMOOTH",
"483 523 OFFCURVE",
"443 565 OFFCURVE",
"443 620 CURVE SMOOTH"
);
},
{
closed = 1;
nodes = (
"455 336 LINE",
"459 336 LINE SMOOTH",
"480 336 OFFCURVE",
"495 350 OFFCURVE",
"495 371 CURVE SMOOTH",
"495 463 LINE",
"594 463 LINE",
"594 371 LINE SMOOTH",
"594 350 OFFCURVE",
"609 336 OFFCURVE",
"630 336 CURVE SMOOTH",
"634 336 LINE",
"634 215 LINE",
"455 215 LINE"
);
}
);
width = 1163;
}
);
unicode = 2122;
},
{
glyphname = dotaccent;
layers = (
{
layerId = "4fe7eba9-be7b-4b88-b040-678285d1e8df";
paths = (
{
closed = 1;
nodes = (
"-42 891 OFFCURVE",
"10 939 OFFCURVE",
"88 939 CURVE SMOOTH",
"165 939 OFFCURVE",
"217 891 OFFCURVE",
"217 820 CURVE SMOOTH",
"217 748 OFFCURVE",
"165 700 OFFCURVE",
"88 700 CURVE SMOOTH",
"10 700 OFFCURVE",
"-42 748 OFFCURVE",
"-42 820 CURVE SMOOTH"
);
}
);
width = 183;
}
);
unicode = 02D9;
},
{
glyphname = Zdotaccent;
leftMetricsKey = "=Z";
rightMetricsKey = "=Z";
layers = (
{
guideLines = (
{
angle = 41.38;
position = "{109, 294}";
showMeasurement = 1;
},
{
angle = 41.38;
position = "{109, 37}";
showMeasurement = 1;
}
);
layerId = "4fe7eba9-be7b-4b88-b040-678285d1e8df";
paths = (
{
closed = 1;
nodes = (
"25 191 OFFCURVE",
"53 241 OFFCURVE",
"99 282 CURVE SMOOTH",
"361 512 LINE SMOOTH",
"368 518 OFFCURVE",
"374 529 OFFCURVE",
"374 536 CURVE SMOOTH",
"374 549 OFFCURVE",
"365 558 OFFCURVE",
"353 558 CURVE SMOOTH",
"350 558 OFFCURVE",
"347 557 OFFCURVE",
"343 556 CURVE",
"338 572 OFFCURVE",
"336 586 OFFCURVE",
"336 601 CURVE SMOOTH",
"336 670 OFFCURVE",
"393 718 OFFCURVE",
"476 718 CURVE SMOOTH",
"562 718 OFFCURVE",
"620 659 OFFCURVE",
"620 574 CURVE SMOOTH",
"620 515 OFFCURVE",
"592 459 OFFCURVE",
"550 422 CURVE SMOOTH",
"282 186 LINE SMOOTH",
"275 180 OFFCURVE",
"271 172 OFFCURVE",
"271 164 CURVE SMOOTH",
"271 150 OFFCURVE",
"281 144 OFFCURVE",
"293 144 CURVE SMOOTH",
"296 144 OFFCURVE",
"299 144 OFFCURVE",
"302 145 CURVE",
"307 129 OFFCURVE",
"309 114 OFFCURVE",
"309 100 CURVE SMOOTH",
"309 30 OFFCURVE",
"254 -18 OFFCURVE",
"179 -18 CURVE SMOOTH",
"93 -18 OFFCURVE",
"25 51 OFFCURVE",
"25 136 CURVE SMOOTH"
);
},
{
closed = 1;
nodes = (
"223 530 LINE SMOOTH",
"193 530 OFFCURVE",
"173 510 OFFCURVE",
"173 480 CURVE SMOOTH",
"173 465 LINE",
"53 465 LINE",
"53 700 LINE",
"279 700 LINE",
"279 530 LINE"
);
},
{
closed = 1;
nodes = (
"447 170 LINE SMOOTH",
"477 170 OFFCURVE",
"497 190 OFFCURVE",
"497 220 CURVE SMOOTH",
"497 235 LINE",
"617 235 LINE",
"617 0 LINE",
"380 0 LINE",
"380 170 LINE"
);
},
{
closed = 1;
nodes = (
"207 941 OFFCURVE",
"259 989 OFFCURVE",
"337 989 CURVE SMOOTH",
"414 989 OFFCURVE",
"466 941 OFFCURVE",
"466 870 CURVE SMOOTH",
"466 798 OFFCURVE",
"414 750 OFFCURVE",
"337 750 CURVE SMOOTH",
"259 750 OFFCURVE",
"207 798 OFFCURVE",
"207 870 CURVE SMOOTH"
);
}
);
width = 645;
}
);
leftKerningGroup = Z_2nd;
rightKerningGroup = Z1_1st;
unicode = 017B;
},
{
glyphname = Edotaccent;
leftMetricsKey = "=E";
rightMetricsKey = "=E";
layers = (
{
layerId = "4fe7eba9-be7b-4b88-b040-678285d1e8df";
paths = (
{
closed = 1;
nodes = (
"25.008 62 OFFCURVE",
"121.008 -18 OFFCURVE",
"313.008 -18 CURVE SMOOTH",
"506.008 -18 OFFCURVE",
"628.008 63 OFFCURVE",
"628.008 253 CURVE",
"436.008 253 LINE",
"431.008 184 OFFCURVE",
"372.008 164 OFFCURVE",
"330.008 164 CURVE SMOOTH",
"289.008 164 OFFCURVE",
"262.008 183 OFFCURVE",
"262.008 209 CURVE SMOOTH",
"262.008 260 OFFCURVE",
"338.008 306 OFFCURVE",
"551.008 306 CURVE",
"551.008 390 LINE",
"210.008 390 OFFCURVE",
"25.008 302 OFFCURVE",
"25.008 162 CURVE SMOOTH"
);
},
{
closed = 1;
nodes = (
"26.008 440 OFFCURVE",
"84.008 378 OFFCURVE",
"171.008 378 CURVE SMOOTH",
"236.008 378 OFFCURVE",
"292.008 412 OFFCURVE",
"292.008 474 CURVE",
"280.008 474 OFFCURVE",
"268.008 490 OFFCURVE",
"268.008 508 CURVE SMOOTH",
"268.008 535 OFFCURVE",
"295.008 554 OFFCURVE",
"331.008 554 CURVE SMOOTH",
"394.008 554 OFFCURVE",
"436.008 494 OFFCURVE",
"436.008 451 CURVE",
"596.008 451 LINE",
"596.008 700 LINE",
"436.008 700 LINE",
"436.008 583 LINE",
"400.008 691 OFFCURVE",
"299.008 718 OFFCURVE",
"233.008 718 CURVE SMOOTH",
"115.008 718 OFFCURVE",
"24.008 631 OFFCURVE",
"25.008 524 CURVE SMOOTH"
);
},
{
closed = 1;
nodes = (
"199.008 798 OFFCURVE",
"251.008 750 OFFCURVE",
"329.008 750 CURVE SMOOTH",
"406.008 750 OFFCURVE",
"458.008 798 OFFCURVE",
"458.008 870 CURVE SMOOTH",
"458.008 941 OFFCURVE",
"406.008 989 OFFCURVE",
"329.008 989 CURVE SMOOTH",
"251.008 989 OFFCURVE",
"199.008 941 OFFCURVE",
"199.008 870 CURVE SMOOTH"
);
}
);
width = 648;
}
);
leftKerningGroup = E_2nd;
rightKerningGroup = E1_1st;
unicode = 0116;
},
{
glyphname = Gdotaccent;
leftMetricsKey = "=G";
rightMetricsKey = "=G";
layers = (
{
layerId = "4fe7eba9-be7b-4b88-b040-678285d1e8df";
paths = (
{
closed = 1;
nodes = (
"449 161 OFFCURVE",
"411 145 OFFCURVE",
"366 145 CURVE SMOOTH",
"311 145 OFFCURVE",
"266 170 OFFCURVE",
"266 213 CURVE SMOOTH",
"266 234 OFFCURVE",
"277 248 OFFCURVE",
"292 248 CURVE SMOOTH",
"296 248 OFFCURVE",
"299 247 OFFCURVE",
"304 244 CURVE",
"313 254 OFFCURVE",
"320 271 OFFCURVE",
"320 293 CURVE SMOOTH",
"320 342 OFFCURVE",
"286 406 OFFCURVE",
"194 406 CURVE SMOOTH",
"85 406 OFFCURVE",
"20 316 OFFCURVE",
"20 218 CURVE SMOOTH",
"20 86 OFFCURVE",
"138 -18 OFFCURVE",
"276 -18 CURVE SMOOTH",
"369 -18 OFFCURVE",
"468 22 OFFCURVE",
"505 122 CURVE",
"505 0 LINE",
"665 0 LINE",
"665 313 LINE",
"386 313 LINE",
"386 229 LINE",
"449 229 LINE SMOOTH",
"480 229 OFFCURVE",
"493 207 OFFCURVE",
"473 186 CURVE SMOOTH"
);
},
{
closed = 1;
nodes = (
"265 444 LINE",
"270 500 OFFCURVE",
"310 555 OFFCURVE",
"378 555 CURVE SMOOTH",
"427 555 OFFCURVE",
"463 526 OFFCURVE",
"463 493 CURVE SMOOTH",
"463 478 OFFCURVE",
"455 469 OFFCURVE",
"441 469 CURVE",
"441 394 OFFCURVE",
"479 351 OFFCURVE",
"545 351 CURVE SMOOTH",
"614 351 OFFCURVE",
"654 398 OFFCURVE",
"654 477 CURVE SMOOTH",
"654 619 OFFCURVE",
"511 718 OFFCURVE",
"352 718 CURVE SMOOTH",
"145 718 OFFCURVE",
"44 583 OFFCURVE",
"43 444 CURVE"
);
},
{
closed = 1;
nodes = (
"227 798 OFFCURVE",
"279 750 OFFCURVE",
"357 750 CURVE SMOOTH",
"434 750 OFFCURVE",
"486 798 OFFCURVE",
"486 870 CURVE SMOOTH",
"486 941 OFFCURVE",
"434 989 OFFCURVE",
"357 989 CURVE SMOOTH",
"279 989 OFFCURVE",
"227 941 OFFCURVE",
"227 870 CURVE SMOOTH"
);
}
);
width = 695;
}
);
leftKerningGroup = G_2nd;
rightKerningGroup = G1_1st;
unicode = 0120;
},
{
glyphname = Idotaccent;
leftMetricsKey = "=I";
rightMetricsKey = "=I";
layers = (
{
layerId = "4fe7eba9-be7b-4b88-b040-678285d1e8df";
paths = (
{
closed = 1;
nodes = (
"36 530 LINE SMOOTH",
"66 530 OFFCURVE",
"86 510 OFFCURVE",
"86 480 CURVE SMOOTH",
"86 220 LINE SMOOTH",
"86 190 OFFCURVE",
"66 170 OFFCURVE",
"36 170 CURVE SMOOTH",
"30 170 LINE",
"30 0 LINE",
"342 0 LINE",
"342 170 LINE",
"336 170 LINE SMOOTH",
"306 170 OFFCURVE",
"286 190 OFFCURVE",
"286 220 CURVE SMOOTH",
"286 480 LINE SMOOTH",
"286 510 OFFCURVE",
"306 530 OFFCURVE",
"336 530 CURVE SMOOTH",
"342 530 LINE",
"342 700 LINE",
"30 700 LINE",
"30 530 LINE"
);
},
{
closed = 1;
nodes = (
"57 798 OFFCURVE",
"109 750 OFFCURVE",
"187 750 CURVE SMOOTH",
"264 750 OFFCURVE",
"316 798 OFFCURVE",
"316 870 CURVE SMOOTH",
"316 941 OFFCURVE",
"264 989 OFFCURVE",
"187 989 CURVE SMOOTH",
"109 989 OFFCURVE",
"57 941 OFFCURVE",
"57 870 CURVE SMOOTH"
);
}
);
width = 372;
}
);
leftKerningGroup = F_2nd;
rightKerningGroup = I_1st;
unicode = 0130;
},
{
glyphname = Atilde;
leftMetricsKey = "=A";
rightMetricsKey = "=A";
layers = (
{
layerId = "4fe7eba9-be7b-4b88-b040-678285d1e8df";
paths = (
{
closed = 1;
nodes = (
"153 530 LINE SMOOTH",
"183 530 OFFCURVE",
"198 511 OFFCURVE",
"190 482 CURVE SMOOTH",
"163 378 LINE",
"343 378 LINE",
"373 491 LINE",
"441 219 LINE SMOOTH",
"448 190 OFFCURVE",
"433 170 OFFCURVE",
"403 170 CURVE SMOOTH",
"397 170 LINE",
"397 0 LINE",
"741 0 LINE",
"741 170 LINE",
"715 170 LINE SMOOTH",
"685 170 OFFCURVE",
"660 189 OFFCURVE",
"653 218 CURVE SMOOTH",
"586 482 LINE SMOOTH",
"579 511 OFFCURVE",
"594 530 OFFCURVE",
"624 530 CURVE SMOOTH",
"630 530 LINE",
"630 700 LINE",
"137 700 LINE",
"137 530 LINE"
);
},
{
closed = 1;
nodes = (
"10 44 OFFCURVE",
"91 -18 OFFCURVE",
"191 -18 CURVE SMOOTH",
"273 -18 OFFCURVE",
"349 24 OFFCURVE",
"349 101 CURVE SMOOTH",
"349 164 OFFCURVE",
"305 200 OFFCURVE",
"244 200 CURVE",
"244 180 OFFCURVE",
"233 174 OFFCURVE",
"223 174 CURVE SMOOTH",
"210 174 OFFCURVE",
"198 183 OFFCURVE",
"198 201 CURVE SMOOTH",
"198 215 OFFCURVE",
"205 252 OFFCURVE",
"369 252 CURVE",
"369 336 LINE",
"138 336 OFFCURVE",
"10 267 OFFCURVE",
"10 143 CURVE SMOOTH"
);
},
{
closed = 1;
nodes = (
"155 997 OFFCURVE",
"85 931 OFFCURVE",
"85 848 CURVE SMOOTH",
"85 782 OFFCURVE",
"130 734 OFFCURVE",
"186 734 CURVE SMOOTH",
"220 734 OFFCURVE",
"252 752 OFFCURVE",
"266 792 CURVE",
"249 798 OFFCURVE",
"244 807 OFFCURVE",
"244 815 CURVE SMOOTH",
"244 831 OFFCURVE",
"261 841 OFFCURVE",
"284 841 CURVE SMOOTH",
"313 841 OFFCURVE",
"338 825 OFFCURVE",
"360 808 CURVE SMOOTH",
"411 768 OFFCURVE",
"458 750 OFFCURVE",
"506 750 CURVE SMOOTH",
"596 750 OFFCURVE",
"666 814 OFFCURVE",
"666 896 CURVE SMOOTH",
"666 961 OFFCURVE",
"621 1008 OFFCURVE",
"566 1008 CURVE SMOOTH",
"532 1008 OFFCURVE",
"500 990 OFFCURVE",
"486 950 CURVE",
"503 944 OFFCURVE",
"508 935 OFFCURVE",
"508 926 CURVE SMOOTH",
"508 910 OFFCURVE",
"492 901 OFFCURVE",
"471 901 CURVE SMOOTH",
"447 901 OFFCURVE",
"424 913 OFFCURVE",
"381 941 CURVE SMOOTH",
"317 982 OFFCURVE",
"284 997 OFFCURVE",
"242 997 CURVE SMOOTH"
);
}
);
width = 751;
}
);
leftKerningGroup = A_2nd;
rightKerningGroup = A1_1st;
unicode = 00C3;
},
{
glyphname = Ntilde;
leftMetricsKey = "=N";
rightMetricsKey = "=N";
layers = (
{
guideLines = (
{
angle = 123.18;
position = "{659, 79}";
showMeasurement = 1;
}
);
layerId = "4fe7eba9-be7b-4b88-b040-678285d1e8df";
paths = (
{
closed = 1;
nodes = (
"30 700 LINE",
"270 700 LINE",
"500 240 LINE SMOOTH",
"507 226 OFFCURVE",
"515 220 OFFCURVE",
"526 220 CURVE SMOOTH",
"538 220 OFFCURVE",
"545 227 OFFCURVE",
"545 237 CURVE SMOOTH",
"545 240 OFFCURVE",
"544 243 OFFCURVE",
"543 245 CURVE",
"558 254 OFFCURVE",
"577 260 OFFCURVE",
"598 260 CURVE SMOOTH",
"664 260 OFFCURVE",
"715 201 OFFCURVE",
"715 127 CURVE SMOOTH",
"715 42 OFFCURVE",
"649 -18 OFFCURVE",
"554 -18 CURVE SMOOTH",
"467 -18 OFFCURVE",
"404 30 OFFCURVE",
"354 133 CURVE SMOOTH",
"226 397 LINE",
"226 220 LINE SMOOTH",
"226 190 OFFCURVE",
"246 170 OFFCURVE",
"276 170 CURVE SMOOTH",
"282 170 LINE",
"282 0 LINE",
"30 0 LINE",
"30 170 LINE",
"36 170 LINE SMOOTH",
"66 170 OFFCURVE",
"86 190 OFFCURVE",
"86 220 CURVE SMOOTH",
"86 480 LINE SMOOTH",
"86 510 OFFCURVE",
"66 530 OFFCURVE",
"36 530 CURVE SMOOTH",
"30 530 LINE"
);
},
{
closed = 1;
nodes = (
"452 700 LINE",
"704 700 LINE",
"704 530 LINE",
"698 530 LINE SMOOTH",
"668 530 OFFCURVE",
"648 510 OFFCURVE",
"648 480 CURVE SMOOTH",
"648 351 LINE",
"508 351 LINE",
"508 480 LINE SMOOTH",
"508 510 OFFCURVE",
"488 530 OFFCURVE",
"458 530 CURVE SMOOTH",
"452 530 LINE"
);
},
{
closed = 1;
nodes = (
"276 997 OFFCURVE",
"309 982 OFFCURVE",
"373 941 CURVE SMOOTH",
"416 913 OFFCURVE",
"439 901 OFFCURVE",
"463 901 CURVE SMOOTH",
"484 901 OFFCURVE",
"500 910 OFFCURVE",
"500 926 CURVE SMOOTH",
"500 935 OFFCURVE",
"495 944 OFFCURVE",
"478 950 CURVE",
"492 990 OFFCURVE",
"524 1008 OFFCURVE",
"558 1008 CURVE SMOOTH",
"613 1008 OFFCURVE",
"658 961 OFFCURVE",
"658 896 CURVE SMOOTH",
"658 814 OFFCURVE",
"588 750 OFFCURVE",
"498 750 CURVE SMOOTH",
"450 750 OFFCURVE",
"403 768 OFFCURVE",
"352 808 CURVE SMOOTH",
"330 825 OFFCURVE",
"305 841 OFFCURVE",
"276 841 CURVE SMOOTH",
"253 841 OFFCURVE",
"236 831 OFFCURVE",
"236 815 CURVE SMOOTH",
"236 807 OFFCURVE",
"241 798 OFFCURVE",
"258 792 CURVE",
"244 752 OFFCURVE",
"212 734 OFFCURVE",
"178 734 CURVE SMOOTH",
"122 734 OFFCURVE",
"77 782 OFFCURVE",
"77 848 CURVE SMOOTH",
"77 931 OFFCURVE",
"147 997 OFFCURVE",
"234 997 CURVE SMOOTH"
);
}
);
width = 735;
}
);
leftKerningGroup = N_2nd;
rightKerningGroup = N1_1st;
unicode = 00D1;
},
{
glyphname = Itilde;
leftMetricsKey = "=I";
rightMetricsKey = "=I";
layers = (
{
layerId = "4fe7eba9-be7b-4b88-b040-678285d1e8df";
paths = (
{
closed = 1;
nodes = (
"36 530 LINE SMOOTH",
"66 530 OFFCURVE",
"86 510 OFFCURVE",
"86 480 CURVE SMOOTH",
"86 220 LINE SMOOTH",
"86 190 OFFCURVE",
"66 170 OFFCURVE",
"36 170 CURVE SMOOTH",
"30 170 LINE",
"30 0 LINE",
"342 0 LINE",
"342 170 LINE",
"336 170 LINE SMOOTH",
"306 170 OFFCURVE",
"286 190 OFFCURVE",
"286 220 CURVE SMOOTH",
"286 480 LINE SMOOTH",
"286 510 OFFCURVE",
"306 530 OFFCURVE",
"336 530 CURVE SMOOTH",
"342 530 LINE",
"342 700 LINE",
"30 700 LINE",
"30 530 LINE"
);
},
{
closed = 1;
nodes = (
"-42 997 OFFCURVE",
"-112 931 OFFCURVE",
"-112 848 CURVE SMOOTH",
"-112 782 OFFCURVE",
"-67 734 OFFCURVE",
"-11 734 CURVE SMOOTH",
"23 734 OFFCURVE",
"55 752 OFFCURVE",
"69 792 CURVE",
"52 798 OFFCURVE",
"47 807 OFFCURVE",
"47 815 CURVE SMOOTH",
"47 831 OFFCURVE",
"64 841 OFFCURVE",
"87 841 CURVE SMOOTH",
"116 841 OFFCURVE",
"141 825 OFFCURVE",
"163 808 CURVE SMOOTH",
"214 768 OFFCURVE",
"261 750 OFFCURVE",
"309 750 CURVE SMOOTH",
"399 750 OFFCURVE",
"469 814 OFFCURVE",
"469 896 CURVE SMOOTH",
"469 961 OFFCURVE",
"424 1008 OFFCURVE",
"369 1008 CURVE SMOOTH",
"335 1008 OFFCURVE",
"303 990 OFFCURVE",
"289 950 CURVE",
"306 944 OFFCURVE",
"311 935 OFFCURVE",
"311 926 CURVE SMOOTH",
"311 910 OFFCURVE",
"295 901 OFFCURVE",
"274 901 CURVE SMOOTH",
"250 901 OFFCURVE",
"227 913 OFFCURVE",
"184 941 CURVE SMOOTH",
"120 982 OFFCURVE",
"87 997 OFFCURVE",
"45 997 CURVE SMOOTH"
);
}
);
width = 372;
}
);
leftKerningGroup = F_2nd;
rightKerningGroup = I_1st;
unicode = 0128;
},
{
glyphname = Utilde;
leftMetricsKey = "=U";
rightMetricsKey = "=U";
layers = (
{
layerId = "4fe7eba9-be7b-4b88-b040-678285d1e8df";
paths = (
{
closed = 1;
nodes = (
"22 530 LINE",
"28 530 LINE SMOOTH",
"58 530 OFFCURVE",
"78 510 OFFCURVE",
"78 480 CURVE SMOOTH",
"78 259 LINE SMOOTH",
"78 84 OFFCURVE",
"189 -18 OFFCURVE",
"362 -18 CURVE SMOOTH",
"537 -18 OFFCURVE",
"646 87 OFFCURVE",
"646 237 CURVE SMOOTH",
"646 333 OFFCURVE",
"602 392 OFFCURVE",
"532 392 CURVE SMOOTH",
"481 392 OFFCURVE",
"445 360 OFFCURVE",
"445 317 CURVE SMOOTH",
"445 301 OFFCURVE",
"450 286 OFFCURVE",
"461 268 CURVE",
"465 271 OFFCURVE",
"469 273 OFFCURVE",
"474 273 CURVE SMOOTH",
"485 273 OFFCURVE",
"489 262 OFFCURVE",
"489 244 CURVE SMOOTH",
"489 186 OFFCURVE",
"447 145 OFFCURVE",
"385 145 CURVE SMOOTH",
"318 145 OFFCURVE",
"278 194 OFFCURVE",
"278 279 CURVE SMOOTH",
"278 480 LINE SMOOTH",
"278 510 OFFCURVE",
"298 530 OFFCURVE",
"328 530 CURVE SMOOTH",
"334 530 LINE",
"334 700 LINE",
"22 700 LINE"
);
},
{
closed = 1;
nodes = (
"435 530 LINE",
"441 530 LINE SMOOTH",
"471 530 OFFCURVE",
"491 510 OFFCURVE",
"491 480 CURVE SMOOTH",
"491 431 LINE",
"631 431 LINE",
"631 480 LINE SMOOTH",
"631 510 OFFCURVE",
"651 530 OFFCURVE",
"681 530 CURVE SMOOTH",
"687 530 LINE",
"687 700 LINE",
"435 700 LINE"
);
},
{
closed = 1;
nodes = (
"134 1013 OFFCURVE",
"64 947 OFFCURVE",
"64 864 CURVE SMOOTH",
"64 798 OFFCURVE",
"109 750 OFFCURVE",
"165 750 CURVE SMOOTH",
"199 750 OFFCURVE",
"231 768 OFFCURVE",
"245 808 CURVE",
"228 814 OFFCURVE",
"223 823 OFFCURVE",
"223 831 CURVE SMOOTH",
"223 847 OFFCURVE",
"240 857 OFFCURVE",
"263 857 CURVE SMOOTH",
"292 857 OFFCURVE",
"317 841 OFFCURVE",
"339 824 CURVE SMOOTH",
"390 784 OFFCURVE",
"437 766 OFFCURVE",
"485 766 CURVE SMOOTH",
"575 766 OFFCURVE",
"645 830 OFFCURVE",
"645 912 CURVE SMOOTH",
"645 977 OFFCURVE",
"600 1024 OFFCURVE",
"545 1024 CURVE SMOOTH",
"511 1024 OFFCURVE",
"479 1006 OFFCURVE",
"465 966 CURVE",
"482 960 OFFCURVE",
"487 951 OFFCURVE",
"487 942 CURVE SMOOTH",
"487 926 OFFCURVE",
"471 917 OFFCURVE",
"450 917 CURVE SMOOTH",
"426 917 OFFCURVE",
"403 929 OFFCURVE",
"360 957 CURVE SMOOTH",
"296 998 OFFCURVE",
"263 1013 OFFCURVE",
"221 1013 CURVE SMOOTH"
);
}
);
width = 709;
}
);
leftKerningGroup = U_2nd;
rightKerningGroup = U1_1st;
unicode = 0168;
},
{
glyphname = dieresis;
layers = (
{
layerId = "4fe7eba9-be7b-4b88-b040-678285d1e8df";
paths = (
{
closed = 1;
nodes = (
"20 749 OFFCURVE",
"72 701 OFFCURVE",
"150 701 CURVE SMOOTH",
"227 701 OFFCURVE",
"279 749 OFFCURVE",
"279 821 CURVE SMOOTH",
"279 892 OFFCURVE",
"227 940 OFFCURVE",
"150 940 CURVE SMOOTH",
"72 940 OFFCURVE",
"20 892 OFFCURVE",
"20 821 CURVE SMOOTH"
);
},
{
closed = 1;
nodes = (
"316 749 OFFCURVE",
"368 701 OFFCURVE",
"446 701 CURVE SMOOTH",
"523 701 OFFCURVE",
"575 749 OFFCURVE",
"575 821 CURVE SMOOTH",
"575 892 OFFCURVE",
"523 940 OFFCURVE",
"446 940 CURVE SMOOTH",
"368 940 OFFCURVE",
"316 892 OFFCURVE",
"316 821 CURVE SMOOTH"
);
}
);
width = 591;
}
);
unicode = 00A8;
},
{
glyphname = Adieresis;
leftMetricsKey = "=A";
rightMetricsKey = "=A";
layers = (
{
layerId = "4fe7eba9-be7b-4b88-b040-678285d1e8df";
paths = (
{
closed = 1;
nodes = (
"153 530 LINE SMOOTH",
"183 530 OFFCURVE",
"198 511 OFFCURVE",
"190 482 CURVE SMOOTH",
"163 378 LINE",
"343 378 LINE",
"373 491 LINE",
"441 219 LINE SMOOTH",
"448 190 OFFCURVE",
"433 170 OFFCURVE",
"403 170 CURVE SMOOTH",
"397 170 LINE",
"397 0 LINE",
"741 0 LINE",
"741 170 LINE",
"715 170 LINE SMOOTH",
"685 170 OFFCURVE",
"660 189 OFFCURVE",
"653 218 CURVE SMOOTH",
"586 482 LINE SMOOTH",
"579 511 OFFCURVE",
"594 530 OFFCURVE",
"624 530 CURVE SMOOTH",
"630 530 LINE",
"630 700 LINE",
"137 700 LINE",
"137 530 LINE"
);
},
{
closed = 1;
nodes = (
"10 44 OFFCURVE",
"91 -18 OFFCURVE",
"191 -18 CURVE SMOOTH",
"273 -18 OFFCURVE",
"349 24 OFFCURVE",
"349 101 CURVE SMOOTH",
"349 164 OFFCURVE",
"305 200 OFFCURVE",
"244 200 CURVE",
"244 180 OFFCURVE",
"233 174 OFFCURVE",
"223 174 CURVE SMOOTH",
"210 174 OFFCURVE",
"198 183 OFFCURVE",
"198 201 CURVE SMOOTH",
"198 215 OFFCURVE",
"205 252 OFFCURVE",
"369 252 CURVE",
"369 336 LINE",
"138 336 OFFCURVE",
"10 267 OFFCURVE",
"10 143 CURVE SMOOTH"
);
},
{
closed = 1;
nodes = (
"105 798 OFFCURVE",
"157 750 OFFCURVE",
"235 750 CURVE SMOOTH",
"312 750 OFFCURVE",
"364 798 OFFCURVE",
"364 870 CURVE SMOOTH",
"364 941 OFFCURVE",
"312 989 OFFCURVE",
"235 989 CURVE SMOOTH",
"157 989 OFFCURVE",
"105 941 OFFCURVE",
"105 870 CURVE SMOOTH"
);
},
{
closed = 1;
nodes = (
"401 798 OFFCURVE",
"453 750 OFFCURVE",
"531 750 CURVE SMOOTH",
"608 750 OFFCURVE",
"660 798 OFFCURVE",
"660 870 CURVE SMOOTH",
"660 941 OFFCURVE",
"608 989 OFFCURVE",
"531 989 CURVE SMOOTH",
"453 989 OFFCURVE",
"401 941 OFFCURVE",
"401 870 CURVE SMOOTH"
);
}
);
width = 751;
}
);
leftKerningGroup = A_2nd;
rightKerningGroup = A1_1st;
unicode = 00C4;
},
{
glyphname = Edieresis;
leftMetricsKey = "=E";
rightMetricsKey = "=E";
layers = (
{
layerId = "4fe7eba9-be7b-4b88-b040-678285d1e8df";
paths = (
{
closed = 1;
nodes = (
"25.008 62 OFFCURVE",
"121.008 -18 OFFCURVE",
"313.008 -18 CURVE SMOOTH",
"506.008 -18 OFFCURVE",
"628.008 63 OFFCURVE",
"628.008 253 CURVE",
"436.008 253 LINE",
"431.008 184 OFFCURVE",
"372.008 164 OFFCURVE",
"330.008 164 CURVE SMOOTH",
"289.008 164 OFFCURVE",
"262.008 183 OFFCURVE",
"262.008 209 CURVE SMOOTH",
"262.008 260 OFFCURVE",
"338.008 306 OFFCURVE",
"551.008 306 CURVE",
"551.008 390 LINE",
"210.008 390 OFFCURVE",
"25.008 302 OFFCURVE",
"25.008 162 CURVE SMOOTH"
);
},
{
closed = 1;
nodes = (
"26.008 440 OFFCURVE",
"84.008 378 OFFCURVE",
"171.008 378 CURVE SMOOTH",
"236.008 378 OFFCURVE",
"292.008 412 OFFCURVE",
"292.008 474 CURVE",
"280.008 474 OFFCURVE",
"268.008 490 OFFCURVE",
"268.008 508 CURVE SMOOTH",
"268.008 535 OFFCURVE",
"295.008 554 OFFCURVE",
"331.008 554 CURVE SMOOTH",
"394.008 554 OFFCURVE",
"436.008 494 OFFCURVE",
"436.008 451 CURVE",
"596.008 451 LINE",
"596.008 700 LINE",
"436.008 700 LINE",
"436.008 583 LINE",
"400.008 691 OFFCURVE",
"299.008 718 OFFCURVE",
"233.008 718 CURVE SMOOTH",
"115.008 718 OFFCURVE",
"24.008 631 OFFCURVE",
"25.008 524 CURVE SMOOTH"
);
},
{
closed = 1;
nodes = (
"51.008 798 OFFCURVE",
"103.008 750 OFFCURVE",
"181.008 750 CURVE SMOOTH",
"258.008 750 OFFCURVE",
"310.008 798 OFFCURVE",
"310.008 870 CURVE SMOOTH",
"310.008 941 OFFCURVE",
"258.008 989 OFFCURVE",
"181.008 989 CURVE SMOOTH",
"103.008 989 OFFCURVE",
"51.008 941 OFFCURVE",
"51.008 870 CURVE SMOOTH"
);
},
{
closed = 1;
nodes = (
"347.008 798 OFFCURVE",
"399.008 750 OFFCURVE",
"477.008 750 CURVE SMOOTH",
"554.008 750 OFFCURVE",
"606.008 798 OFFCURVE",
"606.008 870 CURVE SMOOTH",
"606.008 941 OFFCURVE",
"554.008 989 OFFCURVE",
"477.008 989 CURVE SMOOTH",
"399.008 989 OFFCURVE",
"347.008 941 OFFCURVE",
"347.008 870 CURVE SMOOTH"
);
}
);
width = 648;
}
);
leftKerningGroup = E_2nd;
rightKerningGroup = E1_1st;
unicode = 00CB;
},
{
glyphname = Idieresis;
leftMetricsKey = "=I";
rightMetricsKey = "=I";
layers = (
{
layerId = "4fe7eba9-be7b-4b88-b040-678285d1e8df";
paths = (
{
closed = 1;
nodes = (
"36 530 LINE SMOOTH",
"66 530 OFFCURVE",
"86 510 OFFCURVE",
"86 480 CURVE SMOOTH",
"86 220 LINE SMOOTH",
"86 190 OFFCURVE",
"66 170 OFFCURVE",
"36 170 CURVE SMOOTH",
"30 170 LINE",
"30 0 LINE",
"342 0 LINE",
"342 170 LINE",
"336 170 LINE SMOOTH",
"306 170 OFFCURVE",
"286 190 OFFCURVE",
"286 220 CURVE SMOOTH",
"286 480 LINE SMOOTH",
"286 510 OFFCURVE",
"306 530 OFFCURVE",
"336 530 CURVE SMOOTH",
"342 530 LINE",
"342 700 LINE",
"30 700 LINE",
"30 530 LINE"
);
},
{
closed = 1;
nodes = (
"-92 798 OFFCURVE",
"-40 750 OFFCURVE",
"39 750 CURVE SMOOTH",
"116 750 OFFCURVE",
"168 798 OFFCURVE",
"168 870 CURVE SMOOTH",
"168 941 OFFCURVE",
"116 989 OFFCURVE",
"39 989 CURVE SMOOTH",
"-40 989 OFFCURVE",
"-92 941 OFFCURVE",
"-92 870 CURVE SMOOTH"
);
},
{
closed = 1;
nodes = (
"205 798 OFFCURVE",
"257 750 OFFCURVE",
"335 750 CURVE SMOOTH",
"412 750 OFFCURVE",
"464 798 OFFCURVE",
"464 870 CURVE SMOOTH",
"464 941 OFFCURVE",
"412 989 OFFCURVE",
"335 989 CURVE SMOOTH",
"257 989 OFFCURVE",
"205 941 OFFCURVE",
"205 870 CURVE SMOOTH"
);
}
);
width = 372;
}
);
leftKerningGroup = F_2nd;
rightKerningGroup = I_1st;
unicode = 00CF;
},
{
glyphname = Odieresis;
leftMetricsKey = "=O";
rightMetricsKey = "=O";
layers = (
{
anchors = (
{
name = top;
position = "{335, 750}";
}
);
layerId = "4fe7eba9-be7b-4b88-b040-678285d1e8df";
paths = (
{
closed = 1;
nodes = (
"264 466 LINE",
"274 520 OFFCURVE",
"305 555 OFFCURVE",
"356 555 CURVE SMOOTH",
"398 555 OFFCURVE",
"441 532 OFFCURVE",
"441 484 CURVE SMOOTH",
"441 462 OFFCURVE",
"432 444 OFFCURVE",
"417 444 CURVE SMOOTH",
"411 444 OFFCURVE",
"406 446 OFFCURVE",
"403 449 CURVE",
"387 429 OFFCURVE",
"380 405 OFFCURVE",
"380 380 CURVE SMOOTH",
"380 315 OFFCURVE",
"430 272 OFFCURVE",
"504 272 CURVE SMOOTH",
"596 272 OFFCURVE",
"656 339 OFFCURVE",
"656 441 CURVE SMOOTH",
"656 581 OFFCURVE",
"542 718 OFFCURVE",
"341 718 CURVE SMOOTH",
"165 718 OFFCURVE",
"49 629 OFFCURVE",
"31 466 CURVE"
);
},
{
closed = 1;
nodes = (
"412 234 LINE",
"402 180 OFFCURVE",
"371 145 OFFCURVE",
"320 145 CURVE SMOOTH",
"278 145 OFFCURVE",
"235 168 OFFCURVE",
"235 216 CURVE SMOOTH",
"235 238 OFFCURVE",
"244 256 OFFCURVE",
"259 256 CURVE SMOOTH",
"265 256 OFFCURVE",
"270 254 OFFCURVE",
"273 251 CURVE",
"289 271 OFFCURVE",
"296 295 OFFCURVE",
"296 320 CURVE SMOOTH",
"296 385 OFFCURVE",
"246 428 OFFCURVE",
"172 428 CURVE SMOOTH",
"80 428 OFFCURVE",
"20 361 OFFCURVE",
"20 259 CURVE SMOOTH",
"20 119 OFFCURVE",
"134 -18 OFFCURVE",
"335 -18 CURVE SMOOTH",
"511 -18 OFFCURVE",
"627 71 OFFCURVE",
"645 234 CURVE"
);
},
{
closed = 1;
nodes = (
"59 798 OFFCURVE",
"111 750 OFFCURVE",
"189 750 CURVE SMOOTH",
"266 750 OFFCURVE",
"318 798 OFFCURVE",
"318 870 CURVE SMOOTH",
"318 941 OFFCURVE",
"266 989 OFFCURVE",
"189 989 CURVE SMOOTH",
"111 989 OFFCURVE",
"59 941 OFFCURVE",
"59 870 CURVE SMOOTH"
);
},
{
closed = 1;
nodes = (
"355 798 OFFCURVE",
"407 750 OFFCURVE",
"485 750 CURVE SMOOTH",
"562 750 OFFCURVE",
"614 798 OFFCURVE",
"614 870 CURVE SMOOTH",
"614 941 OFFCURVE",
"562 989 OFFCURVE",
"485 989 CURVE SMOOTH",
"407 989 OFFCURVE",
"355 941 OFFCURVE",
"355 870 CURVE SMOOTH"
);
}
);
width = 676;
}
);
leftKerningGroup = O_2nd;
rightKerningGroup = O1_1st;
unicode = 00D6;
},
{
glyphname = Udieresis;
leftMetricsKey = "=U";
rightMetricsKey = "=U";
layers = (
{
layerId = "4fe7eba9-be7b-4b88-b040-678285d1e8df";
paths = (
{
closed = 1;
nodes = (
"22 530 LINE",
"28 530 LINE SMOOTH",
"58 530 OFFCURVE",
"78 510 OFFCURVE",
"78 480 CURVE SMOOTH",
"78 259 LINE SMOOTH",
"78 84 OFFCURVE",
"189 -18 OFFCURVE",
"362 -18 CURVE SMOOTH",
"537 -18 OFFCURVE",
"646 87 OFFCURVE",
"646 237 CURVE SMOOTH",
"646 333 OFFCURVE",
"602 392 OFFCURVE",
"532 392 CURVE SMOOTH",
"481 392 OFFCURVE",
"445 360 OFFCURVE",
"445 317 CURVE SMOOTH",
"445 301 OFFCURVE",
"450 286 OFFCURVE",
"461 268 CURVE",
"465 271 OFFCURVE",
"469 273 OFFCURVE",
"474 273 CURVE SMOOTH",
"485 273 OFFCURVE",
"489 262 OFFCURVE",
"489 244 CURVE SMOOTH",
"489 186 OFFCURVE",
"447 145 OFFCURVE",
"385 145 CURVE SMOOTH",
"318 145 OFFCURVE",
"278 194 OFFCURVE",
"278 279 CURVE SMOOTH",
"278 480 LINE SMOOTH",
"278 510 OFFCURVE",
"298 530 OFFCURVE",
"328 530 CURVE SMOOTH",
"334 530 LINE",
"334 700 LINE",
"22 700 LINE"
);
},
{
closed = 1;
nodes = (
"435 530 LINE",
"441 530 LINE SMOOTH",
"471 530 OFFCURVE",
"491 510 OFFCURVE",
"491 480 CURVE SMOOTH",
"491 431 LINE",
"631 431 LINE",
"631 480 LINE SMOOTH",
"631 510 OFFCURVE",
"651 530 OFFCURVE",
"681 530 CURVE SMOOTH",
"687 530 LINE",
"687 700 LINE",
"435 700 LINE"
);
},
{
closed = 1;
nodes = (
"82 798 OFFCURVE",
"134 750 OFFCURVE",
"212 750 CURVE SMOOTH",
"289 750 OFFCURVE",
"341 798 OFFCURVE",
"341 870 CURVE SMOOTH",
"341 941 OFFCURVE",
"289 989 OFFCURVE",
"212 989 CURVE SMOOTH",
"134 989 OFFCURVE",
"82 941 OFFCURVE",
"82 870 CURVE SMOOTH"
);
},
{
closed = 1;
nodes = (
"378 798 OFFCURVE",
"430 750 OFFCURVE",
"508 750 CURVE SMOOTH",
"585 750 OFFCURVE",
"637 798 OFFCURVE",
"637 870 CURVE SMOOTH",
"637 941 OFFCURVE",
"585 989 OFFCURVE",
"508 989 CURVE SMOOTH",
"430 989 OFFCURVE",
"378 941 OFFCURVE",
"378 870 CURVE SMOOTH"
);
}
);
width = 709;
}
);
leftKerningGroup = U_2nd;
rightKerningGroup = U1_1st;
unicode = 00DC;
},
{
glyphname = Cdotaccent;
leftMetricsKey = "=C";
rightMetricsKey = "=C";
layers = (
{
anchors = (
{
name = top;
position = "{322, 750}";
}
);
layerId = "4fe7eba9-be7b-4b88-b040-678285d1e8df";
paths = (
{
closed = 1;
nodes = (
"253 389 LINE",
"260 498 OFFCURVE",
"297 556 OFFCURVE",
"363 556 CURVE SMOOTH",
"409 556 OFFCURVE",
"449 528 OFFCURVE",
"449 491 CURVE SMOOTH",
"449 475 OFFCURVE",
"442 464 OFFCURVE",
"434 464 CURVE SMOOTH",
"431 464 OFFCURVE",
"427 465 OFFCURVE",
"424 468 CURVE",
"416 459 OFFCURVE",
"411 445 OFFCURVE",
"411 428 CURVE SMOOTH",
"411 381 OFFCURVE",
"448 336 OFFCURVE",
"512 336 CURVE SMOOTH",
"588 336 OFFCURVE",
"635 398 OFFCURVE",
"635 479 CURVE SMOOTH",
"635 619 OFFCURVE",
"510 718 OFFCURVE",
"335 718 CURVE SMOOTH",
"144 718 OFFCURVE",
"33 600 OFFCURVE",
"21 389 CURVE"
);
},
{
closed = 1;
nodes = (
"20 329 LINE",
"26 92 OFFCURVE",
"127 -18 OFFCURVE",
"340 -18 CURVE SMOOTH",
"522 -18 OFFCURVE",
"628 81 OFFCURVE",
"642 263 CURVE",
"482 263 LINE",
"472 188 OFFCURVE",
"432 145 OFFCURVE",
"370 145 CURVE SMOOTH",
"291 145 OFFCURVE",
"256 199 OFFCURVE",
"252 329 CURVE"
);
},
{
closed = 1;
nodes = (
"212 798 OFFCURVE",
"264 750 OFFCURVE",
"342 750 CURVE SMOOTH",
"419 750 OFFCURVE",
"471 798 OFFCURVE",
"471 870 CURVE SMOOTH",
"471 941 OFFCURVE",
"419 989 OFFCURVE",
"342 989 CURVE SMOOTH",
"264 989 OFFCURVE",
"212 941 OFFCURVE",
"212 870 CURVE SMOOTH"
);
}
);
width = 657;
}
);
leftKerningGroup = C_2nd;
rightKerningGroup = C1_1st;
unicode = 010A;
},
{
glyphname = Wdieresis;
leftMetricsKey = "=W";
rightMetricsKey = "=W";
layers = (
{
layerId = "4fe7eba9-be7b-4b88-b040-678285d1e8df";
paths = (
{
closed = 1;
nodes = (
"22 700 LINE",
"22 530 LINE",
"28 530 LINE SMOOTH",
"58 530 OFFCURVE",
"81 510 OFFCURVE",
"84 480 CURVE SMOOTH",
"112 220 LINE SMOOTH",
"115 190 OFFCURVE",
"98 170 OFFCURVE",
"68 170 CURVE SMOOTH",
"62 170 LINE",
"62 0 LINE",
"366 0 LINE",
"527 0 LINE",
"527 170 LINE",
"522 170 LINE SMOOTH",
"492 170 OFFCURVE",
"482 187 OFFCURVE",
"498 213 CURVE SMOOTH",
"641 443 LINE SMOOTH",
"657 470 OFFCURVE",
"667 500 OFFCURVE",
"669 530 CURVE",
"669 540 LINE SMOOTH",
"669 613 OFFCURVE",
"618 664 OFFCURVE",
"549 664 CURVE SMOOTH",
"481 664 OFFCURVE",
"431 615 OFFCURVE",
"431 559 CURVE SMOOTH",
"431 549 OFFCURVE",
"432 540 OFFCURVE",
"435 530 CURVE SMOOTH",
"438 520 OFFCURVE",
"443 510 OFFCURVE",
"449 501 CURVE",
"454 505 OFFCURVE",
"457 506 OFFCURVE",
"461 506 CURVE SMOOTH",
"470 506 OFFCURVE",
"477 500 OFFCURVE",
"477 490 CURVE SMOOTH",
"477 484 OFFCURVE",
"475 478 OFFCURVE",
"472 472 CURVE SMOOTH",
"320 207 LINE",
"290 480 LINE SMOOTH",
"287 510 OFFCURVE",
"304 530 OFFCURVE",
"334 530 CURVE SMOOTH",
"340 530 LINE",
"340 700 LINE"
);
},
{
closed = 1;
nodes = (
"589 266 LINE",
"643 133 LINE SMOOTH",
"686 26 OFFCURVE",
"750 -18 OFFCURVE",
"839 -18 CURVE SMOOTH",
"937 -18 OFFCURVE",
"1004 42 OFFCURVE",
"1004 127 CURVE SMOOTH",
"1004 201 OFFCURVE",
"953 260 OFFCURVE",
"887 260 CURVE SMOOTH",
"866 260 OFFCURVE",
"847 254 OFFCURVE",
"832 245 CURVE",
"833 243 OFFCURVE",
"834 240 OFFCURVE",
"834 237 CURVE SMOOTH",
"834 227 OFFCURVE",
"827 220 OFFCURVE",
"815 220 CURVE SMOOTH",
"803 220 OFFCURVE",
"795 226 OFFCURVE",
"789 240 CURVE SMOOTH",
"699 450 LINE"
);
},
{
closed = 1;
nodes = (
"770 530 LINE",
"776 530 LINE SMOOTH",
"806 530 OFFCURVE",
"824 510 OFFCURVE",
"820 480 CURVE SMOOTH",
"801 323 LINE",
"961 323 LINE",
"980 480 LINE SMOOTH",
"984 510 OFFCURVE",
"1006 530 OFFCURVE",
"1036 530 CURVE SMOOTH",
"1042 530 LINE",
"1042 700 LINE",
"770 700 LINE"
);
},
{
closed = 1;
nodes = (
"255 798 OFFCURVE",
"307 750 OFFCURVE",
"385 750 CURVE SMOOTH",
"462 750 OFFCURVE",
"514 798 OFFCURVE",
"514 870 CURVE SMOOTH",
"514 941 OFFCURVE",
"462 989 OFFCURVE",
"385 989 CURVE SMOOTH",
"307 989 OFFCURVE",
"255 941 OFFCURVE",
"255 870 CURVE SMOOTH"
);
},
{
closed = 1;
nodes = (
"551 798 OFFCURVE",
"603 750 OFFCURVE",
"681 750 CURVE SMOOTH",
"758 750 OFFCURVE",
"810 798 OFFCURVE",
"810 870 CURVE SMOOTH",
"810 941 OFFCURVE",
"758 989 OFFCURVE",
"681 989 CURVE SMOOTH",
"603 989 OFFCURVE",
"551 941 OFFCURVE",
"551 870 CURVE SMOOTH"
);
}
);
width = 1064;
}
);
leftKerningGroup = W_2nd;
rightKerningGroup = W1_1st;
unicode = 1E84;
},
{
glyphname = Sacute;
leftMetricsKey = "=S";
rightMetricsKey = "=S";
layers = (
{
anchors = (
{
name = top;
position = "{312, 750}";
}
);
guideLines = (
{
angle = 107.85;
position = "{351, 260}";
},
{
angle = 58.22;
position = "{2043, 465}";
}
);
layerId = "4fe7eba9-be7b-4b88-b040-678285d1e8df";
paths = (
{
closed = 1;
nodes = (
"190.009 0 LINE",
"190.009 137 LINE",
"227.009 16 OFFCURVE",
"324.009 -18 OFFCURVE",
"400.009 -18 CURVE SMOOTH",
"531.009 -18 OFFCURVE",
"622.009 85 OFFCURVE",
"622.009 213 CURVE SMOOTH",
"622.009 322 OFFCURVE",
"557.009 398 OFFCURVE",
"454.009 398 CURVE SMOOTH",
"345.009 398 OFFCURVE",
"300.009 319 OFFCURVE",
"319.009 260 CURVE",
"341.009 266 OFFCURVE",
"357.009 248 OFFCURVE",
"357.009 223 CURVE SMOOTH",
"357.009 190 OFFCURVE",
"331.009 167 OFFCURVE",
"291.009 167 CURVE SMOOTH",
"219.009 167 OFFCURVE",
"190.009 240 OFFCURVE",
"190.009 302 CURVE",
"190.009 303 LINE",
"30.009 303 LINE",
"30.009 0 LINE"
);
},
{
closed = 1;
nodes = (
"31.009 426 OFFCURVE",
"99.009 356 OFFCURVE",
"189.009 356 CURVE SMOOTH",
"271.009 356 OFFCURVE",
"309.009 414 OFFCURVE",
"297.009 472 CURVE",
"277.009 464 OFFCURVE",
"257.009 476 OFFCURVE",
"257.009 503 CURVE SMOOTH",
"257.009 537 OFFCURVE",
"287.009 556 OFFCURVE",
"322.009 556 CURVE SMOOTH",
"398.009 556 OFFCURVE",
"411.009 467 OFFCURVE",
"411.009 439 CURVE",
"571.009 439 LINE",
"571.009 700 LINE",
"411.009 700 LINE",
"411.009 583 LINE",
"379.009 686 OFFCURVE",
"297.009 718 OFFCURVE",
"225.009 718 CURVE SMOOTH",
"111.009 718 OFFCURVE",
"29.009 636 OFFCURVE",
"30.009 526 CURVE SMOOTH"
);
},
{
closed = 1;
nodes = (
"186.009 750 LINE",
"392.009 750 OFFCURVE",
"506.009 820 OFFCURVE",
"504.009 946 CURVE SMOOTH",
"503.009 1030 OFFCURVE",
"452.009 1085 OFFCURVE",
"378.009 1085 CURVE SMOOTH",
"312.009 1085 OFFCURVE",
"259.009 1041 OFFCURVE",
"259.009 988 CURVE SMOOTH",
"259.009 969 OFFCURVE",
"267.009 951 OFFCURVE",
"281.009 938 CURVE",
"286.009 943 OFFCURVE",
"291.009 945 OFFCURVE",
"297.009 945 CURVE SMOOTH",
"314.009 945 OFFCURVE",
"327.009 928 OFFCURVE",
"327.009 905 CURVE SMOOTH",
"327.009 858 OFFCURVE",
"270.009 825 OFFCURVE",
"186.009 825 CURVE"
);
}
);
width = 642;
}
);
leftKerningGroup = S_2nd;
rightKerningGroup = S1_1st;
unicode = 015A;
},
{
glyphname = Ldot;
leftMetricsKey = "=L";
rightMetricsKey = "=L";
layers = (
{
layerId = "4fe7eba9-be7b-4b88-b040-678285d1e8df";
paths = (
{
closed = 1;
nodes = (
"30 160 OFFCURVE",
"53 203 OFFCURVE",
"94 227 CURVE",
"98 214 OFFCURVE",
"106 207 OFFCURVE",
"116 207 CURVE SMOOTH",
"129 207 OFFCURVE",
"137 217 OFFCURVE",
"137 236 CURVE SMOOTH",
"137 480 LINE SMOOTH",
"137 510 OFFCURVE",
"117 530 OFFCURVE",
"87 530 CURVE SMOOTH",
"81 530 LINE",
"81 700 LINE",
"393 700 LINE",
"393 530 LINE",
"387 530 LINE SMOOTH",
"357 530 OFFCURVE",
"337 510 OFFCURVE",
"337 480 CURVE SMOOTH",
"337 172 LINE SMOOTH",
"337 47 OFFCURVE",
"280 -18 OFFCURVE",
"180 -18 CURVE SMOOTH",
"89 -18 OFFCURVE",
"30 36 OFFCURVE",
"30 112 CURVE SMOOTH"
);
},
{
closed = 1;
nodes = (
"382 170 LINE",
"638 170 LINE",
"638 0 LINE",
"382 0 LINE"
);
},
{
closed = 1;
nodes = (
"382 422 OFFCURVE",
"434 470 OFFCURVE",
"512 470 CURVE SMOOTH",
"589 470 OFFCURVE",
"641 422 OFFCURVE",
"641 351 CURVE SMOOTH",
"641 279 OFFCURVE",
"589 231 OFFCURVE",
"512 231 CURVE SMOOTH",
"434 231 OFFCURVE",
"382 279 OFFCURVE",
"382 351 CURVE SMOOTH"
);
}
);
width = 656;
}
);
leftKerningGroup = 2nd;
unicode = 013F;
},
{
glyphname = Ydieresis;
leftMetricsKey = "=Y";
rightMetricsKey = "=Y";
layers = (
{
layerId = "4fe7eba9-be7b-4b88-b040-678285d1e8df";
paths = (
{
closed = 1;
nodes = (
"239 350 OFFCURVE",
"275 285 OFFCURVE",
"275 233 CURVE SMOOTH",
"275 223 OFFCURVE",
"274 216 OFFCURVE",
"270 208 CURVE",
"268 209 OFFCURVE",
"265 210 OFFCURVE",
"262 210 CURVE SMOOTH",
"249 210 OFFCURVE",
"238 196 OFFCURVE",
"238 179 CURVE SMOOTH",
"238 158 OFFCURVE",
"255 145 OFFCURVE",
"273 145 CURVE SMOOTH",
"293 145 OFFCURVE",
"311 160 OFFCURVE",
"326 187 CURVE SMOOTH",
"481 474 LINE SMOOTH",
"502 513 OFFCURVE",
"509 527 OFFCURVE",
"509 538 CURVE SMOOTH",
"509 548 OFFCURVE",
"502 554 OFFCURVE",
"497 554 CURVE SMOOTH",
"490 554 OFFCURVE",
"486 551 OFFCURVE",
"481 546 CURVE",
"468 559 OFFCURVE",
"455 580 OFFCURVE",
"455 612 CURVE SMOOTH",
"455 674 OFFCURVE",
"506 718 OFFCURVE",
"576 718 CURVE SMOOTH",
"649 718 OFFCURVE",
"704 670 OFFCURVE",
"704 593 CURVE SMOOTH",
"704 557 OFFCURVE",
"692 515 OFFCURVE",
"663 462 CURVE SMOOTH",
"481 133 LINE SMOOTH",
"424 29 OFFCURVE",
"353 -18 OFFCURVE",
"253 -18 CURVE SMOOTH",
"84 -18 OFFCURVE",
"10 73 OFFCURVE",
"10 182 CURVE SMOOTH",
"10 285 OFFCURVE",
"77 350 OFFCURVE",
"158 350 CURVE SMOOTH"
);
},
{
closed = 1;
nodes = (
"81 530 LINE",
"81 700 LINE",
"413 700 LINE",
"413 530 LINE",
"397 530 LINE SMOOTH",
"367 530 OFFCURVE",
"359 514 OFFCURVE",
"378 491 CURVE SMOOTH",
"410 451 LINE",
"317 282 LINE",
"145 506 LINE SMOOTH",
"134 520 OFFCURVE",
"115 530 OFFCURVE",
"97 530 CURVE SMOOTH"
);
},
{
closed = 1;
nodes = (
"115 941 OFFCURVE",
"167 989 OFFCURVE",
"245 989 CURVE SMOOTH",
"322 989 OFFCURVE",
"374 941 OFFCURVE",
"374 870 CURVE SMOOTH",
"374 798 OFFCURVE",
"322 750 OFFCURVE",
"245 750 CURVE SMOOTH",
"167 750 OFFCURVE",
"115 798 OFFCURVE",
"115 870 CURVE SMOOTH"
);
},
{
closed = 1;
nodes = (
"411 941 OFFCURVE",
"463 989 OFFCURVE",
"541 989 CURVE SMOOTH",
"618 989 OFFCURVE",
"670 941 OFFCURVE",
"670 870 CURVE SMOOTH",
"670 798 OFFCURVE",
"618 750 OFFCURVE",
"541 750 CURVE SMOOTH",
"463 750 OFFCURVE",
"411 798 OFFCURVE",
"411 870 CURVE SMOOTH"
);
}
);
width = 714;
}
);
leftKerningGroup = Y_2nd;
rightKerningGroup = Y1_1st;
unicode = 0178;
},
{
glyphname = Uogonek;
leftMetricsKey = "=U";
rightMetricsKey = "=U";
layers = (
{
guideLines = (
{
angle = 90;
position = "{631, 0}";
}
);
layerId = "4fe7eba9-be7b-4b88-b040-678285d1e8df";
paths = (
{
closed = 1;
nodes = (
"22 530 LINE",
"28 530 LINE SMOOTH",
"58 530 OFFCURVE",
"78 510 OFFCURVE",
"78 480 CURVE SMOOTH",
"78 259 LINE SMOOTH",
"78 84 OFFCURVE",
"189 -18 OFFCURVE",
"362 -18 CURVE SMOOTH",
"537 -18 OFFCURVE",
"646 87 OFFCURVE",
"646 237 CURVE SMOOTH",
"646 333 OFFCURVE",
"602 392 OFFCURVE",
"532 392 CURVE SMOOTH",
"481 392 OFFCURVE",
"445 360 OFFCURVE",
"445 317 CURVE SMOOTH",
"445 301 OFFCURVE",
"450 286 OFFCURVE",
"461 268 CURVE",
"465 271 OFFCURVE",
"469 273 OFFCURVE",
"474 273 CURVE SMOOTH",
"485 273 OFFCURVE",
"489 262 OFFCURVE",
"489 244 CURVE SMOOTH",
"489 186 OFFCURVE",
"447 145 OFFCURVE",
"385 145 CURVE SMOOTH",
"318 145 OFFCURVE",
"278 194 OFFCURVE",
"278 279 CURVE SMOOTH",
"278 480 LINE SMOOTH",
"278 510 OFFCURVE",
"298 530 OFFCURVE",
"328 530 CURVE SMOOTH",
"334 530 LINE",
"334 700 LINE",
"22 700 LINE"
);
},
{
closed = 1;
nodes = (
"435 530 LINE",
"441 530 LINE SMOOTH",
"471 530 OFFCURVE",
"491 510 OFFCURVE",
"491 480 CURVE SMOOTH",
"491 431 LINE",
"631 431 LINE",
"631 480 LINE SMOOTH",
"631 510 OFFCURVE",
"651 530 OFFCURVE",
"681 530 CURVE SMOOTH",
"687 530 LINE",
"687 700 LINE",
"435 700 LINE"
);
},
{
closed = 1;
nodes = (
"440 -136 OFFCURVE",
"467 -89 OFFCURVE",
"631 -89 CURVE",
"631 -33 LINE",
"410 -33 OFFCURVE",
"272 -91 OFFCURVE",
"272 -203 CURVE SMOOTH",
"272 -277 OFFCURVE",
"333 -339 OFFCURVE",
"448 -339 CURVE SMOOTH",
"530 -339 OFFCURVE",
"591 -307 OFFCURVE",
"591 -237 CURVE SMOOTH",
"591 -183 OFFCURVE",
"554 -151 OFFCURVE",
"486 -151 CURVE",
"486 -171 OFFCURVE",
"475 -177 OFFCURVE",
"465 -177 CURVE SMOOTH",
"451 -177 OFFCURVE",
"440 -167 OFFCURVE",
"440 -155 CURVE SMOOTH"
);
}
);
width = 709;
}
);
leftKerningGroup = U_2nd;
rightKerningGroup = U1_1st;
unicode = 0172;
},
{
glyphname = Otilde;
leftMetricsKey = "=O";
rightMetricsKey = "=O";
layers = (
{
anchors = (
{
name = top;
position = "{335, 750}";
}
);
layerId = "4fe7eba9-be7b-4b88-b040-678285d1e8df";
paths = (
{
closed = 1;
nodes = (
"264 466 LINE",
"274 520 OFFCURVE",
"305 555 OFFCURVE",
"356 555 CURVE SMOOTH",
"398 555 OFFCURVE",
"441 532 OFFCURVE",
"441 484 CURVE SMOOTH",
"441 462 OFFCURVE",
"432 444 OFFCURVE",
"417 444 CURVE SMOOTH",
"411 444 OFFCURVE",
"406 446 OFFCURVE",
"403 449 CURVE",
"387 429 OFFCURVE",
"380 405 OFFCURVE",
"380 380 CURVE SMOOTH",
"380 315 OFFCURVE",
"430 272 OFFCURVE",
"504 272 CURVE SMOOTH",
"596 272 OFFCURVE",
"656 339 OFFCURVE",
"656 441 CURVE SMOOTH",
"656 581 OFFCURVE",
"542 718 OFFCURVE",
"341 718 CURVE SMOOTH",
"165 718 OFFCURVE",
"49 629 OFFCURVE",
"31 466 CURVE"
);
},
{
closed = 1;
nodes = (
"412 234 LINE",
"402 180 OFFCURVE",
"371 145 OFFCURVE",
"320 145 CURVE SMOOTH",
"278 145 OFFCURVE",
"235 168 OFFCURVE",
"235 216 CURVE SMOOTH",
"235 238 OFFCURVE",
"244 256 OFFCURVE",
"259 256 CURVE SMOOTH",
"265 256 OFFCURVE",
"270 254 OFFCURVE",
"273 251 CURVE",
"289 271 OFFCURVE",
"296 295 OFFCURVE",
"296 320 CURVE SMOOTH",
"296 385 OFFCURVE",
"246 428 OFFCURVE",
"172 428 CURVE SMOOTH",
"80 428 OFFCURVE",
"20 361 OFFCURVE",
"20 259 CURVE SMOOTH",
"20 119 OFFCURVE",
"134 -18 OFFCURVE",
"335 -18 CURVE SMOOTH",
"511 -18 OFFCURVE",
"627 71 OFFCURVE",
"645 234 CURVE"
);
},
{
closed = 1;
nodes = (
"111 997 OFFCURVE",
"41 931 OFFCURVE",
"41 848 CURVE SMOOTH",
"41 782 OFFCURVE",
"86 734 OFFCURVE",
"142 734 CURVE SMOOTH",
"176 734 OFFCURVE",
"208 752 OFFCURVE",
"222 792 CURVE",
"205 798 OFFCURVE",
"200 807 OFFCURVE",
"200 815 CURVE SMOOTH",
"200 831 OFFCURVE",
"217 841 OFFCURVE",
"240 841 CURVE SMOOTH",
"269 841 OFFCURVE",
"294 825 OFFCURVE",
"316 808 CURVE SMOOTH",
"367 768 OFFCURVE",
"414 750 OFFCURVE",
"462 750 CURVE SMOOTH",
"552 750 OFFCURVE",
"622 814 OFFCURVE",
"622 896 CURVE SMOOTH",
"622 961 OFFCURVE",
"577 1008 OFFCURVE",
"522 1008 CURVE SMOOTH",
"488 1008 OFFCURVE",
"456 990 OFFCURVE",
"442 950 CURVE",
"459 944 OFFCURVE",
"464 935 OFFCURVE",
"464 926 CURVE SMOOTH",
"464 910 OFFCURVE",
"448 901 OFFCURVE",
"427 901 CURVE SMOOTH",
"403 901 OFFCURVE",
"380 913 OFFCURVE",
"337 941 CURVE SMOOTH",
"273 982 OFFCURVE",
"240 997 OFFCURVE",
"198 997 CURVE SMOOTH"
);
}
);
width = 676;
}
);
leftKerningGroup = O_2nd;
rightKerningGroup = O1_1st;
unicode = 00D5;
},
{
glyphname = copyright;
leftMetricsKey = "=O";
rightMetricsKey = "=O";
layers = (
{
anchors = (
{
name = top;
position = "{451, 593}";
}
);
layerId = "4fe7eba9-be7b-4b88-b040-678285d1e8df";
paths = (
{
closed = 1;
nodes = (
"192 479 LINE",
"225 594 OFFCURVE",
"311 649 OFFCURVE",
"450 649 CURVE SMOOTH",
"567 649 OFFCURVE",
"714 570 OFFCURVE",
"714 440 CURVE SMOOTH",
"714 418 OFFCURVE",
"710 411 OFFCURVE",
"700 411 CURVE SMOOTH",
"694 411 OFFCURVE",
"688 414 OFFCURVE",
"685 420 CURVE",
"667 411 OFFCURVE",
"659 389 OFFCURVE",
"659 366 CURVE SMOOTH",
"659 315 OFFCURVE",
"700 276 OFFCURVE",
"758 276 CURVE SMOOTH",
"826 276 OFFCURVE",
"864 331 OFFCURVE",
"864 417 CURVE SMOOTH",
"864 608 OFFCURVE",
"679 771 OFFCURVE",
"448 771 CURVE SMOOTH",
"222 771 OFFCURVE",
"77 670 OFFCURVE",
"37 479 CURVE"
);
},
{
closed = 1;
nodes = (
"558 127 OFFCURVE",
"622 187 OFFCURVE",
"631 298 CURVE",
"533 298 LINE",
"527 252 OFFCURVE",
"503 226 OFFCURVE",
"465 226 CURVE SMOOTH",
"415 226 OFFCURVE",
"393 263 OFFCURVE",
"393 351 CURVE SMOOTH",
"393 432 OFFCURVE",
"417 476 OFFCURVE",
"461 476 CURVE SMOOTH",
"489 476 OFFCURVE",
"513 459 OFFCURVE",
"513 437 CURVE SMOOTH",
"513 427 OFFCURVE",
"509 420 OFFCURVE",
"504 420 CURVE SMOOTH",
"502 420 OFFCURVE",
"500 421 OFFCURVE",
"498 423 CURVE",
"493 417 OFFCURVE",
"490 409 OFFCURVE",
"490 398 CURVE SMOOTH",
"490 370 OFFCURVE",
"513 342 OFFCURVE",
"552 342 CURVE SMOOTH",
"598 342 OFFCURVE",
"627 380 OFFCURVE",
"627 429 CURVE SMOOTH",
"627 515 OFFCURVE",
"551 575 OFFCURVE",
"444 575 CURVE SMOOTH",
"321 575 OFFCURVE",
"252 494 OFFCURVE",
"252 351 CURVE SMOOTH",
"252 198 OFFCURVE",
"314 127 OFFCURVE",
"447 127 CURVE SMOOTH"
);
},
{
closed = 1;
nodes = (
"692 229 LINE",
"659 114 OFFCURVE",
"573 59 OFFCURVE",
"434 59 CURVE SMOOTH",
"317 59 OFFCURVE",
"170 138 OFFCURVE",
"170 268 CURVE SMOOTH",
"170 290 OFFCURVE",
"174 297 OFFCURVE",
"184 297 CURVE SMOOTH",
"190 297 OFFCURVE",
"196 294 OFFCURVE",
"199 288 CURVE",
"217 297 OFFCURVE",
"225 319 OFFCURVE",
"225 342 CURVE SMOOTH",
"225 393 OFFCURVE",
"184 432 OFFCURVE",
"126 432 CURVE SMOOTH",
"58 432 OFFCURVE",
"20 377 OFFCURVE",
"20 291 CURVE SMOOTH",
"20 100 OFFCURVE",
"205 -63 OFFCURVE",
"436 -63 CURVE SMOOTH",
"662 -63 OFFCURVE",
"807 38 OFFCURVE",
"847 229 CURVE"
);
}
);
width = 884;
}
);
unicode = 00A9;
},
